<svg
        xmlns="http://www.w3.org/2000/svg"
        xmlSpace="preserve"
        fillRule="evenodd"
        strokeLinecap="round"
        strokeLinejoin="round"
        strokeMiterlimit="1.5"
        clipRule="evenodd"
        viewBox="0 0 6400 2400">
        

<g id="piece-horizontal-gradient"><rect x="0" y="0" width="6400" height="2400" style="fill:url(#_Linear1);"/>
<defs>
	<linearGradient id="_Linear1" x1="0" y1="0" x2="1" y2="0" gradientUnits="userSpaceOnUse" gradientTransform="matrix(2.93759e-13,-2398.72,4797.44,1.46879e-13,3123.83,2397.6)">
		<stop offset="0" style="stop-color:rgb(19,150,21);stop-opacity:1"/>
		<stop offset="1" style="stop-color:rgb(77,201,255);stop-opacity:1"/>
	</linearGradient>
</defs>
</g><g id="piece-earth"><path d="M6404.19,2418.18C6474.3,2418.18 6426.28,1890 6426.28,1890L6363.58,1890C6363.58,1890 6207.21,1876.01 6132.2,1876.64C6047.63,1877.35 5929.3,1883.54 5741.89,1881.28C5671.66,1880.43 5593.59,1876.08 5531.77,1876.76C5472.65,1877.42 4463.44,1879.98 3442.89,1882.86C3241.2,1883.43 2406.73,1891.77 2258.42,1886.1C1021.27,1838.78 49.602,1890 49.602,1890L-12.539,1890L-31.547,2396.21C-31.547,2396.21 3181.46,2418.18 6404.19,2418.18Z" style="fill:rgb(169,125,42);stroke:black;stroke-opacity:0.56;stroke-width:5px;"/>
</g><g id="piece-trees"><g xmlns="http://www.w3.org/2000/svg">
	<path d="M2703.82,340.487C2703.82,340.487 2675.28,848.43 2676.56,1214.74C2677.54,1496.13 2692.51,1777.42 2699.59,1798.59C2715.88,1847.32 2729.57,1886.13 2738.19,1899.02C2746.82,1911.9 2731.36,1905.65 2713.64,1919.69C2695.9,1933.73 2691.61,1906.71 2679.54,1917.46C2667.47,1928.22 2656.32,1912.74 2645.24,1924.75C2634.16,1936.75 2624.53,1915.94 2605.07,1916.88C2585.61,1917.82 2591.42,1894.39 2574.7,1913.09C2557.97,1931.81 2547.06,1931.8 2544.46,1910.46C2541.88,1889.12 2546.98,1895.44 2524.58,1902.9C2502.18,1910.36 2493.97,1933.2 2487.76,1908.72C2481.55,1884.24 2479.11,1904.77 2468.28,1906.57C2457.46,1908.35 2484.21,1870.62 2497.49,1846.9C2505.7,1832.24 2507.09,1284.87 2507.88,883.365C2508.37,635.332 2526.95,331.584 2526.95,331.584L2703.82,340.487Z" style="fill:rgb(191,156,116);stroke:black;stroke-width:2.17px;"/>
	<path d="M2703.82,340.487C2703.82,340.487 2675.28,848.43 2676.56,1214.74C2677.54,1496.13 2692.51,1777.42 2699.59,1798.59C2715.88,1847.32 2729.57,1886.13 2738.19,1899.02C2746.82,1911.9 2731.36,1905.65 2713.64,1919.69C2695.9,1933.73 2691.61,1906.71 2679.54,1917.46C2667.47,1928.22 2656.32,1912.74 2645.24,1924.75C2634.16,1936.75 2624.53,1915.94 2605.07,1916.88C2585.61,1917.82 2591.42,1894.39 2574.7,1913.09C2557.97,1931.81 2547.06,1931.8 2544.46,1910.46C2541.88,1889.12 2546.98,1895.44 2524.58,1902.9C2502.18,1910.36 2493.97,1933.2 2487.76,1908.72C2481.55,1884.24 2479.11,1904.77 2468.28,1906.57C2457.46,1908.35 2484.21,1870.62 2497.49,1846.9C2505.7,1832.24 2507.09,1284.87 2507.88,883.365C2508.37,635.332 2526.95,331.584 2526.95,331.584L2703.82,340.487Z" style="fill-opacity:0.09;"/>
	<path d="M2703.82,340.487C2703.82,340.487 2675.28,848.43 2676.56,1214.74C2677.54,1496.13 2692.51,1777.42 2699.59,1798.59C2715.88,1847.32 2729.57,1886.13 2738.19,1899.02C2746.82,1911.9 2731.36,1905.65 2713.64,1919.69C2695.9,1933.73 2691.61,1906.71 2679.54,1917.46C2667.47,1928.22 2656.32,1912.74 2645.24,1924.75C2634.16,1936.75 2624.53,1915.94 2605.07,1916.88C2585.61,1917.82 2591.42,1894.39 2574.7,1913.09C2557.97,1931.81 2576.18,1883.24 2603.29,1885.27C2676.12,1890.73 2653.82,1782.7 2642.68,1586.53C2631.15,1383.34 2629.41,1088.26 2629.81,883.982C2630.3,635.95 2648.88,332.202 2648.88,332.202L2703.82,340.487Z" style="fill-opacity:0.09;"/>
	<path d="M2618.67,1082.84C2620.38,1119.91 2621.41,1134.67 2621.41,1134.67" style="fill:none;stroke:black;stroke-width:2.17px;"/>
	<path d="M2537.8,1081.08C2537.8,1081.08 2539.95,1277.36 2539.48,1315.29" style="fill:none;stroke:black;stroke-width:2.17px;"/>
	<path d="M2562.92,1176.9C2562.92,1176.9 2570.5,1678.35 2559.56,1714.19" style="fill:none;stroke:black;stroke-width:2.17px;"/>
	<path d="M2579.22,931.915L2576.65,1098.85" style="fill:none;stroke:black;stroke-width:2.17px;"/>
</g>
<g xmlns="http://www.w3.org/2000/svg">
	<path d="M4230.46,413.331C4230.46,413.331 4270.23,607.328 4275.3,660.091C4280.38,712.854 4287.35,775.3 4287.3,821.606C4287.26,867.912 4296.32,959.08 4294.28,1004.11C4292.25,1049.13 4301.57,1217.26 4288.73,1268.53C4275.88,1319.8 4267.37,1412.39 4266.55,1459.17C4265.73,1505.95 4263.76,1841.75 4247.14,1897.27C4230.51,1952.8 4518.3,1956.73 4530.35,1929.54C4542.41,1902.34 4492.96,1558.14 4482.96,1516.74C4472.96,1475.34 4438.14,1321.17 4435.54,1249.78C4432.94,1178.38 4430.26,1047.12 4436.85,1024.69C4443.44,1002.27 4476.15,934.641 4480.63,880.633C4485.11,826.624 4493.66,725.448 4511.94,687.609C4530.22,649.77 4563.12,501.698 4585.19,462.153C4607.26,422.609 4558.35,417.223 4558.35,417.223C4558.35,417.223 4500.85,576.422 4494.4,615.656C4487.95,654.891 4495.08,306.958 4495.08,306.958L4464.15,306.382C4464.15,306.382 4458.83,544.209 4456.52,584.68C4454.22,625.152 4430.71,708.667 4430.7,748.353C4430.69,788.04 4412.52,799.795 4414.74,834.935C4416.96,870.075 4387.36,920.001 4386.47,944.963C4385.58,969.925 4378.74,764.167 4370.49,738.847C4362.25,713.528 4338.84,615.574 4333.32,584.092C4327.81,552.61 4311.07,453.135 4316.81,420.159C4322.54,387.183 4230.46,413.331 4230.46,413.331Z" style="fill:rgb(191,156,116);stroke:black;stroke-width:2.8px;"/>
	<path d="M4406.52,1033.66C4405.63,1058.62 4390.23,1250.43 4398.38,1301.6C4405.38,1345.51 4428.5,1482.24 4427.68,1529.02C4426.86,1575.8 4482.87,1814.69 4466.24,1870.21C4449.62,1925.74 4510.14,1942.8 4522.19,1915.61C4534.25,1888.41 4503.48,1600.74 4493.48,1559.34C4483.48,1517.94 4455.8,1393.04 4440.82,1318.46C4427.06,1249.94 4428.69,1052.86 4435.28,1030.44C4441.87,1008.02 4475.73,934.901 4480.21,880.893C4484.69,826.885 4479.42,765.641 4497.7,727.802C4515.98,689.963 4562.57,495.788 4584.64,456.243C4606.71,416.698 4576.72,419.627 4576.72,419.627C4576.72,419.627 4503.78,619.818 4497.33,659.052C4490.88,698.287 4447.47,841.37 4447.45,881.057C4447.44,920.743 4407.4,1008.7 4406.52,1033.66Z" style="fill-opacity:0.15;"/>
	<path d="M4294.71,1367.68C4290.18,1406.8 4298.6,1448.22 4293.21,1476.72" style="fill:none;stroke:black;stroke-width:2.8px;"/>
	<path d="M4235.37,453.523C4235.37,453.523 4275.14,647.521 4280.22,700.284C4285.29,753.047 4292.26,815.493 4292.21,861.799C4292.17,908.105 4299.24,996.57 4297.2,1041.6C4295.16,1086.62 4302.83,1218.42 4289.98,1269.69C4277.14,1320.95 4269.06,1410.99 4268.23,1457.77C4267.41,1504.55 4261.3,1822.99 4252.05,1883.34C4242.96,1942.59 4279.81,1632.21 4284.52,1600.42C4289.82,1564.66 4289.26,1512.05 4292.97,1450.08C4295.17,1413.34 4298.87,1373.3 4306.19,1331.54C4333.67,1174.75 4340.04,1000.4 4339.53,1014.84C4338.64,1039.8 4334.14,806.715 4325.89,781.396C4317.65,756.077 4303.08,657.317 4297.56,625.835C4292.05,594.353 4256.44,447.957 4262.17,414.981C4267.91,382.005 4235.37,453.523 4235.37,453.523Z" style="fill-opacity:0.07;"/>
	<path d="M4302.48,656.99C4304.06,680.114 4314.98,717.575 4312.72,739.499" style="fill:none;stroke:black;stroke-width:2.8px;"/>
	<path d="M4331.16,803.678C4331.16,803.678 4333.11,835.892 4334.4,842.346C4335.68,848.8 4339.12,900.173 4337.42,913.764" style="fill:none;stroke:black;stroke-width:2.8px;"/>
	<path d="M4327.82,1101.41C4327.82,1101.41 4321.74,1159.06 4317.62,1177.66" style="fill:none;stroke:black;stroke-width:2.8px;"/>
</g>
<g xmlns="http://www.w3.org/2000/svg">
	<path d="M1409.53,256.477C1409.53,256.477 1381.2,586.497 1376.12,638.808C1371.05,691.119 1364.08,753.03 1364.13,798.94C1364.17,844.85 1353.69,999.453 1355.73,1044.09C1357.77,1088.74 1348.44,1255.43 1361.29,1306.26C1374.14,1357.09 1382.64,1448.88 1383.46,1495.26C1384.29,1541.64 1387.67,1810.35 1404.29,1865.4C1407.71,1876.72 1446.46,1889.34 1429.19,1896.51C1422.83,1899.15 1396.84,1895.73 1384.71,1897.14C1369.37,1898.93 1366.75,1905.55 1349.15,1909.82C1335.08,1913.24 1328.27,1905 1308.57,1901.46C1279.64,1896.27 1245.32,1895.89 1218.56,1901.6C1180.78,1909.66 1151.53,1911.62 1133.12,1908.38C1117.62,1905.65 1155.77,1899.07 1153.9,1894.89C1141.85,1867.93 1191.29,1526.67 1201.29,1485.63C1211.3,1444.58 1213.29,1294.23 1215.89,1223.44C1218.48,1152.66 1221.17,1022.52 1214.58,1000.29C1207.98,978.056 1175.28,911.007 1170.8,857.461C1166.32,803.915 1157.77,703.606 1139.49,666.091C1121.21,628.575 1088.3,481.772 1066.24,442.565C1044.17,403.359 1093.08,398.019 1093.08,398.019C1093.08,398.019 1150.58,555.855 1157.03,594.754C1163.48,633.652 1156.34,288.698 1156.34,288.698L1217.44,157.845C1217.44,157.845 1214.47,223.944 1214.06,288.988C1213.68,348.443 1210.87,542.647 1211.97,561.809C1214.28,601.934 1232.08,661.746 1232.09,701.093C1232.1,740.439 1257.26,753.673 1255.04,788.513C1252.83,823.352 1283.5,852.498 1284.39,877.246C1285.28,901.994 1281.93,737.585 1290.17,712.483C1298.42,687.38 1297.82,579.836 1303.33,548.624C1308.85,517.411 1325.21,285.843 1319.47,253.15C1313.74,220.457 1409.53,256.477 1409.53,256.477Z" style="fill:rgb(191,156,116);stroke:black;stroke-width:2.8px;"/>
	<path d="M1244.91,1009.18C1245.8,1033.93 1261.2,1224.1 1253.05,1274.82C1246.05,1318.36 1255.75,1451.42 1256.58,1497.8C1257.4,1544.18 1201.38,1781.02 1218.01,1836.08C1223.24,1853.38 1291.47,1899.39 1283.41,1899.01C1269.93,1898.36 1212.93,1903.29 1200.27,1905.01C1195.12,1905.71 1141.07,1909.28 1130.94,1907.43C1122.42,1905.87 1157.37,1899.3 1155.75,1895.68C1143.69,1868.72 1184.2,1588.22 1190.77,1545.7C1197.4,1502.71 1195.83,1353.05 1210.85,1279.25C1220.6,1231.38 1222.74,1028.22 1216.15,1005.99C1209.56,983.755 1175.69,911.265 1171.21,857.719C1166.74,804.173 1155.57,720.964 1149.92,696.6C1145.42,677.165 1129.32,641.637 1114.8,593.317C1096.67,532.995 1080.48,466.197 1067.68,445.121C1049.94,415.902 1074.71,400.403 1074.71,400.403C1074.71,400.403 1147.64,598.88 1154.1,637.778C1160.55,676.677 1203.96,818.535 1203.98,857.882C1203.99,897.228 1244.02,984.43 1244.91,1009.18Z" style="fill-opacity:0.08;"/>
	<path d="M1227.61,1425.8C1232.14,1464.58 1223.72,1505.64 1229.11,1533.9" style="fill:none;stroke:black;stroke-width:2.8px;"/>
	<path d="M1404.62,296.326C1404.62,296.326 1376.29,626.345 1371.21,678.657C1366.14,730.968 1359.17,792.879 1359.21,838.789C1359.26,884.698 1352.19,972.406 1354.23,1017.05C1356.27,1061.69 1348.6,1192.35 1361.44,1243.18C1374.29,1294.01 1382.37,1383.28 1383.19,1429.66C1384.02,1476.04 1390.13,1791.75 1399.38,1851.59C1408.46,1910.33 1371.62,1602.61 1366.91,1571.08C1361.61,1535.63 1362.17,1483.47 1358.46,1422.03C1356.26,1385.61 1352.56,1345.91 1345.24,1304.51C1317.76,1149.06 1311.39,976.208 1311.9,990.521C1312.79,1015.27 1317.29,784.177 1325.54,759.074C1333.78,733.972 1348.35,636.058 1353.87,604.845C1359.38,573.633 1383.55,290.807 1377.81,258.113C1372.08,225.42 1404.62,296.326 1404.62,296.326Z" style="fill-opacity:0.15;"/>
	<path d="M1150.43,623.647C1153.93,646.106 1167.9,680.958 1167.5,702.938" style="fill:none;stroke:black;stroke-width:2.8px;"/>
	<path d="M1191.18,762.697C1191.18,762.697 1195.81,794.03 1197.63,800.144C1199.45,806.257 1207.16,856.166 1206.62,869.845" style="fill:none;stroke:black;stroke-width:2.8px;"/>
	<path d="M1247.94,1094.3C1247.94,1094.3 1254.02,1151.45 1258.13,1169.9" style="fill:none;stroke:black;stroke-width:2.8px;"/>
</g>
<g xmlns="http://www.w3.org/2000/svg">
	<path d="M4811.22,448.053C4811.22,448.053 4819.43,466.532 4824.52,502.277C4829.6,538.021 4837.19,705.198 4839.15,738.217C4841.11,771.236 4837.69,790.396 4844.16,815.757C4850.62,841.118 4844.87,861.418 4850.31,886.737C4855.74,912.055 4864.18,922.855 4867.27,972.422C4870.35,1021.99 4864.44,1042.55 4864.23,1075.9C4864.02,1109.25 4870.63,1161.36 4869.05,1191.41C4867.48,1221.46 4851.4,1318.46 4849.96,1357.18C4848.52,1395.89 4854.76,1451.93 4851.7,1497.57C4848.65,1543.21 4847.36,1577.2 4845.68,1612.74C4843.99,1648.28 4846.47,1632.29 4841.79,1668.37C4837.12,1704.44 4847.86,1819.92 4846.66,1854.7C4846.09,1871.21 4827.52,1878.13 4834.53,1889.48C4836.7,1893 4851.21,1890.7 4861.43,1893.08C4873.3,1895.85 4879.19,1905.29 4901.83,1902.7C4928.7,1899.63 4958.04,1913.85 4984.45,1913.77C4994.25,1913.75 5016.99,1900.82 5025.56,1901.1C5060.06,1902.25 5072.65,1896.19 5062.81,1888.63C5062.81,1888.63 5049.53,1871.73 5049.94,1834.95C5050.11,1820.4 5047.61,1734.06 5046.95,1718.69C5044.59,1664.47 5047.32,1561.9 5048.01,1526.41C5048.7,1490.93 5050.53,1360.82 5052.48,1331.04C5054.43,1301.26 5046.19,1155.96 5042.53,1107.3C5038.88,1058.64 5045.97,1007.4 5047.59,973.56C5049.21,939.716 5053.28,829.625 5060.23,792.361C5067.18,755.098 5097.65,698.759 5102.48,673.079C5107.32,647.4 5118.09,501.513 5119.11,471.791C5120.14,442.069 5122.87,386.05 5122.87,386.05L5056.85,408.967C5056.85,408.967 5060.45,437.511 5055.43,476.297C5050.41,515.083 5046.77,625.88 5041.74,656.403C5036.71,686.926 5009.32,786.261 5009.32,786.261C5009.32,786.261 4970.31,700.088 4966.84,680.324C4963.38,660.561 4941.25,489.943 4940.14,454.29C4939.02,418.637 4811.22,448.053 4811.22,448.053Z" style="fill:rgb(191,156,116);stroke:black;stroke-width:2.8px;"/>
	<path d="M4811.22,448.053C4811.22,448.053 4819.43,466.532 4824.52,502.277C4829.6,538.021 4837.19,705.198 4839.15,738.217C4841.11,771.236 4837.69,790.396 4844.16,815.757C4850.62,841.118 4844.87,861.418 4850.31,886.737C4855.74,912.055 4864.18,922.855 4867.27,972.422C4870.35,1021.99 4864.44,1042.55 4864.23,1075.9C4864.02,1109.25 4870.63,1161.36 4869.05,1191.41C4867.48,1221.46 4851.4,1318.46 4849.96,1357.18C4848.52,1395.89 4854.76,1451.93 4851.7,1497.57C4848.65,1543.21 4847.36,1577.2 4845.68,1612.74C4843.99,1648.28 4846.47,1632.29 4841.79,1668.37C4837.12,1704.44 4847.86,1819.92 4846.66,1854.7C4846.09,1871.21 4827.52,1878.13 4834.53,1889.48C4836.7,1893 4851.21,1890.7 4861.43,1893.08C4873.3,1895.85 4879.19,1905.29 4901.83,1902.7C4928.7,1899.63 4958.04,1913.85 4984.45,1913.77C4994.25,1913.75 5016.99,1900.82 5025.56,1901.1C5060.06,1902.25 5072.65,1896.19 5062.81,1888.63C5062.81,1888.63 5049.53,1871.73 5049.94,1834.95C5050.11,1820.4 5047.61,1734.06 5046.95,1718.69C5044.59,1664.47 5047.32,1561.9 5048.01,1526.41C5048.7,1490.93 5050.53,1360.82 5052.48,1331.04C5054.43,1301.26 5046.19,1155.96 5042.53,1107.3C5038.88,1058.64 5045.97,1007.4 5047.59,973.56C5049.21,939.716 5053.28,829.625 5060.23,792.361C5067.18,755.098 5097.65,698.759 5102.48,673.079C5107.32,647.4 5118.09,501.513 5119.11,471.791C5120.14,442.069 5122.87,386.05 5122.87,386.05L5056.85,408.967C5056.85,408.967 5060.45,437.511 5055.43,476.297C5050.41,515.083 5046.77,625.88 5041.74,656.403C5036.71,686.926 5009.32,786.261 5009.32,786.261C5009.32,786.261 4970.31,700.088 4966.84,680.324C4963.38,660.561 4941.25,489.943 4940.14,454.29C4939.02,418.637 4811.22,448.053 4811.22,448.053Z" style="fill-opacity:0.14;stroke:black;stroke-width:2.8px;"/>
	<path d="M4811.22,448.053C4811.22,448.053 4819.43,466.532 4824.52,502.277C4829.6,538.021 4831.99,619.409 4833.96,652.428C4835.92,685.447 4832.5,704.606 4838.97,729.968C4845.43,755.329 4839.68,775.629 4845.11,800.948C4850.55,826.266 4846.88,826.605 4849.96,876.173C4853.05,925.74 4871.55,951.266 4871.34,984.612C4871.24,1000.31 4864.95,1039.84 4864.64,1081.01C4864.29,1127.29 4869.89,1175.51 4869.05,1191.41C4867.48,1221.46 4851.4,1318.46 4849.96,1357.18C4848.52,1395.89 4854.76,1451.93 4851.7,1497.57C4848.65,1543.21 4847.36,1577.2 4845.68,1612.74C4843.99,1648.28 4846.47,1632.29 4841.79,1668.37C4837.12,1704.44 4847.82,1819.53 4846.66,1854.7C4846.29,1865.85 4828.75,1883.17 4836.07,1889.74C4840.94,1894.1 4848.34,1889.77 4857.03,1891.31C4865.7,1892.86 4875.46,1897.47 4883.33,1899.05C4893.07,1901.01 4911.89,1898.96 4911.89,1898.96C4911.89,1898.96 4887.34,1861.1 4882.64,1839.3C4872.17,1790.81 4876.49,1731.65 4876.97,1707.17C4877.66,1671.68 4898.59,1512.31 4900.54,1482.53C4902.49,1452.75 4905.01,1249.99 4907.3,1201.17C4910.64,1130.24 4896.78,917.088 4898.4,883.243C4900.02,849.399 4863.4,681.698 4859.93,661.935C4856.47,642.172 4837.43,486.908 4836.32,451.255C4835.21,415.603 4811.22,448.053 4811.22,448.053Z" style="fill-opacity:0.05;"/>
	<path d="M4902.28,444.846C4902.28,444.846 4910.5,463.326 4915.58,499.07C4920.67,534.814 4940.29,702.918 4942.25,735.937C4944.22,768.956 4964.1,796.691 4970.56,822.052C4977.03,847.413 4989.78,874.616 4995.21,899.935C5000.65,925.253 5008.39,988.605 5011.48,1038.17C5014.56,1087.74 5005.77,1071.87 5005.56,1105.22C5005.35,1138.56 5005.31,1208.82 5005.47,1246.9C5005.64,1284.98 5009.57,1421.21 5008.13,1459.93C5006.69,1498.64 5013.08,1577.14 5010.02,1622.78C5006.97,1668.42 5005.42,1834.81 5004.26,1869.97C5004.04,1876.57 4990.82,1885.32 4994.23,1889.1C4997.86,1893.14 4977.44,1905.49 4984.63,1906.84C4993.13,1908.43 5005.47,1903.42 5019.37,1901.14C5041.52,1897.49 5065.18,1895.14 5065.18,1895.14C5065.18,1895.14 5047.54,1864.73 5047.77,1844.86C5048.17,1809.31 5048.46,1753.48 5046.95,1718.69C5044.59,1664.47 5047.32,1561.9 5048.01,1526.41C5048.7,1490.93 5050.53,1360.82 5052.48,1331.04C5054.43,1301.26 5046.19,1155.96 5042.53,1107.3C5038.88,1058.64 5045.97,1007.4 5047.59,973.56C5049.21,939.716 5053.28,829.625 5060.23,792.361C5067.18,755.098 5097.65,698.759 5102.48,673.079C5107.32,647.4 5118.09,501.513 5119.11,471.791C5120.14,442.069 5122.87,386.05 5122.87,386.05L5056.85,408.967C5056.85,408.967 5060.45,437.511 5055.43,476.297C5050.41,515.083 5046.77,625.88 5041.74,656.403C5036.71,686.926 5009.32,786.261 5009.32,786.261C5009.32,786.261 4970.31,700.088 4966.84,680.324C4963.38,660.561 4941.25,489.943 4940.14,454.29C4939.02,418.637 4902.28,444.846 4902.28,444.846Z" style="fill-opacity:0.12;"/>
	<path d="M4917.32,646.685C4917.32,646.685 4924.84,705.084 4930.38,728.176C4935.93,751.268 4938.62,771.65 4950.57,803.698C4962.52,835.746 4972.91,855.072 4981.05,880.62C4989.19,906.167 4991.52,951.164 4991.52,951.164" style="fill:none;stroke:black;stroke-width:2.8px;"/>
	<path d="M4994.23,1079.4C4996.88,1117.63 4999.3,1155.24 5001.09,1186.01C5002.88,1216.78 4998.83,1211.83 5001.7,1245.56" style="fill:none;stroke:black;stroke-width:2.8px;"/>
	<path d="M5007.14,1356.3C5003.59,1415.47 5003.17,1428.84 5001.22,1463.74C4999.28,1498.64 5000.93,1509.76 4996.1,1535.2" style="fill:none;stroke:black;stroke-width:2.8px;"/>
</g>
<g xmlns="http://www.w3.org/2000/svg">
	<path d="M3882.62,970.504C3879.01,954.456 3875.22,936.449 3874.2,923.75C3872.16,898.24 3876.21,870.209 3877.07,846.972C3877.84,826.091 3879.48,795.706 3879.35,784.327C3879.32,782.113 3876.18,780.911 3876.25,778.698C3876.49,771.741 3880.78,742.583 3880.78,742.583C3880.78,742.583 3877.57,740.155 3877.69,738.314C3878.08,732.546 3883.08,713.892 3883.1,707.973C3883.11,705.32 3877.35,705.406 3877.79,702.802C3887.12,648.321 3886.44,551.245 3886.36,519.771C3886.35,515.827 3877.87,517.856 3877.32,513.961C3876.56,508.536 3881.69,492.493 3881.81,487.224C3881.86,485.055 3878.03,484.517 3878.03,482.348C3878.04,455.883 3881.78,354.981 3881.9,328.433C3881.91,325.355 3876.15,325.193 3875.98,322.121C3875.8,318.729 3880.79,308.078 3880.79,308.078L3766.24,287.899C3766.24,287.899 3772.34,524.127 3772.06,533.821C3771.78,543.515 3761.83,542.113 3762.55,545.147C3774.04,593.673 3757.45,734.253 3754.75,772.967C3754.5,776.494 3746.05,773.902 3746.3,777.43C3747.82,799.602 3753.28,859.552 3745.23,897.575C3744.91,899.074 3750.92,896.602 3751.15,898.878C3752.05,908.063 3750.18,934.759 3750.66,952.688C3750.71,954.466 3748.93,958.543 3749.3,960.688C3754.12,988.92 3753.82,1019.93 3754.78,1033.53C3754.98,1036.43 3754.36,1042.71 3754.07,1045.6C3753.8,1048.21 3753.3,1052.72 3752.71,1057.95L3752.1,1057.85L3752.32,1061.48C3750.68,1075.93 3748.62,1093.69 3748.62,1093.69L3754.35,1095.24C3755.87,1120.51 3757.95,1155.36 3759.96,1189.41C3758.93,1190.15 3757.91,1190.9 3757.93,1192.14C3757.97,1195.68 3759.85,1203.55 3761.21,1210.68C3761.48,1215.23 3761.74,1219.71 3761.99,1224.12C3759.94,1226.8 3752.78,1225.21 3752.73,1229.21C3752.5,1251.58 3751.79,1302.92 3753.57,1353.61C3754.65,1384.48 3760.38,1362.78 3763.98,1386.48C3764.44,1389.47 3758.25,1389.18 3758.23,1392.22C3758.2,1398.99 3763.41,1420.49 3763.77,1427.1C3763.88,1429.2 3760.4,1431.88 3760.4,1431.88C3760.4,1431.88 3764.75,1465.36 3764.94,1473.33C3765,1475.86 3761.61,1477.13 3761.56,1479.67C3761.31,1492.67 3762.8,1527.48 3763.44,1551.38C3764.15,1577.99 3768.25,1580.73 3765.81,1609.84C3763.28,1640.21 3747.43,1653.74 3748.22,1661.05C3749.01,1668.36 3742.69,1675.65 3741.4,1683.49C3739.35,1695.88 3734.93,1692.16 3731,1720.67C3730.17,1721.13 3729.62,1721.81 3729.61,1722.91C3729.59,1725.12 3729.63,1727.47 3729.73,1729.94C3726.34,1754.63 3723.61,1757.43 3723.61,1757.43L3734.37,1754.68C3739.88,1790.97 3735.81,1795.25 3735.8,1798.28C3735.76,1805.05 3731.14,1799.24 3731.5,1805.84C3731.62,1807.95 3737.29,1835.86 3737.48,1843.82C3737.54,1846.36 3734.15,1847.63 3734.1,1850.16C3733.93,1859 3734.6,1892.54 3735.23,1911.25C3735.52,1920.07 3889.13,1943.65 3890.22,1916.12C3891.14,1893.16 3892.89,1858.11 3893.73,1846.6C3894.02,1842.57 3884.92,1845.26 3884.69,1841.22C3882.13,1796.85 3881.45,1801.04 3894.24,1745.91C3895.02,1742.59 3885.08,1743.66 3884.18,1733.79L3899.24,1729.93C3899.24,1729.93 3894.84,1721.52 3893.83,1710.02C3893.54,1706.7 3892.93,1699.49 3893.17,1696.18C3894.33,1680.66 3894.29,1688.28 3899.73,1656.15C3900.14,1653.7 3898.27,1648.98 3898.34,1646.95C3899.02,1626.46 3897.25,1625.32 3898.31,1614.84C3898.57,1612.25 3905.01,1615.27 3904.68,1613.55C3896.38,1569.8 3902.8,1501.41 3904.64,1476.1C3904.93,1472.08 3895.83,1474.77 3895.6,1470.72C3894.15,1445.53 3889.57,1435.05 3891.45,1375.34C3906.88,1373.22 3915.16,1369.34 3909.01,1363.68C3894.66,1350.46 3916.5,1310.7 3907.54,1295.28C3905.75,1292.19 3899.16,1292.76 3896.89,1290.44C3898.16,1279.52 3899.66,1270 3901.41,1262.47C3901.79,1260.82 3899.54,1260.25 3897.07,1258.9C3896.53,1258.46 3896.16,1257.97 3896.14,1257.37C3895.58,1237.28 3896.42,1174.57 3896.6,1133.62L3911.64,1137.68C3911.64,1137.68 3902.29,1067.85 3897.61,1036.54C3898.87,997.148 3899.8,968.139 3899.8,968.139L3882.62,970.504Z" style="fill:rgb(191,156,116);stroke:black;stroke-width:2.8px;"/>
	<path d="M3882.62,970.504C3879.01,954.456 3875.22,936.449 3874.2,923.75C3872.16,898.24 3876.21,870.209 3877.07,846.972C3877.84,826.091 3879.48,795.706 3879.35,784.327C3879.32,782.113 3876.18,780.911 3876.25,778.698C3876.49,771.741 3880.78,742.583 3880.78,742.583C3880.78,742.583 3877.57,740.155 3877.69,738.314C3878.08,732.546 3883.08,713.892 3883.1,707.973C3883.11,705.32 3877.35,705.406 3877.79,702.802C3887.12,648.321 3886.44,551.245 3886.36,519.771C3886.35,515.827 3877.87,517.856 3877.32,513.961C3876.56,508.536 3881.69,492.493 3881.81,487.224C3881.86,485.055 3878.03,484.517 3878.03,482.348C3878.04,455.883 3881.78,354.981 3881.9,328.433C3881.91,325.355 3876.15,325.193 3875.98,322.121C3875.8,318.729 3880.79,308.078 3880.79,308.078L3866.24,287.899C3866.24,287.899 3872.34,524.127 3872.06,533.821C3871.78,543.515 3861.83,542.113 3862.55,545.147C3874.04,593.673 3857.45,734.253 3854.75,772.967C3854.5,776.494 3846.05,773.902 3846.3,777.43C3847.82,799.602 3853.28,859.552 3845.23,897.575C3844.91,899.074 3850.92,896.602 3851.15,898.878C3852.05,908.063 3850.18,934.759 3850.66,952.688C3850.71,954.466 3848.93,958.543 3849.3,960.688C3854.12,988.92 3853.82,1019.93 3854.78,1033.53C3854.98,1036.43 3854.36,1042.71 3854.07,1045.6C3853.8,1048.21 3853.3,1052.72 3852.71,1057.95L3852.1,1057.85L3852.32,1061.48C3850.68,1075.93 3848.62,1093.69 3848.62,1093.69L3854.35,1095.24C3855.87,1120.51 3857.95,1155.36 3859.96,1189.41C3858.93,1190.15 3857.91,1190.9 3857.93,1192.14C3857.97,1195.68 3859.85,1203.55 3861.21,1210.68C3861.48,1215.23 3861.74,1219.71 3861.99,1224.12C3859.94,1226.8 3852.78,1225.21 3852.73,1229.21C3852.5,1251.58 3851.79,1302.92 3853.57,1353.61C3854.65,1384.48 3860.38,1362.78 3863.98,1386.48C3864.44,1389.47 3858.25,1389.18 3858.23,1392.22C3858.2,1398.99 3863.41,1420.49 3863.77,1427.1C3863.88,1429.2 3860.4,1431.88 3860.4,1431.88C3860.4,1431.88 3864.75,1465.36 3864.94,1473.33C3865,1475.86 3861.61,1477.13 3861.56,1479.67C3861.31,1492.67 3862.8,1527.48 3863.44,1551.38C3864.15,1577.99 3868.25,1580.73 3865.81,1609.84C3863.28,1640.21 3847.43,1653.74 3848.22,1661.05C3849.01,1668.36 3842.69,1675.65 3841.4,1683.49C3839.35,1695.88 3834.93,1692.16 3831,1720.67C3830.17,1721.13 3829.62,1721.81 3829.61,1722.91C3829.59,1725.12 3829.63,1727.47 3829.73,1729.94C3826.34,1754.63 3823.61,1757.43 3823.61,1757.43L3834.37,1754.68C3839.88,1790.97 3835.81,1795.25 3835.8,1798.28C3835.76,1805.05 3831.14,1799.24 3831.5,1805.84C3831.62,1807.95 3837.29,1835.86 3837.48,1843.82C3837.54,1846.36 3834.15,1847.63 3834.1,1850.16C3833.93,1859 3834.6,1892.54 3835.23,1911.25C3835.52,1920.07 3889.13,1943.65 3890.22,1916.12C3891.14,1893.16 3892.89,1858.11 3893.73,1846.6C3894.02,1842.57 3884.92,1845.26 3884.69,1841.22C3882.13,1796.85 3881.45,1801.04 3894.24,1745.91C3895.02,1742.59 3885.08,1743.66 3884.18,1733.79L3899.24,1729.93C3899.24,1729.93 3894.84,1721.52 3893.83,1710.02C3893.54,1706.7 3892.93,1699.49 3893.17,1696.18C3894.33,1680.66 3894.29,1688.28 3899.73,1656.15C3900.14,1653.7 3898.27,1648.98 3898.34,1646.95C3899.02,1626.46 3897.25,1625.32 3898.31,1614.84C3898.57,1612.25 3905.01,1615.27 3904.68,1613.55C3896.38,1569.8 3902.8,1501.41 3904.64,1476.1C3904.93,1472.08 3895.83,1474.77 3895.6,1470.72C3894.15,1445.53 3889.57,1435.05 3891.45,1375.34C3906.88,1373.22 3915.16,1369.34 3909.01,1363.68C3894.66,1350.46 3916.5,1310.7 3907.54,1295.28C3905.75,1292.19 3899.16,1292.76 3896.89,1290.44C3898.16,1279.52 3899.66,1270 3901.41,1262.47C3901.79,1260.82 3899.54,1260.25 3897.07,1258.9C3896.53,1258.46 3896.16,1257.97 3896.14,1257.37C3895.58,1237.28 3896.42,1174.57 3896.6,1133.62L3911.64,1137.68C3911.64,1137.68 3902.29,1067.85 3897.61,1036.54C3898.87,997.148 3899.8,968.139 3899.8,968.139L3882.62,970.504Z" style="fill-opacity:0.1;"/>
	<path d="M3896.96,1057.37C3872.87,1022.49 3813.99,980.767 3766.25,1002.97" style="fill:none;stroke:black;stroke-width:2.8px;"/>
	<path d="M3892.68,1207.18C3868.58,1172.31 3817.41,1155.51 3760.75,1185.91" style="fill:none;stroke:black;stroke-width:2.8px;"/>
	<path d="M3891.13,1214.94C3867.04,1180.06 3780.65,1197.08 3760.63,1221.57" style="fill:none;stroke:black;stroke-width:2.8px;"/>
	<path d="M3894.76,1254.86C3859.92,1225.97 3783.07,1217.79 3761.34,1223.18" style="fill:none;stroke:black;stroke-width:2.8px;"/>
	<path d="M3890.31,1424.62C3851.83,1355.24 3794.46,1364.68 3763.01,1386.8" style="fill:none;stroke:black;stroke-width:2.8px;"/>
	<path d="M3893.14,1447.66C3843.78,1374.51 3785.33,1399.2 3763.47,1425.9" style="fill:none;stroke:black;stroke-width:2.8px;"/>
	<path d="M3895.68,1471.06C3839.93,1454.44 3804.41,1447.08 3764.84,1474.77" style="fill:none;stroke:black;stroke-width:2.8px;"/>
	<path d="M3899.36,1616.9C3866.77,1545.39 3804.39,1531.53 3764.81,1559.23" style="fill:none;stroke:black;stroke-width:2.8px;"/>
	<path d="M3884.97,1783.12C3846.92,1736.53 3786.34,1738.38 3744.17,1749.24" style="fill:none;stroke:black;stroke-width:2.8px;"/>
	<path d="M3893.91,1697.57C3831.43,1662.36 3787.54,1645.85 3750.16,1661.54" style="fill:none;stroke:black;stroke-width:2.8px;"/>
	<path d="M3891.36,1707.14C3842.79,1682.24 3789.11,1675.64 3742.35,1693.54" style="fill:none;stroke:black;stroke-width:2.8px;"/>
	<path d="M3884.77,1841.55C3829.02,1824.93 3776.95,1817.57 3737.38,1845.27" style="fill:none;stroke:black;stroke-width:2.8px;"/>
	<path d="M3768.21,365.973C3790.88,336.125 3831.24,300.971 3875.48,321.641" style="fill:none;stroke:black;stroke-width:2.8px;"/>
	<path d="M3771.08,497.048C3793.75,467.2 3826.76,453.637 3879.23,481.709" style="fill:none;stroke:black;stroke-width:2.8px;"/>
	<path d="M3772.46,503.869C3795.13,474.02 3860.64,490.946 3879.08,512.877" style="fill:none;stroke:black;stroke-width:2.8px;"/>
	<path d="M3768.79,538.674C3801.41,514.34 3858.23,508.98 3878.4,514.27" style="fill:none;stroke:black;stroke-width:2.8px;"/>
	<path d="M3760.01,732.801C3796.32,673.172 3849.61,682.945 3878.69,703.113" style="fill:none;stroke:black;stroke-width:2.8px;"/>
	<path d="M3757.21,752.869C3803.66,690.227 3857.84,713.358 3877.97,737.276" style="fill:none;stroke:black;stroke-width:2.8px;"/>
	<path d="M3754.67,773.258C3806.65,760.204 3839.74,754.707 3876.34,779.963" style="fill:none;stroke:black;stroke-width:2.8px;"/>
	<path d="M3750.16,900.646C3781.01,839.002 3839.13,828.535 3875.74,853.791" style="fill:none;stroke:black;stroke-width:2.8px;"/>
	<path d="M3749.21,959.705C3787.67,902.409 3839.27,905.988 3874.51,932.339" style="fill:none;stroke:black;stroke-width:2.8px;"/>
	<path d="M3754.08,1034.72C3812.46,1005.59 3853.41,992.319 3888.05,1007.03" style="fill:none;stroke:black;stroke-width:2.8px;"/>
	<path d="M3756.38,1043.15C3801.75,1022.68 3851.73,1018.32 3895.08,1035.21" style="fill:none;stroke:black;stroke-width:2.8px;"/>
	<path d="M3766.17,1275.27C3824.55,1246.15 3858.95,1246.78 3893.6,1261.49" style="fill:none;stroke:black;stroke-width:2.8px;"/>
	<path d="M3768.47,1283.71C3813.83,1263.23 3857.27,1272.78 3900.62,1289.66" style="fill:none;stroke:black;stroke-width:2.8px;"/>
	<path d="M3757.7,1134.1C3803.07,1113.62 3855.58,1116.3 3898.94,1133.18" style="fill:none;stroke:black;stroke-width:2.8px;"/>
</g>
<g xmlns="http://www.w3.org/2000/svg">
	<path d="M6144.89,473.068C6144.89,473.068 6136.68,490.072 6131.6,522.961C6126.51,555.85 6124.12,630.739 6122.15,661.121C6120.19,691.503 6123.61,709.132 6117.15,732.468C6110.68,755.804 6116.43,774.482 6111,797.779C6105.57,821.075 6097.13,831.013 6094.04,876.621C6090.95,922.23 6096.86,941.151 6097.07,971.834C6097.28,1002.52 6087.43,1060.38 6087.27,1095.42C6087.1,1130.46 6085.48,1129.41 6087.06,1157.06C6088.64,1184.7 6104.71,1273.96 6106.15,1309.59C6107.59,1345.21 6101.36,1396.77 6104.41,1438.77C6107.47,1480.76 6108.75,1512.04 6110.44,1544.74C6112.12,1577.44 6109.65,1562.73 6114.32,1595.92C6118.99,1629.12 6116.62,1837.17 6117.78,1869.53C6117.92,1873.44 6142.59,1884.76 6137.26,1889.1C6100.16,1919.37 5963.46,1916.97 5918.45,1896.04C5900.87,1887.86 5891.36,1884.57 5891.36,1884.57C5891.36,1884.57 5916.37,1875.6 5915.28,1853.93C5912.42,1796.9 5907.46,1678.38 5909.17,1642.23C5911.53,1592.34 5908.8,1497.96 5908.1,1465.31C5907.41,1432.65 5905.59,1312.94 5903.63,1285.54C5901.68,1258.13 5909.93,1124.44 5913.58,1079.67C5917.23,1034.89 5909.24,889.104 5907.62,857.963C5905.99,826.821 5898.35,751.25 5891.4,716.963C5884.45,682.676 5863.65,624.813 5858.82,601.185C5853.99,577.557 5838.03,522.258 5837,494.91C5835.98,467.562 5815.27,314.13 5815.27,314.13L5881.29,335.216C5881.29,335.216 5895.66,463.368 5900.68,499.056C5905.71,534.744 5914.53,557.756 5919.56,585.841C5924.6,613.926 5945.95,755.415 5945.95,755.415C5945.95,755.415 5991,626.037 5994.47,607.851C5997.93,589.666 6014.86,511.612 6015.98,478.807C6017.09,446.001 6144.89,473.068 6144.89,473.068Z" style="fill:rgb(191,156,116);stroke:black;stroke-width:2.8px;"/>
	<path d="M6144.89,473.068C6144.89,473.068 6136.68,490.072 6131.6,522.961C6126.51,555.85 6124.12,630.739 6122.15,661.121C6120.19,691.503 6123.61,709.132 6117.15,732.468C6110.68,755.804 6116.43,774.482 6111,797.779C6105.57,821.075 6097.13,831.013 6094.04,876.621C6090.95,922.23 6096.86,941.151 6097.07,971.834C6097.28,1002.52 6087.43,1060.38 6087.27,1095.42C6087.1,1130.46 6085.48,1129.41 6087.06,1157.06C6088.64,1184.7 6104.71,1273.96 6106.15,1309.59C6107.59,1345.21 6101.36,1396.77 6104.41,1438.77C6107.47,1480.76 6108.75,1512.04 6110.44,1544.74C6112.12,1577.44 6109.65,1562.73 6114.32,1595.92C6118.99,1629.12 6116.62,1837.17 6117.78,1869.53C6118.94,1901.89 6083.08,1890.96 6083.08,1890.96C6083.08,1890.96 6079.84,1664.28 6079.14,1631.62C6078.45,1598.97 6057.52,1452.33 6055.57,1424.93C6053.62,1397.53 6051.11,1210.96 6048.81,1166.03C6045.47,1100.77 6059.34,904.644 6057.72,873.502C6056.1,842.361 6092.72,688.054 6096.18,669.868C6099.65,651.683 6118.68,508.82 6119.79,476.015C6120.91,443.209 6144.89,473.068 6144.89,473.068Z" style="fill-opacity:0.12;"/>
	<path d="M6053.83,470.117C6053.83,470.117 6045.62,487.121 6040.53,520.01C6035.45,552.9 6021.02,628.641 6019.05,659.023C6017.09,689.405 5997.21,714.924 5990.74,738.26C5984.28,761.596 5971.53,786.626 5966.09,809.923C5960.66,833.219 5952.92,891.511 5949.83,937.12C5946.74,982.729 5950.34,1047.06 5950.55,1077.75C5950.76,1108.43 5950.81,1173.07 5950.64,1208.11C5950.48,1243.15 5946.54,1368.51 5947.98,1404.13C5949.42,1439.75 5943.04,1511.99 5946.09,1553.98C5949.15,1595.97 5943.42,1799.37 5954.22,1868.34C5957.21,1887.44 5989.13,1900.42 5981.15,1904.43C5963.73,1913.22 5892,1888.33 5899.25,1883.2C5908.8,1876.45 5915.84,1863.86 5915.84,1863.86C5915.84,1863.86 5906.81,1692.12 5909.17,1642.23C5911.53,1592.34 5908.8,1497.96 5908.1,1465.31C5907.41,1432.65 5905.59,1312.94 5903.63,1285.54C5901.68,1258.13 5909.93,1124.44 5913.58,1079.67C5917.23,1034.89 5909.24,889.104 5907.62,857.963C5905.99,826.821 5898.35,751.25 5891.4,716.963C5884.45,682.676 5863.65,624.813 5858.82,601.185C5853.99,577.557 5838.03,522.258 5837,494.91C5835.98,467.562 5815.27,314.13 5815.27,314.13L5881.29,335.216C5881.29,335.216 5895.66,463.368 5900.68,499.056C5905.71,534.744 5914.53,557.756 5919.56,585.841C5924.6,613.926 5945.95,755.415 5945.95,755.415C5945.95,755.415 5991,626.037 5994.47,607.851C5997.93,589.666 6014.86,511.612 6015.98,478.807C6017.09,446.001 6053.83,470.117 6053.83,470.117Z" style="fill-opacity:0.05;"/>
	<path d="M6092.55,477.869C6092.55,477.869 6083.91,531.372 6082.92,553.556C6081.92,575.739 6078.97,594.441 6081.59,626.926C6084.2,659.411 6088.77,680.269 6089.55,705.611C6090.33,730.952 6080.43,770.799 6080.43,770.799" style="fill:none;stroke:black;stroke-width:2.8px;"/>
	<path d="M6074.11,867.826C6071.33,902.997 6068.8,937.586 6066.91,965.889C6065.03,994.193 6069.1,989.664 6066.12,1020.68" style="fill:none;stroke:black;stroke-width:2.8px;"/>
	<path d="M6050.12,1141.72C6046.07,1196.12 6044.77,1208.34 6042.24,1240.4C6039.71,1272.45 6036.66,1282.24 6038.18,1306.25" style="fill:none;stroke:black;stroke-width:2.8px;"/>
</g>
<g xmlns="http://www.w3.org/2000/svg">
	<path d="M2247.1,516.013C2247.1,516.013 2238.89,532.505 2233.8,564.406C2228.72,596.307 2226.32,668.945 2224.36,698.413C2222.39,727.882 2225.82,744.981 2219.35,767.616C2212.89,790.25 2218.64,808.368 2213.2,830.964C2207.77,853.56 2199.33,863.198 2196.24,907.436C2193.16,951.674 2199.07,970.026 2199.28,999.787C2199.49,1029.55 2189.64,1085.67 2189.47,1119.66C2189.3,1153.65 2187.69,1152.62 2189.26,1179.44C2190.84,1206.26 2206.92,1292.83 2208.36,1327.39C2209.8,1361.94 2203.56,1411.95 2206.62,1452.68C2209.67,1493.41 2210.95,1523.75 2212.64,1555.47C2214.32,1587.19 2211.85,1572.92 2216.52,1605.12C2221.2,1637.32 2218.82,1849.42 2219.98,1880.8C2220.12,1884.59 2261.38,1903.18 2256.05,1907.39C2245.84,1915.47 2202.75,1906.42 2180.78,1915.84C2166.51,1921.96 2154.57,1937.89 2089.68,1928.71C2058.11,1924.24 2038.54,1914.58 2020.66,1906.51C2003.07,1898.58 1993.57,1895.39 1993.57,1895.39C1993.57,1895.39 2018.58,1886.69 2017.49,1865.67C2014.62,1810.35 2009.66,1685.1 2011.37,1650.03C2013.73,1601.64 2011,1510.1 2010.31,1478.43C2009.62,1446.76 2007.79,1330.64 2005.84,1304.06C2003.88,1277.48 2012.13,1147.81 2015.79,1104.38C2019.44,1060.95 2011.44,919.544 2009.82,889.338C2008.2,859.133 2000.56,785.833 1993.61,752.577C1986.65,719.32 1965.86,663.197 1961.03,640.279C1956.19,617.361 1940.23,563.725 1939.21,537.199C1938.18,510.672 1917.47,361.852 1917.47,361.852L1983.5,382.305C1983.5,382.305 1997.87,506.604 2002.89,541.22C2007.91,575.835 2016.74,598.155 2021.77,625.396C2026.8,652.637 2048.16,789.873 2048.16,789.873C2048.16,789.873 2093.2,664.384 2096.67,646.745C2100.14,629.107 2117.07,553.398 2118.18,521.579C2119.3,489.76 2247.1,516.013 2247.1,516.013Z" style="fill:rgb(191,156,116);stroke:black;stroke-width:2.8px;"/>
	<path d="M2247.1,516.013C2247.1,516.013 2238.89,532.505 2233.8,564.406C2228.72,596.307 2226.32,668.945 2224.36,698.413C2222.39,727.882 2225.82,744.981 2219.35,767.616C2212.89,790.25 2218.64,808.368 2213.2,830.964C2207.77,853.56 2199.33,863.198 2196.24,907.436C2193.16,951.674 2199.07,970.026 2199.28,999.787C2199.49,1029.55 2189.64,1085.67 2189.47,1119.66C2189.3,1153.65 2187.69,1152.62 2189.26,1179.44C2190.84,1206.26 2206.92,1292.83 2208.36,1327.39C2209.8,1361.94 2203.56,1411.95 2206.62,1452.68C2209.67,1493.41 2210.95,1523.75 2212.64,1555.47C2214.32,1587.19 2211.85,1572.92 2216.52,1605.12C2221.2,1637.32 2218.82,1849.42 2219.98,1880.8C2221.14,1912.19 2185.28,1901.59 2185.28,1901.59C2185.28,1901.59 2182.04,1671.42 2181.35,1639.75C2180.66,1608.07 2159.73,1465.84 2157.78,1439.26C2155.82,1412.68 2153.31,1231.72 2151.01,1188.15C2147.67,1124.85 2161.54,934.616 2159.92,904.411C2158.3,874.206 2194.92,724.536 2198.39,706.898C2201.85,689.259 2220.88,550.69 2222,518.871C2223.11,487.052 2247.1,516.013 2247.1,516.013Z" style="fill-opacity:0.13;"/>
	<path d="M2156.03,513.151C2156.03,513.151 2147.82,529.643 2142.74,561.544C2137.65,593.445 2123.22,666.91 2121.26,696.378C2119.3,725.847 2099.41,750.599 2092.95,773.234C2086.48,795.868 2073.73,820.146 2068.3,842.743C2062.87,865.339 2055.12,921.879 2052.03,966.116C2048.95,1010.35 2052.55,1072.76 2052.76,1102.52C2052.97,1132.28 2053.01,1194.98 2052.85,1228.96C2052.68,1262.95 2048.75,1384.54 2050.19,1419.09C2051.63,1453.64 2045.24,1523.7 2048.3,1564.43C2051.35,1605.16 2045.63,1812.75 2056.43,1879.65C2059.42,1898.17 2118.05,1922.99 2110.07,1926.89C2092.65,1935.41 1994.21,1899.04 2001.46,1894.06C2011,1887.52 2018.04,1875.3 2018.04,1875.3C2018.04,1875.3 2009.01,1698.43 2011.37,1650.03C2013.73,1601.64 2011,1510.1 2010.31,1478.43C2009.62,1446.76 2007.79,1330.64 2005.84,1304.06C2003.88,1277.48 2012.13,1147.81 2015.79,1104.38C2019.44,1060.95 2011.44,919.544 2009.82,889.338C2008.2,859.133 2000.56,785.833 1993.61,752.577C1986.65,719.32 1965.86,663.197 1961.03,640.279C1956.19,617.361 1940.23,563.725 1939.21,537.199C1938.18,510.672 1917.47,361.852 1917.47,361.852L1983.5,382.305C1983.5,382.305 1997.87,506.604 2002.89,541.22C2007.91,575.835 2016.74,598.155 2021.77,625.396C2026.8,652.637 2048.16,789.873 2048.16,789.873C2048.16,789.873 2093.2,664.384 2096.67,646.745C2100.14,629.107 2117.07,553.398 2118.18,521.579C2119.3,489.76 2156.03,513.151 2156.03,513.151Z" style="fill-opacity:0.04;"/>
	<path d="M2194.76,520.67C2194.76,520.67 2186.12,572.565 2185.12,594.082C2184.12,615.598 2181.18,633.738 2183.79,665.246C2186.41,696.754 2190.97,716.986 2191.75,741.566C2192.53,766.145 2182.63,804.795 2182.63,804.795" style="fill:none;stroke:black;stroke-width:2.8px;"/>
	<path d="M2176.31,898.905C2173.54,933.019 2171.01,966.568 2169.12,994.021C2167.23,1021.47 2171.3,1017.08 2168.32,1047.17" style="fill:none;stroke:black;stroke-width:2.8px;"/>
	<path d="M2152.32,1164.57C2148.28,1217.33 2146.98,1229.19 2144.45,1260.28C2141.92,1291.37 2138.87,1300.87 2140.38,1324.15" style="fill:none;stroke:black;stroke-width:2.8px;"/>
</g>
<g xmlns="http://www.w3.org/2000/svg">
	<path d="M5467.48,1371.71C5465.47,1315.6 5464.92,1208.58 5476.23,1160.54C5477.01,1157.21 5466.97,1158.3 5466.08,1148.42L5481.29,1144.54C5481.29,1144.54 5476.89,1100.87 5475.88,1089.37C5475.59,1086.05 5474.98,1078.84 5475.23,1075.53C5476.41,1060.01 5476.41,1024.53 5481.94,992.383C5482.36,989.941 5480.47,985.223 5480.54,983.19C5481.25,962.696 5479.5,932.102 5480.58,921.624C5480.84,919.027 5487.34,922.042 5487.01,920.318C5478.67,876.575 5485.22,808.171 5487.11,782.856C5487.41,778.828 5478.22,781.531 5477.98,777.488C5475.45,733.121 5474.89,571.992 5487.87,516.842C5488.69,513.395 5477.86,514.689 5477.66,503.592C5477.47,492.494 5486.55,222.474 5486.55,222.474L5346.04,241.808C5346.04,241.808 5351.34,254.146 5351.11,258.02C5350.89,261.529 5344.64,261.535 5344.62,265.057C5344.47,295.428 5347.48,410.961 5347.22,441.233C5347.19,443.715 5343.03,444.211 5343.06,446.693C5343.14,452.723 5348.53,471.234 5347.65,477.416C5347.02,481.854 5337.83,479.269 5337.78,483.781C5337.36,519.779 5335.62,630.799 5345.17,693.408C5345.63,696.4 5339.38,696.122 5339.36,699.157C5339.31,705.928 5344.55,727.421 5344.91,734.031C5345.03,736.141 5341.51,738.818 5341.51,738.818C5341.51,738.818 5345.86,772.303 5346.05,780.269C5346.11,782.802 5342.69,784.08 5342.63,786.612C5342.37,799.623 5343.84,834.43 5344.45,858.339C5345.14,884.945 5349.25,917.135 5346.76,946.25C5344.17,976.625 5328.1,1033.28 5328.89,1040.59C5329.68,1047.9 5323.3,1055.2 5321.99,1063.04C5319.91,1075.44 5315.4,1106.99 5311.41,1135.52C5310.57,1135.98 5310.02,1136.65 5310.01,1137.75C5309.98,1139.96 5310.02,1142.31 5310.11,1144.79C5306.67,1169.49 5303.9,1189.79 5303.9,1189.79L5314.76,1187.02C5317.27,1203.51 5320.52,1221.76 5323.91,1240.58C5327.29,1296.07 5331.68,1368.82 5333.41,1400.74C5333.21,1401.13 5333.09,1401.55 5333.08,1402.02C5333.02,1404.76 5333.04,1411.79 5333.12,1420.74C5330.14,1425.85 5321.81,1425.08 5322.62,1427.61C5338.4,1476.82 5321.92,1617.41 5319.7,1656.2C5319.5,1659.74 5308.89,1656.8 5309.3,1660.36C5311.87,1682.69 5320.46,1743.14 5311.56,1781.03C5311.21,1782.52 5318.63,1780.27 5318.98,1782.56C5320.38,1791.83 5318.84,1818.58 5319.98,1836.61C5320.09,1838.4 5318,1842.42 5318.52,1844.59C5325.38,1873.14 5317.89,1850.7 5318.05,1858.03C5318.26,1867.8 5302.78,1865.53 5304.09,1868.65C5307.35,1876.44 5298.87,1908.95 5311.3,1915.33C5351.24,1935.85 5523.56,1942.06 5497.59,1922.41C5479.3,1908.57 5505.35,1869.48 5493.72,1853.63C5491.02,1849.95 5480.46,1850.97 5479.36,1846.98C5477.83,1841.44 5476.59,1839.15 5473.14,1812.33C5469.83,1786.62 5474.04,1758.62 5474.41,1735.3C5474.75,1714.35 5475.9,1683.89 5475.39,1672.45C5475.29,1670.23 5471.33,1668.9 5471.36,1666.68C5471.45,1659.69 5475.93,1630.57 5475.93,1630.57C5475.93,1630.57 5471.85,1628 5471.95,1626.16C5472.26,1620.38 5477.94,1601.83 5477.79,1595.88C5477.72,1593.22 5470.53,1593.08 5471.01,1590.48C5480.05,1541.34 5477.86,1456.92 5476.59,1417.79C5476.97,1408.8 5477.3,1401.65 5477.56,1398.26C5477.86,1394.23 5468.66,1396.94 5468.43,1392.89C5468.26,1389.91 5468.09,1386.53 5467.92,1382.8C5468.84,1379.17 5469.59,1375.93 5469.58,1374.05C5469.58,1373.05 5468.57,1372.37 5467.48,1371.71Z" style="fill:rgb(191,156,116);stroke:black;stroke-width:2.8px;"/>
	<path d="M5467.48,1371.71C5465.47,1315.6 5464.92,1208.58 5476.23,1160.54C5477.01,1157.21 5466.97,1158.3 5466.08,1148.42L5481.29,1144.54C5481.29,1144.54 5476.89,1100.87 5475.88,1089.37C5475.59,1086.05 5474.98,1078.84 5475.23,1075.53C5476.41,1060.01 5476.41,1024.53 5481.94,992.383C5482.36,989.941 5480.47,985.223 5480.54,983.19C5481.25,962.696 5479.5,932.102 5480.58,921.624C5480.84,919.027 5487.34,922.042 5487.01,920.318C5478.67,876.575 5485.22,808.171 5487.11,782.856C5487.41,778.828 5478.22,781.531 5477.98,777.488C5475.45,733.121 5474.89,571.992 5487.87,516.842C5488.69,513.395 5477.86,514.689 5477.66,503.592C5477.47,492.494 5486.55,222.474 5486.55,222.474L5456.04,241.808C5456.04,241.808 5351.34,254.146 5351.11,258.02C5350.89,261.529 5454.64,261.535 5454.62,265.057C5454.47,295.428 5457.48,410.961 5457.22,441.233C5457.19,443.715 5453.03,444.211 5453.06,446.693C5453.14,452.723 5458.53,471.234 5457.65,477.416C5457.02,481.854 5447.83,479.269 5447.78,483.781C5447.36,519.779 5445.62,630.799 5455.17,693.408C5455.63,696.4 5449.38,696.122 5449.36,699.157C5449.31,705.928 5454.55,727.421 5454.91,734.031C5455.03,736.141 5451.51,738.818 5451.51,738.818C5451.51,738.818 5455.86,772.303 5456.05,780.269C5456.11,782.802 5452.69,784.08 5452.63,786.612C5452.37,799.623 5453.84,834.43 5454.45,858.339C5455.14,884.945 5459.25,917.135 5456.76,946.25C5454.17,976.625 5438.1,1033.28 5438.89,1040.59C5439.68,1047.9 5433.3,1055.2 5431.99,1063.04C5429.91,1075.44 5425.4,1106.99 5421.41,1135.52C5420.57,1135.98 5420.02,1136.65 5420.01,1137.75C5419.98,1139.96 5420.02,1142.31 5420.11,1144.79C5416.67,1169.49 5413.9,1189.79 5413.9,1189.79L5424.76,1187.02C5427.27,1203.51 5430.52,1221.76 5433.91,1240.58C5437.29,1296.07 5441.68,1368.82 5443.41,1400.74C5443.21,1401.13 5443.09,1401.55 5443.08,1402.02C5443.02,1404.76 5443.04,1411.79 5443.12,1420.74C5440.14,1425.85 5431.81,1425.08 5432.62,1427.61C5448.4,1476.82 5431.92,1617.41 5429.7,1656.2C5429.5,1659.74 5418.89,1656.8 5419.3,1660.36C5421.87,1682.69 5430.46,1743.14 5421.56,1781.03C5421.21,1782.52 5428.63,1780.27 5428.98,1782.56C5430.38,1791.83 5428.84,1818.58 5429.98,1836.61C5430.09,1838.4 5428,1842.42 5428.52,1844.59C5435.38,1873.14 5427.89,1850.7 5428.05,1858.03C5428.26,1867.8 5412.78,1865.53 5414.09,1868.65C5417.35,1876.44 5408.87,1908.95 5421.3,1915.33C5461.24,1935.85 5523.56,1942.06 5497.59,1922.41C5479.3,1908.57 5505.35,1869.48 5493.72,1853.63C5491.02,1849.95 5480.46,1850.97 5479.36,1846.98C5477.83,1841.44 5476.59,1839.15 5473.14,1812.33C5469.83,1786.62 5474.04,1758.62 5474.41,1735.3C5474.75,1714.35 5475.9,1683.89 5475.39,1672.45C5475.29,1670.23 5471.33,1668.9 5471.36,1666.68C5471.45,1659.69 5475.93,1630.57 5475.93,1630.57C5475.93,1630.57 5471.85,1628 5471.95,1626.16C5472.26,1620.38 5477.94,1601.83 5477.79,1595.88C5477.72,1593.22 5470.53,1593.08 5471.01,1590.48C5480.05,1541.34 5477.86,1456.92 5476.59,1417.79C5476.97,1408.8 5477.3,1401.65 5477.56,1398.26C5477.86,1394.23 5468.66,1396.94 5468.43,1392.89C5468.26,1389.91 5468.09,1386.53 5467.92,1382.8C5468.84,1379.17 5469.59,1375.93 5469.58,1374.05C5469.58,1373.05 5468.57,1372.37 5467.48,1371.71Z" style="fill-opacity:0.11;"/>
	<path d="M5483.59,311.718C5459.3,276.871 5399.89,235.218 5351.66,257.487" style="fill:none;stroke:black;stroke-width:2.8px;"/>
	<path d="M5479.11,461.559C5454.82,426.713 5403.16,409.985 5345.92,440.465" style="fill:none;stroke:black;stroke-width:2.8px;"/>
	<path d="M5477.54,469.318C5453.25,434.472 5366,451.608 5345.76,476.122" style="fill:none;stroke:black;stroke-width:2.8px;"/>
	<path d="M5481.17,509.244C5446.02,480.397 5368.42,472.311 5346.48,477.735" style="fill:none;stroke:black;stroke-width:2.8px;"/>
	<path d="M5472.69,731.381C5433.9,662.046 5375.97,671.57 5344.19,693.735" style="fill:none;stroke:black;stroke-width:2.8px;"/>
	<path d="M5475.53,754.423C5425.76,681.327 5366.71,706.101 5344.61,732.835" style="fill:none;stroke:black;stroke-width:2.8px;"/>
	<path d="M5478.07,777.825C5421.79,761.278 5385.93,753.961 5345.94,781.713" style="fill:none;stroke:black;stroke-width:2.8px;"/>
	<path d="M5481.64,923.677C5448.8,852.207 5385.82,838.429 5345.83,866.181" style="fill:none;stroke:black;stroke-width:2.8px;"/>
	<path d="M5466.8,1215.26C5428.43,1168.72 5367.25,1170.65 5324.66,1181.57" style="fill:none;stroke:black;stroke-width:2.8px;"/>
	<path d="M5482.05,991.261C5440.91,924.529 5384.86,927.019 5346.34,956.066" style="fill:none;stroke:black;stroke-width:2.8px;"/>
	<path d="M5475.97,1076.91C5412.92,1041.79 5368.61,1025.33 5330.86,1041.08" style="fill:none;stroke:black;stroke-width:2.8px;"/>
	<path d="M5473.39,1086.49C5424.37,1061.66 5370.17,1055.13 5322.94,1073.09" style="fill:none;stroke:black;stroke-width:2.8px;"/>
	<path d="M5471.61,1124.65C5436.46,1095.8 5358.87,1087.72 5336.92,1093.14" style="fill:none;stroke:black;stroke-width:2.8px;"/>
	<path d="M5463.14,1346.79C5424.35,1277.45 5366.41,1286.98 5334.63,1309.14" style="fill:none;stroke:black;stroke-width:2.8px;"/>
	<path d="M5465.97,1369.83C5416.21,1296.73 5357.16,1321.51 5335.06,1348.24" style="fill:none;stroke:black;stroke-width:2.8px;"/>
	<path d="M5468.51,1393.23C5412.23,1376.68 5376.38,1369.37 5336.39,1397.12" style="fill:none;stroke:black;stroke-width:2.8px;"/>
	<path d="M5324.34,1247.82C5351.71,1218.71 5400.97,1184.96 5456.75,1207.44" style="fill:none;stroke:black;stroke-width:2.8px;"/>
	<path d="M5331.83,1379.62C5359.2,1350.51 5399.94,1338.17 5466.2,1368.41" style="fill:none;stroke:black;stroke-width:2.8px;"/>
	<path d="M5333.75,1386.53C5361.12,1357.42 5443.3,1376.97 5466.94,1399.72" style="fill:none;stroke:black;stroke-width:2.8px;"/>
	<path d="M5330.21,1421.35C5370.16,1398.17 5440.84,1394.99 5466.15,1401.09" style="fill:none;stroke:black;stroke-width:2.8px;"/>
	<path d="M5325.07,1616.05C5368.55,1557.55 5435.28,1569.44 5472.15,1590.83" style="fill:none;stroke:black;stroke-width:2.8px;"/>
	<path d="M5322.17,1636.11C5378.21,1574.97 5446.46,1600.31 5472.27,1625.13" style="fill:none;stroke:black;stroke-width:2.8px;"/>
	<path d="M5319.61,1656.49C5384.03,1645.39 5425.12,1641.15 5471.51,1667.95" style="fill:none;stroke:black;stroke-width:2.8px;"/>
	<path d="M5317.79,1784.3C5354.41,1723.57 5426.57,1715.31 5472.96,1742.1" style="fill:none;stroke:black;stroke-width:2.8px;"/>
	<path d="M5319.98,1836.61C5375.93,1817.79 5430.36,1829.07 5484.92,1847.72" style="fill:none;stroke:black;stroke-width:2.8px;"/>
</g>
<g xmlns="http://www.w3.org/2000/svg">
	<path d="M114.133,321.322C114.133,321.322 122.344,341.4 127.429,380.234C132.514,419.069 140.099,600.701 142.063,636.575C144.027,672.449 140.605,693.265 147.07,720.819C153.535,748.373 147.785,770.428 153.218,797.936C158.652,825.444 167.092,837.177 170.177,891.03C173.263,944.883 167.355,967.224 167.145,1003.45C166.935,1039.68 173.54,1096.3 171.965,1128.95C170.39,1161.6 154.312,1266.99 152.873,1309.05C151.433,1351.12 157.668,1412 154.613,1461.58C151.559,1511.17 150.275,1548.1 148.591,1586.71C146.906,1625.32 149.381,1607.95 144.706,1647.15C140.032,1686.35 150.768,1811.81 149.572,1849.59C149.004,1867.53 130.434,1875.05 137.443,1887.38C139.613,1891.2 154.118,1888.7 164.346,1891.29C176.213,1894.3 182.105,1904.55 204.742,1901.74C231.608,1898.4 260.955,1913.85 287.36,1913.77C297.161,1913.75 319.9,1899.7 328.469,1900.01C362.975,1901.25 375.567,1894.67 365.723,1886.45C365.723,1886.45 352.446,1868.09 352.856,1828.13C353.018,1812.33 350.527,1718.53 349.858,1701.83C347.5,1642.91 350.228,1531.48 350.922,1492.92C351.615,1454.37 353.44,1313.01 355.393,1280.65C357.345,1248.3 349.099,1090.44 345.445,1037.58C341.791,984.706 348.884,929.037 350.505,892.267C352.126,855.496 356.188,735.886 363.141,695.401C370.095,654.916 400.563,593.705 405.397,565.805C410.231,537.906 420.998,379.405 422.024,347.113C423.049,314.821 425.786,253.958 425.786,253.958L359.757,278.857C359.757,278.857 363.364,309.869 358.342,352.008C353.319,394.148 349.687,514.525 344.654,547.687C339.622,580.849 312.229,688.773 312.229,688.773C312.229,688.773 273.217,595.149 269.752,573.677C266.287,552.204 244.162,366.834 243.048,328.099C241.934,289.363 114.133,321.322 114.133,321.322Z" style="fill:rgb(191,156,116);stroke:black;stroke-width:2.8px;"/>
	<path d="M114.133,321.322C114.133,321.322 122.344,341.4 127.429,380.234C132.514,419.069 140.099,600.701 142.063,636.575C144.027,672.449 140.605,693.265 147.07,720.819C153.535,748.373 147.785,770.428 153.218,797.936C158.652,825.444 167.092,837.177 170.177,891.03C173.263,944.883 167.355,967.224 167.145,1003.45C166.935,1039.68 173.54,1096.3 171.965,1128.95C170.39,1161.6 154.312,1266.99 152.873,1309.05C151.433,1351.12 157.668,1412 154.613,1461.58C151.559,1511.17 150.275,1548.1 148.591,1586.71C146.906,1625.32 149.381,1607.95 144.706,1647.15C140.032,1686.35 150.768,1811.81 149.572,1849.59C149.004,1867.53 130.434,1875.05 137.443,1887.38C139.613,1891.2 154.118,1888.7 164.346,1891.29C176.213,1894.3 182.105,1904.55 204.742,1901.74C231.608,1898.4 260.955,1913.85 287.36,1913.77C297.161,1913.75 319.9,1899.7 328.469,1900.01C362.975,1901.25 375.567,1894.67 365.723,1886.45C365.723,1886.45 352.446,1868.09 352.856,1828.13C353.018,1812.33 350.527,1718.53 349.858,1701.83C347.5,1642.91 350.228,1531.48 350.922,1492.92C351.615,1454.37 353.44,1313.01 355.393,1280.65C357.345,1248.3 349.099,1090.44 345.445,1037.58C341.791,984.706 348.884,929.037 350.505,892.267C352.126,855.496 356.188,735.886 363.141,695.401C370.095,654.916 400.563,593.705 405.397,565.805C410.231,537.906 420.998,379.405 422.024,347.113C423.049,314.821 425.786,253.958 425.786,253.958L359.757,278.857C359.757,278.857 363.364,309.869 358.342,352.008C353.319,394.148 349.687,514.525 344.654,547.687C339.622,580.849 312.229,688.773 312.229,688.773C312.229,688.773 273.217,595.149 269.752,573.677C266.287,552.204 244.162,366.834 243.048,328.099C241.934,289.363 114.133,321.322 114.133,321.322Z" style="fill-opacity:0.14;stroke:black;stroke-width:2.8px;"/>
	<path d="M114.133,321.322C114.133,321.322 122.344,341.4 127.429,380.234C132.514,419.069 134.907,507.494 136.871,543.368C138.835,579.242 135.413,600.058 141.878,627.612C148.343,655.166 142.592,677.222 148.026,704.729C153.46,732.237 149.787,732.605 152.873,786.458C155.959,840.312 174.464,868.044 174.254,904.274C174.156,921.332 167.859,964.274 167.549,1009.01C167.2,1059.29 172.799,1111.67 171.965,1128.95C170.39,1161.6 154.312,1266.99 152.873,1309.05C151.433,1351.12 157.668,1412 154.613,1461.58C151.559,1511.17 150.275,1548.1 148.591,1586.71C146.906,1625.32 149.381,1607.95 144.706,1647.15C140.032,1686.35 150.731,1811.38 149.572,1849.59C149.204,1861.7 131.662,1880.53 138.981,1887.66C143.85,1892.4 151.255,1887.69 159.939,1889.37C168.617,1891.05 178.376,1896.06 186.241,1897.78C195.987,1899.9 214.802,1897.67 214.802,1897.67C214.802,1897.67 190.256,1856.55 185.551,1832.86C175.083,1780.17 179.403,1715.9 179.881,1689.3C180.575,1650.75 201.502,1477.6 203.454,1445.25C205.407,1412.89 207.918,1192.6 210.217,1139.55C213.556,1062.49 199.687,830.911 201.308,794.141C202.929,757.37 166.31,575.169 162.845,553.697C159.38,532.225 140.346,363.537 139.232,324.802C138.119,286.066 114.133,321.322 114.133,321.322Z" style="fill-opacity:0.06;"/>
	<path d="M205.197,317.838C205.197,317.838 213.408,337.915 218.493,376.75C223.579,415.585 243.199,598.224 245.163,634.098C247.127,669.972 267.01,700.104 273.475,727.658C279.94,755.212 292.69,784.768 298.124,812.275C303.557,839.783 311.302,908.612 314.388,962.465C317.474,1016.32 308.682,999.076 308.473,1035.31C308.263,1071.54 308.219,1147.86 308.385,1189.24C308.551,1230.61 312.483,1378.62 311.043,1420.69C309.603,1462.75 315.989,1548.04 312.935,1597.62C309.88,1647.21 308.328,1827.98 307.169,1866.19C306.952,1873.35 293.736,1882.86 297.139,1886.97C300.769,1891.35 280.349,1904.78 287.544,1906.24C296.04,1907.97 308.386,1902.53 322.278,1900.04C344.43,1896.08 368.096,1893.53 368.096,1893.53C368.096,1893.53 350.452,1860.49 350.677,1838.9C351.08,1800.27 351.371,1739.62 349.858,1701.83C347.5,1642.91 350.228,1531.48 350.922,1492.92C351.615,1454.37 353.44,1313.01 355.393,1280.65C357.345,1248.3 349.099,1090.44 345.445,1037.58C341.791,984.706 348.884,929.037 350.505,892.267C352.126,855.496 356.188,735.886 363.141,695.401C370.095,654.916 400.563,593.705 405.397,565.805C410.231,537.906 420.998,379.405 422.024,347.113C423.049,314.821 425.786,253.958 425.786,253.958L359.757,278.857C359.757,278.857 363.364,309.869 358.342,352.008C353.319,394.148 349.687,514.525 344.654,547.687C339.622,580.849 312.229,688.773 312.229,688.773C312.229,688.773 273.217,595.149 269.752,573.677C266.287,552.204 244.162,366.834 243.048,328.099C241.934,289.363 205.197,317.838 205.197,317.838Z" style="fill-opacity:0.14;"/>
	<path d="M220.233,537.129C220.233,537.129 227.748,600.577 233.293,625.666C238.838,650.754 241.533,672.898 253.484,707.717C265.435,742.536 275.823,763.533 283.96,791.29C292.098,819.047 294.435,867.933 294.435,867.933" style="fill:none;stroke:black;stroke-width:2.8px;"/>
	<path d="M297.142,1007.25C299.796,1048.8 302.209,1089.65 304,1123.08C305.792,1156.51 301.739,1151.14 304.613,1187.78" style="fill:none;stroke:black;stroke-width:2.8px;"/>
	<path d="M310.047,1308.1C306.498,1372.38 306.082,1386.91 304.135,1424.83C302.188,1462.74 303.839,1474.83 299.016,1502.47" style="fill:none;stroke:black;stroke-width:2.8px;"/>
</g>
<g xmlns="http://www.w3.org/2000/svg">
	<path d="M770.391,1371.71C768.384,1315.6 767.828,1208.58 779.137,1160.54C779.919,1157.21 769.881,1158.3 768.988,1148.42L784.198,1144.54C784.198,1144.54 779.801,1100.87 778.792,1089.37C778.501,1086.05 777.892,1078.84 778.143,1075.53C779.323,1060.01 779.32,1024.53 784.849,992.383C785.269,989.941 783.383,985.223 783.454,983.19C784.166,962.696 782.41,932.102 783.489,921.624C783.756,919.027 790.254,922.042 789.925,920.318C781.582,876.575 788.133,808.171 790.022,782.856C790.322,778.828 781.128,781.531 780.897,777.488C778.362,733.121 777.806,571.992 790.787,516.842C791.598,513.395 780.777,514.689 780.577,503.592C780.377,492.494 789.466,222.474 789.466,222.474L648.951,241.808C648.951,241.808 654.255,254.146 654.019,258.02C653.806,261.529 647.554,261.535 647.537,265.057C647.385,295.428 650.389,410.961 650.129,441.233C650.107,443.715 645.944,444.211 645.974,446.693C646.047,452.723 651.447,471.234 650.566,477.416C649.934,481.854 640.743,479.269 640.691,483.781C640.277,519.779 638.529,630.799 648.084,693.408C648.541,696.4 642.288,696.122 642.269,699.157C642.226,705.928 647.466,727.421 647.825,734.031C647.94,736.141 644.421,738.818 644.421,738.818C644.421,738.818 648.776,772.303 648.963,780.269C649.023,782.802 645.597,784.08 645.545,786.612C645.279,799.623 646.748,834.43 647.366,858.339C648.054,884.945 652.158,917.135 649.672,946.25C647.079,976.625 631.015,1033.28 631.806,1040.59C632.596,1047.9 626.211,1055.2 624.899,1063.04C622.821,1075.44 618.317,1106.99 614.322,1135.52C613.483,1135.98 612.93,1136.65 612.918,1137.75C612.892,1139.96 612.93,1142.31 613.027,1144.79C609.583,1169.49 606.808,1189.79 606.808,1189.79L617.676,1187.02C620.184,1203.51 623.436,1221.76 626.821,1240.58C630.203,1296.07 634.592,1368.82 636.318,1400.74C636.123,1401.13 636,1401.55 635.991,1402.02C635.935,1404.76 635.955,1411.79 636.029,1420.74C633.055,1425.85 624.721,1425.08 625.535,1427.61C641.313,1476.82 625.834,1536.41 623.614,1575.2C623.411,1578.74 612.804,1575.8 613.212,1579.36C615.778,1601.69 624.375,1662.14 615.472,1700.03C615.121,1701.52 622.541,1699.27 622.888,1701.56C624.291,1710.83 622.752,1737.58 623.89,1755.61C624.003,1757.4 621.91,1761.42 622.431,1763.59C629.287,1792.14 622.025,1831.65 622.183,1838.97C622.394,1848.74 606.917,1846.47 608.227,1849.6C611.491,1857.39 603.007,1889.89 615.437,1896.28C655.379,1916.8 827.694,1923 801.723,1903.36C783.437,1889.52 809.484,1850.42 797.854,1834.58C795.159,1830.9 784.599,1831.91 783.499,1827.93C781.969,1822.38 788.836,1806.61 788.67,1801.3C788.602,1799.11 782.648,1798.24 782.507,1796.05C781.204,1775.84 780.506,1758.15 777.051,1731.33C773.74,1705.62 777.953,1677.62 778.327,1654.3C778.664,1633.35 779.808,1602.89 779.299,1591.45C779.2,1589.23 775.243,1587.9 775.272,1585.68C775.363,1578.69 779.844,1549.57 779.844,1549.57C779.844,1549.57 775.759,1547 775.858,1545.16C776.167,1539.38 781.853,1520.83 781.698,1514.88C781.628,1512.22 774.448,1512.08 774.926,1509.48C783.965,1460.34 780.777,1456.92 779.506,1417.79C779.878,1408.8 780.214,1401.65 780.467,1398.26C780.767,1394.23 771.574,1396.94 771.343,1392.89C771.172,1389.91 771.001,1386.53 770.835,1382.8C771.75,1379.17 772.499,1375.93 772.495,1374.05C772.493,1373.05 771.488,1372.37 770.391,1371.71Z" style="fill:rgb(191,156,116);stroke:black;stroke-width:2.8px;"/>
	<path d="M770.391,1371.71C768.384,1315.6 767.828,1208.58 779.137,1160.54C779.919,1157.21 769.881,1158.3 768.988,1148.42L784.198,1144.54C784.198,1144.54 779.801,1100.87 778.792,1089.37C778.501,1086.05 777.892,1078.84 778.143,1075.53C779.323,1060.01 779.32,1024.53 784.849,992.383C785.269,989.941 783.383,985.223 783.454,983.19C784.166,962.696 782.41,932.102 783.489,921.624C783.756,919.027 790.254,922.042 789.925,920.318C781.582,876.575 788.133,808.171 790.022,782.856C790.322,778.828 781.128,781.531 780.897,777.488C778.362,733.121 777.806,571.992 790.787,516.842C791.598,513.395 780.777,514.689 780.577,503.592C780.377,492.494 789.466,222.474 789.466,222.474L762.31,252.247C762.31,252.247 767.614,264.585 767.378,268.46C767.165,271.968 760.913,271.975 760.896,275.496C760.744,305.867 763.749,421.4 763.488,451.672C763.467,454.154 759.303,454.65 759.333,457.132C759.406,463.162 764.806,481.673 763.926,487.855C763.293,492.294 754.102,489.708 754.05,494.22C753.637,530.219 751.889,641.238 761.443,703.847C761.9,706.839 755.648,706.561 755.628,709.596C755.585,716.367 760.826,737.86 761.184,744.47C761.299,746.58 757.781,749.257 757.781,749.257C757.781,749.257 762.135,782.742 762.323,790.708C762.382,793.242 758.956,794.519 758.905,797.051C758.639,810.062 760.108,844.869 760.726,868.778C761.413,895.384 765.517,927.574 763.031,956.689C760.438,987.064 744.375,1043.72 745.165,1051.03C745.955,1058.34 739.571,1065.64 738.258,1073.48C736.18,1085.88 731.676,1117.43 727.681,1145.96C726.843,1146.42 726.289,1147.09 726.277,1148.19C726.251,1150.4 726.29,1152.75 726.386,1155.23C722.942,1179.92 720.168,1200.23 720.168,1200.23L731.035,1197.45C733.543,1213.94 736.795,1232.2 740.18,1251.02C743.562,1306.51 747.951,1379.26 749.677,1411.17C749.482,1411.57 749.359,1411.99 749.35,1412.46C749.294,1415.19 749.315,1422.23 749.388,1431.18C746.414,1436.29 738.081,1435.52 738.894,1438.05C754.673,1487.25 739.193,1546.85 736.973,1585.64C736.771,1589.17 726.163,1586.24 726.572,1589.8C729.138,1612.13 737.734,1672.58 728.831,1710.47C728.48,1711.96 735.9,1709.71 736.248,1712C737.651,1721.27 736.111,1748.02 737.249,1766.05C737.362,1767.84 735.269,1771.86 735.79,1774.03C742.646,1802.58 735.384,1842.09 735.542,1849.41C735.753,1859.18 720.277,1856.91 721.587,1860.04C724.851,1867.83 716.367,1900.33 728.796,1906.72C768.738,1927.24 827.694,1923 801.723,1903.36C783.437,1889.52 809.484,1850.42 797.854,1834.58C795.159,1830.9 784.599,1831.91 783.499,1827.93C781.969,1822.38 788.836,1806.61 788.67,1801.3C788.602,1799.11 782.648,1798.24 782.507,1796.05C781.204,1775.84 780.506,1758.15 777.051,1731.33C773.74,1705.62 777.953,1677.62 778.327,1654.3C778.664,1633.35 779.808,1602.89 779.299,1591.45C779.2,1589.23 775.243,1587.9 775.272,1585.68C775.363,1578.69 779.844,1549.57 779.844,1549.57C779.844,1549.57 775.759,1547 775.858,1545.16C776.167,1539.38 781.853,1520.83 781.698,1514.88C781.628,1512.22 774.448,1512.08 774.926,1509.48C783.965,1460.34 780.777,1456.92 779.506,1417.79C779.878,1408.8 780.214,1401.65 780.467,1398.26C780.767,1394.23 771.574,1396.94 771.343,1392.89C771.172,1389.91 771.001,1386.53 770.835,1382.8C771.75,1379.17 772.499,1375.93 772.495,1374.05C772.493,1373.05 771.488,1372.37 770.391,1371.71Z" style="fill-opacity:0.14;"/>
	<path d="M786.506,311.718C762.215,276.871 702.804,235.218 654.569,257.487" style="fill:none;stroke:black;stroke-width:2.8px;"/>
	<path d="M782.023,461.559C757.732,426.713 706.074,409.985 648.829,440.465" style="fill:none;stroke:black;stroke-width:2.8px;"/>
	<path d="M780.454,469.318C756.163,434.472 668.916,451.608 648.673,476.122" style="fill:none;stroke:black;stroke-width:2.8px;"/>
	<path d="M784.078,509.244C748.928,480.397 671.336,472.311 649.388,477.735" style="fill:none;stroke:black;stroke-width:2.8px;"/>
	<path d="M775.604,731.381C736.817,662.046 678.88,671.57 647.101,693.735" style="fill:none;stroke:black;stroke-width:2.8px;"/>
	<path d="M778.437,754.423C728.675,681.327 669.626,706.101 647.527,732.835" style="fill:none;stroke:black;stroke-width:2.8px;"/>
	<path d="M780.979,777.825C724.702,761.278 688.846,753.961 648.853,781.713" style="fill:none;stroke:black;stroke-width:2.8px;"/>
	<path d="M784.549,923.677C751.709,852.207 688.733,838.429 648.74,866.181" style="fill:none;stroke:black;stroke-width:2.8px;"/>
	<path d="M769.714,1215.26C731.339,1168.72 670.163,1170.65 627.573,1181.57" style="fill:none;stroke:black;stroke-width:2.8px;"/>
	<path d="M784.96,991.261C743.818,924.529 687.772,927.019 649.252,956.066" style="fill:none;stroke:black;stroke-width:2.8px;"/>
	<path d="M778.884,1076.91C715.828,1041.79 671.526,1025.33 633.772,1041.08" style="fill:none;stroke:black;stroke-width:2.8px;"/>
	<path d="M776.301,1086.49C727.278,1061.66 673.081,1055.13 625.849,1073.09" style="fill:none;stroke:black;stroke-width:2.8px;"/>
	<path d="M774.523,1124.65C739.373,1095.8 661.781,1087.72 639.833,1093.14" style="fill:none;stroke:black;stroke-width:2.8px;"/>
	<path d="M766.049,1346.79C727.262,1277.45 669.325,1286.98 637.546,1309.14" style="fill:none;stroke:black;stroke-width:2.8px;"/>
	<path d="M768.883,1369.83C719.121,1296.73 660.071,1321.51 637.972,1348.24" style="fill:none;stroke:black;stroke-width:2.8px;"/>
	<path d="M771.424,1393.23C715.147,1376.68 679.291,1369.37 639.298,1397.12" style="fill:none;stroke:black;stroke-width:2.8px;"/>
	<path d="M627.249,1247.82C654.619,1218.71 703.883,1184.96 759.662,1207.44" style="fill:none;stroke:black;stroke-width:2.8px;"/>
	<path d="M634.743,1379.62C662.113,1350.51 702.857,1338.17 769.117,1368.41" style="fill:none;stroke:black;stroke-width:2.8px;"/>
	<path d="M636.667,1386.53C664.037,1357.42 746.208,1376.97 769.853,1399.72" style="fill:none;stroke:black;stroke-width:2.8px;"/>
	<path d="M633.126,1421.35C673.069,1398.17 743.751,1394.99 769.058,1401.09" style="fill:none;stroke:black;stroke-width:2.8px;"/>
	<path d="M628.977,1535.05C672.466,1476.55 739.194,1488.44 776.06,1509.83" style="fill:none;stroke:black;stroke-width:2.8px;"/>
	<path d="M626.08,1555.11C682.123,1493.97 750.369,1519.31 776.182,1544.13" style="fill:none;stroke:black;stroke-width:2.8px;"/>
	<path d="M623.526,1575.49C687.939,1564.39 729.029,1560.15 775.422,1586.95" style="fill:none;stroke:black;stroke-width:2.8px;"/>
	<path d="M621.702,1703.3C658.324,1642.57 730.479,1634.31 776.871,1661.1" style="fill:none;stroke:black;stroke-width:2.8px;"/>
	<path d="M622.285,1762.6C668.522,1706.53 732.968,1712.13 777.687,1739.97" style="fill:none;stroke:black;stroke-width:2.8px;"/>
	<path d="M620.997,1808.99C692.91,1781.99 735.822,1783.96 779.454,1800.08" style="fill:none;stroke:black;stroke-width:2.8px;"/>
	<path d="M624.115,1817.56C680.062,1798.74 734.5,1810.02 789.059,1828.67" style="fill:none;stroke:black;stroke-width:2.8px;"/>
</g>
<g xmlns="http://www.w3.org/2000/svg">
	<path d="M3218.34,452.944C3216.97,452.343 3215.53,451.796 3213.99,451.297C3197.52,446.013 3177.54,447.057 3177.54,447.057C3177.54,447.057 3283.35,687.955 3291.5,762.45C3299.64,836.945 3303.06,866.146 3297.68,893.497C3291.44,925.298 3288.33,995.261 3266.35,1048.84C3258.61,1067.68 3249.86,1222.47 3233.49,1360.17C3226.97,1415.01 3202.33,1578.59 3200.6,1636.85C3198.97,1691.37 3177.72,1777.24 3151.43,1812.81C3137.78,1831.27 3114.37,1838.22 3109.22,1846.41C3099.01,1862.62 3083.39,1853.81 3075.26,1874.73C3069.76,1888.89 3061.11,1873.69 3051,1884.36C3037.94,1898.15 3034.55,1873.05 3020.83,1900.77C3019.09,1904.28 2987.49,1924.81 2990.79,1932.31C2993.62,1938.77 3030.39,1933.02 3040.3,1928.22C3047.99,1924.5 3060.57,1917.21 3073.05,1922.51C3080.43,1925.65 3087.41,1931.91 3098.08,1924.21C3110.1,1915.54 3135.33,1925.88 3137.29,1925.78C3145.14,1925.34 3152.77,1913.82 3159.84,1919.99C3167.43,1926.61 3176.44,1931.7 3181.42,1929.03C3185.89,1926.63 3186.51,1934.24 3190.15,1930.22C3197.2,1922.42 3208.49,1910.36 3218.92,1916.49C3232.17,1924.26 3233.81,1915.85 3241.02,1917.33C3256.24,1920.46 3270.04,1928.12 3275.67,1928.96C3284.12,1930.23 3297.8,1918.23 3305.08,1919.33C3313.16,1920.56 3318.82,1930.1 3324.73,1931.01C3334.94,1932.58 3346.49,1945.85 3346.49,1945.85C3346.49,1945.85 3356.36,1952.54 3358.09,1939.48C3359.85,1926.41 3356.37,1917.68 3361.96,1917.92C3367.55,1918.16 3384.43,1909.88 3393.92,1913.13C3403.4,1916.38 3406.7,1912.32 3413.29,1910C3413.92,1909.78 3417.46,1909.83 3426.22,1914.78C3434.99,1919.73 3443.9,1913.71 3450.55,1912.62C3457.2,1911.54 3467,1895.47 3484.3,1910.22C3501.61,1924.98 3500.78,1913.97 3504.61,1916.05C3510.28,1919.13 3506.53,1925.16 3520.53,1927.3C3534.53,1929.44 3536.13,1915.37 3545.47,1919.5C3554.84,1923.63 3551.87,1940.37 3560.83,1934.37C3569.78,1928.36 3562.98,1926.19 3568.02,1925.64C3576.72,1924.71 3578.96,1930.57 3584.06,1926.82C3590.14,1922.35 3595.82,1913.98 3589.66,1906.3C3577.44,1891.03 3569.19,1877.09 3557.22,1877.34C3551.04,1877.46 3542.1,1880.65 3538.47,1876.88C3528.28,1866.26 3533.12,1870.12 3523.99,1868.64C3513.58,1866.96 3511.78,1866.65 3501.39,1859.22C3491.02,1851.79 3498.46,1837.07 3481.33,1829.47C3468.55,1823.79 3459.19,1819.72 3450.04,1803.12C3440.91,1786.51 3418.61,1757.86 3414.34,1750.34C3410.08,1742.81 3376.78,1507.96 3376.72,1452.96C3376.66,1397.96 3410.58,1186.43 3415.36,1142.5C3420.14,1098.57 3413.64,1074.7 3421.83,1026.14C3430.04,977.568 3467.63,802.889 3473.51,780.824C3479.39,758.756 3520.28,616.106 3615.74,535.783C3619.53,532.591 3622.93,529.514 3626,526.551C3629.29,521.796 3634.51,517.446 3630.53,509.162C3629.52,507.078 3615.48,524.536 3604.09,513.033C3591.36,500.167 3595.91,478.167 3590.7,477.493C3587.8,477.118 3593.51,516.308 3568.21,506.29C3564.67,504.893 3562.17,502.726 3560.44,500.089C3538.66,522.937 3502.33,591.512 3486.26,598.616C3468.89,606.308 3496.87,485.978 3505.45,457.785C3510.68,440.672 3522.94,405.265 3529.59,376.367C3528.7,374.101 3527.57,372.493 3526.08,371.853C3521.6,369.933 3512.68,370.967 3512.63,380.648C3512.61,390.322 3510.33,414.147 3500.96,411.115C3491.6,408.083 3496.7,390.1 3487.49,391.502C3477.23,393.059 3479.02,426.734 3466.1,422.38C3459.56,420.181 3457.08,412.009 3455.41,403.896C3451.87,443.513 3447.22,488.609 3443.37,501.81C3436.06,526.809 3428.15,537.196 3422.93,549.56C3417.72,561.923 3406.08,599.186 3405.24,600.662C3404.64,601.726 3401.47,511.245 3399.28,450.876C3397.91,452.096 3396.03,452.796 3393.34,452.485C3382.19,451.217 3387.68,431.582 3384.52,431.06C3382.92,430.803 3381.7,444.241 3372.16,443.133C3362.62,442.025 3362.84,412.778 3358.55,412.347C3355.15,412 3353.99,435.457 3345.87,437.015C3337.87,438.55 3332.37,418.419 3330,420.169C3333.46,481.346 3339.97,608.138 3336.06,632.143C3330.91,663.723 3265.64,452.256 3255.13,423.995C3249.25,426.729 3249.6,448.466 3244.48,463.554C3243.65,466.019 3242.68,467.564 3241.62,468.39C3240.52,470.695 3239.45,471.628 3238.44,470.437C3237.8,469.706 3237.21,468.994 3236.6,468.311C3231.4,465.397 3225.22,455.953 3219.94,453.89C3219.42,453.686 3218.88,453.367 3218.34,452.944Z" style="fill:rgb(191,156,116);stroke:black;stroke-width:2.17px;"/>
	<path d="M3372.16,443.133C3362.62,442.025 3399.88,679.173 3403.37,707.132C3415.5,804.16 3394.8,925.082 3376.91,1059.51C3363.78,1158.12 3355.91,1276.74 3344.81,1334.36C3299.91,1567.45 3361.15,1784.44 3359.42,1842.7C3357.8,1897.22 3152.77,1913.82 3159.84,1919.99C3167.43,1926.61 3176.44,1931.7 3181.42,1929.03C3185.89,1926.63 3186.51,1934.24 3190.15,1930.22C3197.2,1922.42 3208.49,1910.36 3218.92,1916.49C3232.17,1924.26 3233.81,1915.85 3241.02,1917.33C3256.24,1920.46 3270.04,1928.12 3275.67,1928.96C3284.12,1930.23 3297.8,1918.23 3305.08,1919.33C3313.16,1920.56 3318.82,1930.1 3324.73,1931.01C3334.94,1932.58 3346.49,1945.85 3346.49,1945.85C3346.49,1945.85 3356.36,1952.54 3358.09,1939.48C3359.85,1926.41 3356.37,1917.68 3361.96,1917.92C3367.55,1918.16 3384.43,1909.88 3393.92,1913.13C3403.4,1916.38 3406.7,1912.32 3413.29,1910C3413.92,1909.78 3417.46,1909.83 3426.22,1914.78C3434.99,1919.73 3443.9,1913.71 3450.55,1912.62C3457.2,1911.54 3467,1895.47 3484.3,1910.22C3501.61,1924.98 3500.78,1913.97 3504.61,1916.05C3510.28,1919.13 3506.53,1925.16 3520.53,1927.3C3534.53,1929.44 3536.13,1915.37 3545.47,1919.5C3554.84,1923.63 3551.87,1940.37 3560.83,1934.37C3569.78,1928.36 3562.98,1926.19 3568.02,1925.64C3576.72,1924.71 3578.96,1930.57 3584.06,1926.82C3590.14,1922.35 3595.82,1913.98 3589.66,1906.3C3577.44,1891.03 3569.19,1877.09 3557.22,1877.34C3551.04,1877.46 3542.1,1880.65 3538.47,1876.88C3528.28,1866.26 3533.12,1870.12 3523.99,1868.64C3513.58,1866.96 3511.78,1866.65 3501.39,1859.22C3491.02,1851.79 3498.46,1837.07 3481.33,1829.47C3468.55,1823.79 3459.19,1819.72 3450.04,1803.12C3440.91,1786.51 3418.61,1757.86 3414.34,1750.34C3410.08,1742.81 3376.78,1507.96 3376.72,1452.96C3376.66,1397.96 3410.58,1186.43 3415.36,1142.5C3420.14,1098.57 3413.64,1074.7 3421.83,1026.14C3430.04,977.568 3467.63,802.889 3473.51,780.824C3479.39,758.756 3520.28,616.106 3615.74,535.783C3619.53,532.591 3622.93,529.514 3626,526.551C3629.29,521.796 3634.51,517.446 3630.53,509.162C3629.52,507.078 3615.48,524.536 3604.09,513.033C3591.36,500.167 3595.91,478.167 3590.7,477.493C3587.8,477.118 3527.98,599.769 3526.25,597.132C3504.47,619.98 3504.29,594.698 3488.22,601.802C3470.85,609.494 3496.87,485.978 3505.45,457.785C3510.68,440.672 3522.94,405.265 3529.59,376.367C3528.7,374.101 3527.57,372.493 3526.08,371.853C3521.6,369.933 3512.68,370.967 3512.63,380.648C3512.61,390.322 3510.33,414.147 3500.96,411.115C3491.6,408.083 3473.87,573.536 3464.66,574.938C3459.75,575.684 3435.54,592.193 3424.46,593.596C3412.39,595.124 3405.68,599.893 3405.24,600.662C3404.64,601.726 3401.47,511.245 3399.28,450.876C3397.91,452.096 3396.03,452.796 3393.34,452.485C3382.19,451.217 3387.68,431.582 3384.52,431.06C3382.92,430.803 3381.7,444.241 3372.16,443.133Z" style="fill-opacity:0.12;"/>
	<path d="M3436.29,1817.86C3436.29,1817.86 3436.36,1811.09 3432.81,1797.88C3429.34,1784.96 3422.32,1765.7 3417.87,1756.5" style="fill:none;stroke:black;stroke-width:2.17px;"/>
	<path d="M3374.73,1702.64C3374.73,1702.64 3387.47,1768.78 3400.63,1791.72" style="fill:none;stroke:black;stroke-width:2.17px;"/>
	<path d="M3298.7,994.063C3298.7,994.063 3308.29,1071.19 3289.47,1122.14" style="fill:none;stroke:black;stroke-width:2.17px;"/>
	<path d="M3393.15,936.443C3393.15,936.443 3383.41,994.327 3381.89,1021.38C3380.34,1048.43 3371.43,1088.93 3373.05,1103.39C3374.67,1117.86 3362.05,1176.38 3357.95,1196.04C3353.87,1215.7 3349.03,1272.82 3349.95,1284.25" style="fill:none;stroke:black;stroke-width:2.17px;"/>
	<path d="M3259.51,538.428C3260.39,543.528 3263.86,585.316 3268.69,593.893C3273.5,602.475 3278.57,603.619 3282.83,642.264" style="fill:none;stroke:black;stroke-width:2.17px;"/>
	<path d="M3336.62,593.665C3336.62,593.665 3333.51,660.441 3332.73,684.594C3331.93,708.751 3326.26,740.748 3326.26,740.748" style="fill:none;stroke:black;stroke-width:2.17px;"/>
	<path d="M3446.01,558.613C3446.01,558.613 3441.13,620.113 3440.6,628.36C3440.08,636.603 3432.76,659.923 3433.24,664.415" style="fill:none;stroke:black;stroke-width:2.17px;"/>
	<path d="M3438.36,725.54C3438.36,725.54 3441.86,749.73 3421.67,780.791C3416.87,788.156 3415.45,809.139 3407.89,826.19C3400.35,843.236 3398.15,864.855 3400.29,885.057" style="fill:none;stroke:black;stroke-width:2.17px;"/>
	<path d="M3367.21,593.993C3367.21,593.993 3365.23,505.193 3364.85,491.235C3364.48,477.28 3366.87,437.848 3366.87,437.848" style="fill:none;stroke:black;stroke-width:2.17px;"/>
	<path d="M3354.89,1399.55C3355.03,1413.41 3329.67,1473.68 3326.18,1514.91" style="fill:none;stroke:black;stroke-width:2.17px;"/>
	<path d="M3563.12,347.556C3563.12,347.556 3546.24,425.185 3538.91,417.741C3531.6,410.296 3534.5,375.472 3526.08,371.853C3521.6,369.933 3512.68,370.967 3512.63,380.648C3512.61,390.322 3510.33,414.147 3500.96,411.115C3491.6,408.083 3496.7,390.1 3487.49,391.502C3477.23,393.059 3479.02,426.734 3466.1,422.38C3452.26,417.719 3456.56,386.279 3448.3,385.319C3444.34,384.854 3445.28,409.193 3437.33,401.402C3427.24,391.544 3430.83,363.831 3420.39,365.751" style="fill:none;stroke:black;stroke-width:2.17px;"/>
	<path d="M3219.94,453.89C3228.4,457.183 3239.12,479.342 3244.48,463.554C3249.84,447.766 3249.21,424.709 3255.99,423.739C3257.7,423.494 3262.91,430.591 3268.05,429.148C3277.48,426.504 3275.42,401.058 3277.81,400.298C3280.21,399.533 3277.7,435.941 3289.6,442.992C3302.58,450.693 3303.94,441.514 3312.03,437.54C3315.59,435.787 3319.6,455.109 3327.39,448.313C3334.2,442.363 3328.28,423.244 3329.73,420.51C3331.68,416.881 3337.76,438.57 3345.87,437.015C3353.99,435.457 3355.05,412.427 3358.55,412.347C3362.75,412.247 3362.62,442.025 3372.16,443.133C3381.7,444.241 3383.04,430.828 3384.52,431.06C3387.7,431.568 3382.19,451.217 3393.34,452.485C3404.47,453.757 3401.37,437.917 3408.69,438.671C3416.01,439.425 3412.89,458.912 3421.11,452.721C3429.33,446.533 3433.12,410.386 3423.39,377.523C3413.67,344.66 3418.21,345.327 3421.15,335.464C3424.11,325.598 3431.68,336.538 3432.31,326.056C3432.92,315.57 3430.55,303.005 3432.49,300.698C3436.46,296.019 3439.81,311.585 3443.9,306.274C3448,300.963 3445.82,291.539 3449.52,290.827C3453.23,290.112 3455.14,296.678 3459.48,295.921" style="fill:none;stroke:black;stroke-width:2.17px;"/>
	<path d="M3320.72,264.191C3320.72,264.191 3330.67,290.097 3319.11,307.69C3314.93,314.066 3333.31,326.598 3326.55,343.76C3320.2,359.857 3310.93,344.544 3308.56,351.354C3306.22,358.04 3324.56,391.704 3298.42,394.459C3279.67,396.435 3279.84,376.238 3275.65,376.965C3271.49,377.687 3279.3,391.635 3268.05,396.98C3256.8,402.325 3253.46,386.128 3250.16,389.366C3248.26,391.221 3266.17,405.422 3259.81,419.785C3255.82,428.772 3242.64,422.152 3239.01,417.102" style="fill:none;stroke:black;stroke-width:2.17px;"/>
</g>
</g><g id="piece-canopy"><g xmlns="http://www.w3.org/2000/svg">
	<path d="M1063.76,-200.202L1064.57,-200.279C1072.14,-201.409 1080.07,-202.121 1088.64,-202.508C1146.13,-207.691 1196.19,-211.034 1214.48,-207.39C1217.12,-206.863 1219.23,-203.679 1220.86,-198.244C1229.71,-197.847 1239,-197.456 1248.77,-197.082C1282.39,-195.797 1333.3,-223.193 1375.06,-218.226C1483.57,-205.323 1748.9,-200.207 1815.8,-199.114C1975.25,-196.508 2007.56,-213.771 2087.24,-181.667C2088.72,-181.07 2142.73,-191.674 2158.13,-188.537C2168.36,-186.453 2173.06,-182.378 2175,-177.761C2215.01,-175.442 2257.6,-195.294 2359.72,-191.342C2496.62,-186.043 2655.36,-195.938 2760.21,-194.203C2940.68,-191.216 3155.64,-226.462 3245.82,-189.67C3247.08,-189.153 3285.11,-184.811 3311.14,-181.168C3328.41,-185.536 3388.37,-214.683 3399.2,-215.992C3443.88,-221.389 3548.31,-228.981 3628.39,-209.816L3628.52,-211.102C3628.35,-211.317 3628.35,-211.436 3628.56,-211.448L3628.52,-211.102C3631.9,-206.922 3703.01,-211.805 3703.01,-211.805C3703.01,-211.805 3786.62,-244.383 3831.42,-241.672C3879.48,-238.764 3883.2,-235.926 3924.72,-230.198C3976.21,-223.095 4010.2,-204.103 4010.2,-204.103C4010.2,-204.103 4086.45,-203.353 4100.98,-203.336C4129.98,-203.302 4175.32,-191.041 4175.32,-191.041C4175.32,-191.041 4213.15,-196.224 4225.92,-198.488C4244.56,-201.793 4278.81,-203.537 4307.66,-203.266C4321.49,-203.135 4351.56,-188.941 4351.56,-188.941C4351.56,-188.941 4380.79,-200.555 4395.99,-199.603C4416.57,-198.313 4449.82,-189.542 4449.82,-189.542C4449.82,-189.542 4472.46,-197.723 4515.42,-196.43C4570.88,-194.761 4652.39,-183.723 4681.09,-186.045C4777.7,-193.861 4934.97,-207.108 4970.73,-199.983C4978.73,-198.388 5006.69,-216.633 5018.66,-218.08C5066.14,-223.815 5125.86,-206.873 5125.86,-206.873C5125.86,-206.873 5181.04,-225.574 5262.52,-201.532C5344.01,-177.491 5468.34,-198.708 5468.34,-198.708C5468.34,-198.708 5660.16,-177.132 5739.13,-179.718C5790.39,-181.397 5941.86,-200.706 5976.78,-205.225C5977.52,-209.421 5977.93,-211.673 5977.93,-211.673C5977.93,-211.673 6104.99,-185.306 6119.52,-185.289C6148.52,-185.255 6193.86,-172.995 6193.86,-172.995C6193.86,-172.995 6256.84,-203.631 6269.62,-205.895C6288.26,-209.2 6322.5,-204.602 6351.35,-204.33C6365.19,-204.2 6395.26,-190.005 6395.26,-190.005L6402.34,-190.282L6402.34,429.212C6400.34,429.185 6391.94,428.978 6389.81,428.581C6363.25,423.608 6361.95,403.31 6361.95,403.31C6361.95,403.31 6337.49,408.427 6321.85,405.313C6306.22,402.2 6304.63,389.925 6304.63,389.925C6304.63,389.925 6293.17,405.827 6282.55,406.202C6271.93,406.578 6254.32,397.387 6254.32,397.387C6254.32,397.387 6263.6,419.648 6255.47,428.765C6240.86,445.152 6223.59,430.67 6223.59,430.67C6223.59,430.67 6241.38,470.525 6232.81,478.012C6224.24,485.5 6192.72,475.342 6192.72,475.342C6192.72,475.342 6226.71,509.476 6213.11,521.303C6194.62,537.377 6170.36,513.019 6170.36,513.019C6170.36,513.019 6197.47,542.413 6189.2,554.565C6179.32,569.085 6149.77,555.686 6149.77,555.686C6149.77,555.686 6177.83,574.327 6168.18,586.673C6158.44,599.133 6147.83,595.701 6147.83,595.701C6147.83,595.701 6155.34,616.414 6146.6,619.407C6137.87,622.401 6125.23,604.488 6125.23,604.488C6125.23,604.488 6119.57,622.646 6109.68,622.377C6107.07,622.307 6096.1,616.964 6082.1,609.756C6077.37,607.319 6074.73,626.923 6059.31,623.961C6037.3,619.731 6052.92,609.566 6043.38,599.973C6037,593.558 6030.05,622.172 6012.84,605.752C6003.84,597.17 6041.97,589.86 6040.96,590.583C6027.44,600.261 6003.02,581.286 6003.02,581.286C6003.02,581.286 5982.74,585.096 5972.4,591.429C5964.33,596.373 5946.8,588.199 5944.77,587.219L5944.69,587.462C5946.01,591.142 5951.04,592.502 5941.02,596.975C5928.49,602.571 5914.64,590.967 5914.64,590.967C5914.64,590.967 5920.5,612.71 5905.81,611.85C5904.4,611.768 5903.93,607.245 5904.23,599.126C5902.64,603.051 5899.92,605.417 5895.57,605.071C5875.36,603.467 5857.5,586.506 5857.5,586.506C5857.5,586.506 5867.93,634.211 5848.34,635.243C5828.76,636.274 5813.96,626.396 5813.96,626.396C5813.96,626.396 5829.16,675.987 5806.18,680.231C5783.2,684.474 5767.37,676.251 5767.37,676.251C5767.37,676.251 5770.57,701.816 5751.87,712.192C5733.17,722.567 5704.67,707.195 5704.67,707.195C5704.67,707.195 5745.39,726.773 5720.01,755.511C5707.29,769.911 5676.27,750.28 5676.27,750.28C5676.27,750.28 5676.14,790.147 5653.23,788.349C5630.32,786.55 5620.8,760.681 5620.8,760.681C5620.8,760.681 5614.42,781.123 5601.56,783.805C5588.7,786.488 5586.97,761.531 5586.97,761.531C5586.97,761.531 5579.44,794.18 5562.46,786.135C5545.48,778.09 5544.02,727.542 5544.02,727.542C5544.02,727.542 5535.36,743.03 5518.46,748.959C5504.13,753.983 5503.32,737.145 5495.19,738.229C5490.29,738.882 5487.14,761.545 5479.71,766.86C5464.35,777.844 5449.98,741.303 5447.44,740.166C5446.39,738.162 5445.74,736.993 5445.74,736.993C5445.74,736.993 5445.44,739.274 5447.44,740.166C5453.47,751.716 5472.68,790.999 5456.52,794.232C5437.55,798.026 5409.54,768.922 5409.54,768.922C5409.54,768.922 5418.78,813.115 5389.63,812.122C5372.1,811.525 5367.67,796.489 5366.92,784.592C5368.46,777.485 5367.54,770.187 5367.54,770.187C5367.54,770.187 5366.42,776.699 5366.92,784.592C5365.19,792.512 5360.41,800.196 5347.89,797.307C5324.11,791.823 5326.53,758.841 5326.53,758.841C5326.53,758.841 5316.31,787.569 5296.62,781.75C5283.48,777.869 5291.51,754.711 5286.84,761.918C5283.9,766.454 5279.41,773.154 5270.99,779.943C5249.19,797.519 5240.75,755.269 5240.75,755.269C5240.75,755.269 5245.19,799.117 5225.54,803.987C5205.88,808.857 5194.45,777.429 5194.45,777.429C5194.45,777.429 5202.19,811.394 5175.92,813.342C5156.41,814.789 5157.45,799.888 5159.28,792.125C5160.17,789.357 5160.64,787.601 5160.64,787.601C5160.64,787.601 5159.91,789.434 5159.28,792.125C5155.21,804.762 5142.38,838.479 5125.46,822.405C5104.84,802.809 5118.73,758.637 5118.73,758.637C5118.73,758.637 5109.92,783.549 5087.26,773.459C5066.31,764.132 5072.2,741.586 5073.19,734.461C5073.3,733.888 5073.32,733.565 5073.32,733.565C5073.32,733.565 5073.27,733.877 5073.19,734.461C5072.65,737.228 5069.9,745.802 5056.3,751.721C5039.88,758.864 5029.18,746.064 5029.18,746.064C5029.18,746.064 5049.02,790.891 5020.76,789.076C4992.5,787.261 4996.91,740.765 4996.91,740.765C4996.91,740.765 4989.12,787.487 4962.68,775.779C4936.23,764.07 4960.13,716.79 4960.13,716.79C4960.13,716.79 4924.78,757.976 4907.61,737.751C4900.98,729.94 4900.24,720.456 4901.84,711.754C4887.35,705.254 4877.58,701.006 4877.58,701.006C4877.58,701.006 4867.01,716.506 4846.15,719.335C4825.28,722.165 4825.89,713.063 4822.53,693.851C4819.18,674.639 4814.12,698.495 4786.37,697.974C4758.62,697.453 4768.86,668.956 4775.81,652.282C4782.77,635.607 4776.46,646.942 4767.14,644.673C4757.81,642.404 4762.02,629.397 4762.02,629.397C4762.02,629.397 4747.28,647.501 4735.43,644.08C4723.58,640.658 4719.82,621.513 4719.82,621.513C4719.82,621.513 4698.91,643.505 4677.57,639.76C4656.22,636.016 4654.04,614.95 4654.04,614.95C4654.04,614.95 4631.41,626.963 4616.99,614.769C4602.58,602.574 4614.13,563.108 4614.13,563.108C4614.13,563.108 4590.2,581.491 4577.56,567.911C4564.92,554.33 4583.02,536.622 4583.02,536.622C4583.02,536.622 4563.99,540.706 4558.22,535.567C4552.46,530.427 4560.08,507.928 4560.08,507.928C4560.08,507.928 4547.43,509.434 4538.39,502.598C4529.35,495.762 4531.79,539.106 4531.79,539.106C4531.79,539.106 4509.78,544.081 4502.99,537.729C4496.21,531.377 4501.27,514.689 4501.27,514.689C4501.27,514.689 4496.99,525.457 4482.39,524.646C4467.78,523.835 4455.04,516.865 4455.04,516.865C4455.04,516.865 4432.22,509.367 4415.09,502.332C4397.97,495.296 4389.95,520.05 4389.95,520.05C4389.95,520.05 4372.81,544.845 4346.25,539.872C4319.68,534.9 4318.39,514.601 4318.39,514.601C4318.39,514.601 4293.93,519.718 4278.29,516.604C4262.65,513.491 4261.07,501.216 4261.07,501.216C4261.07,501.216 4249.61,517.118 4238.99,517.494C4228.37,517.869 4210.75,508.678 4210.75,508.678C4210.75,508.678 4205.57,541.8 4194.74,547.464C4183.92,553.129 4165.96,534.454 4165.96,534.454C4165.96,534.454 4159.12,513.252 4150.56,520.74C4141.99,528.227 4116.52,512.61 4116.52,512.61C4116.52,512.61 4123.49,536.029 4105.57,534.053C4087.66,532.078 4076.35,515.25 4076.35,515.25C4076.35,515.25 4066.14,569.577 4040.46,565.147C4014.77,560.718 4020.59,529.021 4020.59,529.021C4020.59,529.021 4016.2,547.029 4000.54,546.546C3984.88,546.063 3984.77,534.03 3984.77,534.03C3984.77,534.03 3984.69,554.87 3975.96,557.863C3967.22,560.856 3954.04,547.947 3954.04,547.947C3954.04,547.947 3956.13,558.502 3946.2,562.135C3938.37,565.001 3930.62,556.6 3927.37,552.431C3926.39,551.055 3925.77,550.237 3925.77,550.237C3925.77,550.237 3926.35,551.127 3927.37,552.431C3932.1,559.044 3945.42,578.536 3940.72,581.896C3927.2,591.573 3914.86,583.582 3914.86,583.582C3914.86,583.582 3932.8,606.592 3922.46,612.925C3913.88,618.178 3894.63,608.62 3894.63,608.62C3894.63,608.62 3907.95,644.943 3897.32,649.684C3884.79,655.281 3870.94,643.676 3870.94,643.676C3870.94,643.676 3876.8,665.419 3862.12,664.56C3847.43,663.7 3843.41,642.753 3843.41,642.753C3843.41,642.753 3828.14,663.553 3813.06,660.405C3797.98,657.258 3800.45,633.458 3800.45,633.458C3800.45,633.458 3796.56,643.022 3783.73,637.809C3770.91,632.595 3780.4,614.424 3780.4,614.424C3780.4,614.424 3776.39,617.743 3764.11,612.167C3751.82,606.592 3755.81,592.604 3755.81,592.604C3755.81,592.604 3744.98,616.25 3732.63,617.696C3720.28,619.142 3705.18,591.213 3705.18,591.213C3705.18,591.213 3695.57,626.118 3681.13,627.289C3666.69,628.46 3659.75,622.753 3659.75,622.753C3659.75,622.753 3663.7,642.673 3654.34,646.268C3644.98,649.863 3629.49,641.772 3629.49,641.772C3629.49,641.772 3642.63,649.568 3626.31,658.007C3608.21,667.366 3602.78,648.625 3602.66,648.226C3596.98,656.746 3596.14,665.733 3583.97,662.663C3577.09,660.929 3574.99,649.82 3574.44,645.717C3568.29,656.105 3559.83,663.59 3550,654.244C3529.38,634.649 3543.27,590.476 3543.27,590.476C3543.27,590.476 3534.45,615.388 3511.8,605.298C3490.85,595.971 3496.62,548.491 3497.61,541.366C3497.72,540.794 3497.74,540.47 3497.74,540.47C3497.74,540.47 3497.69,540.783 3497.61,541.366C3497.07,544.133 3494.32,552.707 3480.72,558.626C3464.3,565.77 3453.6,552.97 3453.6,552.97C3453.6,552.97 3473.44,597.796 3445.18,595.981C3416.92,594.166 3421.33,547.671 3421.33,547.671C3421.33,547.671 3413.54,594.392 3387.09,582.684C3360.65,570.976 3384.55,523.696 3384.55,523.696C3384.55,523.696 3349.2,564.882 3332.03,544.656C3325.4,536.845 3324.66,527.361 3326.25,518.66C3323.12,517.255 3318.78,515.6 3313.89,513.872C3315.77,523.6 3314.74,531.514 3308.11,534.51C3285.22,544.861 3254.32,517.112 3254.32,517.112C3254.32,517.112 3274.47,563.484 3253.58,569.609C3232.7,575.733 3190.16,542.56 3190.16,542.56C3190.16,542.56 3191.21,558.875 3173.93,562.416C3156.64,565.957 3149.56,547.065 3149.56,547.065C3149.56,547.065 3151.24,560.424 3130.29,565.407C3109.35,570.391 3098.65,550.572 3098.65,550.572C3098.65,550.572 3105.94,565.504 3092.22,570.727C3078.5,575.95 3068.65,571.948 3068.65,571.948C3068.65,571.948 3084.23,596.801 3075.36,602.781C3066.5,608.761 3044.17,594.502 3044.17,594.502C3044.17,594.502 3076.89,642.872 3064.36,651.115C3051.84,659.359 3018.13,644.81 3018.13,644.81C3018.13,644.81 3021.49,710.714 3000.37,714.194C2979.24,717.673 2945.33,679.965 2945.33,679.965C2945.33,679.965 2959.06,707.135 2948.5,712.16C2937.95,717.185 2918.39,697.675 2918.39,697.675C2918.39,697.675 2914.09,728.878 2889.85,731.855C2865.6,734.832 2874.37,701.048 2874.37,701.048C2874.37,701.048 2854.08,717.85 2838.81,715.678C2823.54,713.507 2821.35,660.19 2821.35,660.19C2821.35,660.19 2802.85,685.247 2786.2,685.827C2769.55,686.408 2756.55,643.7 2756.55,643.7C2756.55,643.7 2757.1,684.37 2725.81,678.391C2694.52,672.411 2668.25,594.169 2668.25,594.169C2668.25,594.169 2670.28,619.258 2650.66,619.928C2631.04,620.598 2617.64,617.061 2617.64,617.061C2617.64,617.061 2651.19,660.764 2629.39,663.265C2607.58,665.767 2574.99,659.138 2574.99,659.138C2574.99,659.138 2598.12,711.274 2578.61,712.931C2559.11,714.588 2524.84,692.713 2524.84,692.713C2524.84,692.713 2545.23,779.569 2517.93,778.938C2490.62,778.308 2454.54,733.177 2454.54,733.177C2454.54,733.177 2465.1,792.393 2440.18,787.31C2415.27,782.228 2396.09,739.513 2396.09,739.513C2396.09,739.513 2396.58,788.363 2373.97,778.753C2351.36,769.143 2329.5,737.453 2329.5,737.453C2329.5,737.453 2314.61,765.438 2296.11,760.306C2277.61,755.173 2282.12,715.397 2282.12,715.397C2282.12,715.397 2251.84,743.807 2236.09,736.475C2220.34,729.144 2229.78,687.97 2229.78,687.97C2229.78,687.97 2208.19,705.282 2186.71,704.285C2165.24,703.287 2185.21,659.741 2185.21,659.741C2185.21,659.741 2154.26,672.183 2136.85,667.049C2119.45,661.916 2132.71,630.833 2132.71,630.833C2132.71,630.833 2096.56,637.088 2082.96,635.215C2069.36,633.342 2093.19,597.209 2093.19,597.209C2093.19,597.209 2078.95,596.072 2059.82,593.667C2040.69,591.263 2079.16,551.542 2079.16,551.542C2079.16,551.542 2055.89,562.724 2045.35,552.002C2034.8,541.281 2062.4,518.864 2062.4,518.864C2062.4,518.864 2031.62,528.948 2024.82,520.304C2019.93,514.079 2034.11,498.145 2042.43,489.715C2037.13,486.177 2033.71,483.539 2033.71,483.539C2033.71,483.539 2034.64,497.776 2019.37,500.866C2004.09,503.956 1997.84,487.471 1997.84,487.471C1997.84,487.471 1999.32,499.127 1980.82,503.476C1962.31,507.824 1952.86,490.53 1952.86,490.53C1952.86,490.53 1959.3,503.56 1947.17,508.118C1935.05,512.675 1926.35,509.183 1926.35,509.183C1926.35,509.183 1940.12,530.869 1932.28,536.087C1924.45,541.305 1904.72,528.863 1904.72,528.863C1904.72,528.863 1933.63,571.069 1922.56,578.263C1911.49,585.456 1881.71,572.761 1881.71,572.761C1881.71,572.761 1884.68,630.267 1866.02,633.304C1847.35,636.34 1817.39,603.436 1817.39,603.436C1817.39,603.436 1829.52,627.144 1820.19,631.529C1810.87,635.914 1793.59,618.889 1793.59,618.889C1793.59,618.889 1789.79,646.117 1768.37,648.715C1746.94,651.312 1754.69,621.833 1754.69,621.833C1754.69,621.833 1736.77,636.494 1723.28,634.599C1709.78,632.704 1707.85,586.181 1707.85,586.181C1707.85,586.181 1691.5,608.045 1676.79,608.551C1662.08,609.058 1650.59,571.792 1650.59,571.792C1650.59,571.792 1651.08,607.28 1623.43,602.062C1595.79,596.845 1572.57,528.572 1572.57,528.572C1572.57,528.572 1574.37,550.465 1557.03,551.049C1539.7,551.634 1527.86,548.547 1527.86,548.547C1527.86,548.547 1557.5,586.682 1538.23,588.865C1518.97,591.047 1490.17,585.263 1490.17,585.263C1490.17,585.263 1510.61,630.756 1493.37,632.202C1476.14,633.648 1445.86,614.56 1445.86,614.56C1445.86,614.56 1463.88,690.349 1439.75,689.798C1415.63,689.248 1383.74,649.868 1383.74,649.868C1383.74,649.868 1393.08,701.539 1371.06,697.104C1349.05,692.669 1332.1,655.397 1332.1,655.397C1332.1,655.397 1332.54,698.022 1312.56,689.637C1292.58,681.251 1273.26,653.599 1273.26,653.599C1273.26,653.599 1260.11,678.018 1243.77,673.54C1227.42,669.061 1231.4,634.354 1231.4,634.354C1231.4,634.354 1204.65,659.144 1190.73,652.746C1184.38,649.823 1182.66,640.736 1182.68,631.725L1180.67,631.604C1173.66,642.304 1168.55,648.432 1166.22,648.715C1165.69,648.779 1165.18,648.823 1164.69,648.849C1164.19,657.938 1161.41,666.183 1152.21,662.028C1134.16,653.875 1121.33,648.297 1121.33,648.297C1121.33,648.297 1110.77,663.797 1089.9,666.626C1069.04,669.455 1069.64,660.354 1066.29,641.142C1062.93,621.93 1057.88,645.786 1030.12,645.265C1003.37,644.763 1011.92,618.268 1018.8,601.422C1011.5,599.048 1004.55,592.464 998.317,584.166C992.991,588.684 985.653,593.24 979.179,591.37C967.329,587.949 963.573,568.804 963.573,568.804C963.573,568.804 954.614,578.228 942.435,583.688C941.905,586.485 940.01,588.42 936.088,588.865C916.824,591.047 888.021,585.263 888.021,585.263C888.021,585.263 901.826,623.769 884.591,625.215C867.356,626.661 843.717,614.56 843.717,614.56C843.717,614.56 854.517,654.022 830.393,653.471C806.269,652.921 782.569,634.085 782.569,634.085C782.569,634.085 785.13,673.417 763.113,668.982C741.097,664.548 730.926,639.613 730.926,639.613C730.926,639.613 724.586,669.901 704.606,661.516C684.627,653.13 671.117,653.599 671.117,653.599C671.117,653.599 661.959,673.047 645.612,668.568C629.265,664.09 629.255,634.354 629.255,634.354C629.255,634.354 606.497,654.172 592.581,647.774C586.222,644.851 580.518,640.736 580.535,631.725L558.858,619.913C558.858,619.913 565.55,659.523 547.497,651.37C529.444,643.216 516.616,637.638 516.616,637.638C516.616,637.638 506.05,653.138 485.185,655.968C464.32,658.797 464.929,649.696 461.571,630.483C458.213,611.271 453.16,635.127 425.406,634.606C397.652,634.086 410.461,616.247 417.418,599.572C424.375,582.898 418.068,594.232 408.741,591.964C399.413,589.695 403.629,576.687 403.629,576.687C403.629,576.687 388.883,594.792 377.033,591.37C365.183,587.949 361.427,568.804 361.427,568.804C361.427,568.804 340.518,590.796 319.17,587.051C297.822,583.306 295.643,562.241 295.643,562.241C295.643,562.241 273.015,574.254 258.6,562.059C244.185,549.865 255.734,510.399 255.734,510.399C255.734,510.399 231.809,528.782 219.169,515.202C206.529,501.621 224.629,483.913 224.629,483.913C224.629,483.913 205.592,487.997 199.828,482.858C194.064,477.718 201.687,455.219 201.687,455.219C201.687,455.219 189.032,456.725 179.994,449.889C170.956,443.053 173.268,427.815 173.268,427.815C173.268,427.815 151.25,432.789 144.465,426.437C137.68,420.086 142.748,403.398 142.748,403.398C142.748,403.398 138.468,414.166 123.861,413.355C109.254,412.544 96.512,405.574 96.512,405.574C96.512,405.574 73.822,456.658 56.699,449.622C39.575,442.587 31.427,408.759 31.427,408.759C31.427,408.759 16.011,429.75 -7,429.212L-7,-190.282C-2.379,-192.073 23.824,-201.53 37.597,-200.667C58.18,-199.378 91.424,-190.607 91.424,-190.607C91.424,-190.607 114.064,-198.788 157.024,-197.495C212.485,-195.825 293.997,-184.788 322.691,-187.109C363.107,-190.379 414.135,-195.708 462.425,-200.279C469.991,-201.409 477.925,-202.121 486.493,-202.508C543.983,-207.691 594.047,-211.034 612.332,-207.39C614.978,-206.863 617.085,-203.679 618.715,-198.244L620.512,-198.164C627.473,-199.832 634.507,-200.996 639.743,-200.667C645.953,-200.278 653.315,-199.208 660.569,-197.903C693.337,-202.378 736.589,-222.547 772.917,-218.226C835.501,-210.784 954.293,-204.512 1063.76,-200.202Z" style="fill:rgb(0,120,33);stroke:black;stroke-width:2.8px;"/>
	<path d="M71.416,187.461C39.872,158.353 -17.346,163.759 -17.346,163.759L-17.346,-313.864L6945.18,-313.864L6945.18,163.759L6399.19,163.759C6399.19,163.759 6387.16,160.06 6371.43,197.618C6355.71,235.175 6302.97,333.402 6225.94,325.132C6160.4,318.096 5927.57,428.226 5895.02,436.269C5841.6,449.471 5777.73,518.292 5706.35,538.564C5591.99,571.046 5554.27,541.108 5416.83,617.737C5361.7,648.476 5246.5,606.636 5170.72,657.069C5116.25,693.321 5021.06,591.572 4954.8,578.767C4900.19,568.212 4809.33,549.335 4756.37,526.761C4677.87,493.3 4551.63,401.352 4457.62,415.194C4300.33,438.352 4158,419.382 3985.75,406.01C3940.78,402.518 3873.27,497.704 3827.2,508.056C3794.18,515.474 3771.46,467.238 3744.14,468.777C3707.64,470.834 3662.51,549.073 3603.53,540.785C3546.53,532.776 3577.91,480.229 3525.45,471.021C3472.98,461.813 3461.79,504.735 3406.69,484.523C3362.17,468.188 3297.61,449.435 3244.74,440.361C3226.28,450.949 3191.62,436.077 3163.1,435.847C3072.32,435.114 3039.33,480.133 2949.08,557.201C2907.49,592.722 2757.28,445.096 2697.78,459.411C2595.85,483.932 2452.38,602.884 2341.56,602.884C2231.55,602.884 2139.55,384.509 2025.37,379.077C1909.53,373.566 1813.92,465.283 1700.32,455.504C1647.69,450.973 1585.98,424.734 1534.56,418.074C1434,405.048 1427.16,505.124 1342.04,538.418C1246.11,575.942 1173.82,473.967 1079.11,473.956C1032.2,473.95 930.098,482.691 921.518,481.58C820.956,468.553 788.196,496.163 701.748,517.775C591.284,545.392 571.676,473.967 476.966,473.956C354.346,473.941 292.259,320.084 183.132,306.483C147.099,301.992 102.961,216.568 71.416,187.461Z" style="fill-opacity:0.13;"/>
</g>
</g><g id="piece-haze"><rect x="0" y="0" width="6400" height="2400" style="fill-opacity:0.16;"/>
                        <rect x="0" y="0" width="6400" height="2400" style="fill:url(#_Linear2);"/></g>

    </svg>