<?xml version="1.0" encoding="UTF-8" standalone="no"?>
<!DOCTYPE svg PUBLIC "-//W3C//DTD SVG 1.1//EN" "http://www.w3.org/Graphics/SVG/1.1/DTD/svg11.dtd">
<svg width="100%" height="100%" viewBox="0 0 1700 720" version="1.1" xmlns="http://www.w3.org/2000/svg" xmlns:xlink="http://www.w3.org/1999/xlink" xml:space="preserve"  style="fill-rule:evenodd;clip-rule:evenodd;stroke-linejoin:round;stroke-miterlimit:2;">
	<g>
		<path d="M1659.27,158.914C1659.27,83.428 1597.98,22.144 1522.5,22.144L177.503,22.144C102.017,22.144 40.733,83.428 40.733,158.914L40.733,432.453C40.733,507.939 102.017,569.223 177.503,569.223L1522.5,569.223C1597.98,569.223 1659.27,507.939 1659.27,432.453L1659.27,158.914Z" style="fill:rgb(223,137,57);"/>
		<path d="M1668.77,158.914C1668.77,78.185 1603.23,12.644 1522.5,12.644C1522.5,12.644 177.503,12.644 177.503,12.644C96.774,12.644 31.233,78.185 31.233,158.914L31.233,432.453C31.233,513.182 96.774,578.723 177.503,578.723C177.503,578.723 1522.5,578.723 1522.5,578.723C1603.23,578.723 1668.77,513.182 1668.77,432.453C1668.77,432.453 1668.77,158.914 1668.77,158.914ZM1659.27,158.914C1659.27,83.428 1597.98,22.144 1522.5,22.144L177.503,22.144C102.017,22.144 40.733,83.428 40.733,158.914L40.733,432.453C40.733,507.939 102.017,569.223 177.503,569.223L1522.5,569.223C1597.98,569.223 1659.27,507.939 1659.27,432.453L1659.27,158.914Z"/>
		<g>
			<g>
				<path d="M431.598,388.526C431.598,392.686 430.71,396.498 428.935,399.964L425.321,399.548L422.658,399.964L417.523,403.083L404.398,401.004L391.464,405.995L371.683,405.995L347.146,409.322L345.814,409.322L337.635,408.49C330.915,412.234 324.955,414.105 319.756,414.105L315.952,413.689L303.778,412.026L276.198,410.778L268.78,408.906L258.318,406.827L253.183,405.579L251.661,400.38C249.252,400.38 247.413,399.548 246.145,397.885C243.229,399.271 241.453,399.964 240.819,399.964C239.424,399.964 237.079,398.855 233.782,396.637L229.787,394.557C229.534,390.814 228.392,387.695 226.363,385.199C223.827,386.308 221.989,386.863 220.847,386.863C220.087,386.863 219.453,386.586 218.945,386.031L217.043,383.951L208.484,375.009L203.348,363.78L198.593,357.957L193.267,349.43L190.414,342.152C192.316,338.27 193.394,334.458 193.648,330.714L191.555,327.595L184.708,326.347L181.474,318.653C180.206,316.573 179.572,314.632 179.572,312.83C179.572,311.582 179.699,310.265 179.953,308.879L179.953,308.463L177.29,291.826C177.036,290.717 176.909,288.915 176.909,286.419C176.909,282.953 177.543,279.21 178.811,275.19L176.529,271.03L178.811,257.721C179.192,252.73 179.699,248.883 180.333,246.18C180.967,243.476 182.108,240.807 183.757,238.173C183.503,237.619 183.376,236.925 183.376,236.094C183.376,235.123 184.201,232.974 185.849,229.647L186.99,225.072L194.409,221.537L194.028,214.258C194.028,212.594 194.282,211.485 194.789,210.931L204.49,197.414L209.245,188.055L214.19,183.272L219.326,175.162L228.646,167.468L231.689,161.645L249.759,153.535L255.846,148.336L262.883,147.088L265.356,145.008L268.78,142.305L272.584,140.225C279.432,137.452 284.884,135.789 288.942,135.234L305.87,134.818L314.049,130.867L329.837,129.204L339.728,127.124L357.988,129.619L363.884,129.619C367.181,133.64 369.083,135.65 369.59,135.65C371.365,135.65 373.077,134.333 374.726,131.699L376.628,131.699L377.389,130.035L381.764,130.867L392.605,136.066L400.024,136.482C403.194,136.482 404.779,137.868 404.779,140.641C404.779,142.859 402.94,144.731 399.263,146.256C395.332,149.583 390.734,158.785 388.959,158.785L385.535,157.538C383.126,162.945 380.526,165.648 377.736,165.648L376.025,165.648L368.606,162.737L360.047,160.241L353.96,155.458L345.021,152.963L336.461,149.427L314.207,151.299L301.273,151.715C294.045,152.131 288.592,153.517 284.915,155.874L272.171,164.4L259.617,170.847L244.02,182.701L237.363,186.028L234.923,188.055C228.709,189.303 225.603,191.66 225.603,195.126C225.603,196.79 226.11,198.523 227.124,200.325L223.51,205.316C221.989,208.227 220.087,210.376 217.804,211.763L218.945,217.793L217.043,222.784L210.766,245.036L208.484,251.482L206.772,259.177L207.533,263.752L207.533,268.119L206.392,271.862L204.87,271.03L205.631,274.358C202.587,276.576 201.066,278.586 201.066,280.389C201.066,281.636 202.08,283.508 204.109,286.003L210.006,288.083L210.006,293.49C210.006,295.569 210.386,297.58 211.147,299.521C208.738,301.739 207.533,303.749 207.533,305.551C207.533,306.383 207.85,307.215 208.484,308.047L213.429,305.967L215.331,310.126L219.326,324.268L223.51,332.378L221.989,340.072L224.271,344.232L226.363,344.232C228.646,344.232 230.485,344.994 231.88,346.519C233.274,348.044 234.669,350.817 236.064,354.837L237.586,359.204L239.488,361.284L234.923,364.195L237.586,366.483L244.623,364.611L249.759,368.563L253.563,371.058L257.938,375.425L265.356,378.337L278.481,387.279L285.138,389.774L283.997,394.141C288.562,394.696 291.541,395.25 292.936,395.805L298.833,397.885L317.854,394.349L318.614,401.004L325.652,395.181L339.918,393.933L347.716,392.686L351.711,392.27C353.486,392.27 355.578,392.963 357.988,394.349L361.792,391.854C365.849,389.913 368.703,388.942 370.351,388.942L370.731,388.942L376.628,389.358L384.046,388.111L383.666,385.823L384.046,388.111C387.343,387.001 389.34,386.204 390.038,385.719C390.735,385.234 391.971,384.021 393.747,382.08L394.507,383.535C398.946,381.872 401.165,379.723 401.165,377.089L399.643,370.642L400.024,354.421L398.502,331.13L401.545,323.852L401.545,322.188C401.545,319.277 400.15,316.712 397.361,314.494L396.6,310.126L395.839,302.432L396.6,297.857L392.605,297.441L378.15,296.193L368.449,295.362L364.645,295.777L356.466,296.609C355.959,296.609 354.627,296.193 352.471,295.362L353.613,289.331C355.388,288.776 356.529,288.291 357.036,287.875C357.544,287.459 358.495,285.934 359.89,283.3L362.743,279.973C366.42,281.636 369.907,282.468 373.204,282.468L376.247,282.468L421.137,279.557L426.462,279.973C429.379,285.241 430.837,289.331 430.837,292.242C430.837,294.183 429.506,295.916 426.843,297.441L426.843,301.184L429.316,301.184L428.935,308.879L429.316,313.246C429.316,315.464 429.094,317.093 428.65,318.133C428.206,319.173 427.223,320.386 425.702,321.772L427.794,331.962C429.569,334.596 430.457,337.854 430.457,341.736C430.457,345.757 429.95,349.569 428.935,353.174C426.019,353.451 424.117,354.11 423.229,355.149C422.341,356.189 421.897,358.511 421.897,362.116L431.598,371.474L431.218,384.783L431.598,388.526Z" style="fill:white;fill-rule:nonzero;"/>
				<path d="M169.861,308.685C169.666,310.121 169.572,311.502 169.572,312.83C169.572,316.016 170.434,319.493 172.516,323.146C172.514,323.142 175.489,330.221 175.489,330.221C176.703,333.111 179.196,335.251 182.205,336.026C181.976,336.6 181.717,337.174 181.434,337.752C180.2,340.27 180.08,343.191 181.104,345.801L183.957,353.08C184.182,353.654 184.459,354.206 184.786,354.728L190.112,363.254C190.335,363.612 190.581,363.955 190.848,364.282L194.789,369.108C194.789,369.108 199.39,379.168 199.39,379.168C199.855,380.185 200.487,381.116 201.26,381.924L209.741,390.784C209.741,390.784 211.566,392.78 211.566,392.78C213.866,395.294 216.691,396.658 220.056,396.839C220.71,399.651 222.562,402.07 225.169,403.427L228.696,405.263C234.206,408.871 238.455,409.964 240.819,409.964C241.359,409.964 242.419,409.824 243.948,409.403C245.156,412.334 247.7,414.538 250.822,415.296L255.958,416.544C256.094,416.577 256.231,416.607 256.369,416.635L266.58,418.665C266.58,418.665 273.752,420.474 273.752,420.474C274.405,420.639 275.073,420.737 275.746,420.768L302.873,421.995C302.873,421.995 314.597,423.597 314.597,423.597C314.686,423.609 314.775,423.62 314.865,423.63L318.669,424.046C319.03,424.085 319.393,424.105 319.756,424.105C325.599,424.105 332.259,422.43 339.631,418.744C339.63,418.745 344.802,419.271 344.802,419.271C345.139,419.305 345.476,419.322 345.814,419.322L347.146,419.322C347.595,419.322 348.044,419.292 348.489,419.232L372.357,415.995C372.357,415.995 391.464,415.995 391.464,415.995C392.695,415.995 393.916,415.768 395.064,415.324L405.489,411.302C405.489,411.302 415.958,412.96 415.958,412.96C418.296,413.331 420.69,412.86 422.714,411.63L425.92,409.683L427.792,409.899C431.933,410.375 435.935,408.233 437.836,404.523C440.32,399.673 441.598,394.346 441.598,388.526C441.598,388.189 441.581,387.851 441.547,387.515L441.232,384.419C441.232,384.419 441.594,371.76 441.594,371.76C441.674,368.947 440.566,366.231 438.541,364.277L435.147,361.003C436.763,359.728 437.978,357.954 438.561,355.883C439.816,351.424 440.457,346.709 440.457,341.736C440.457,336.519 439.315,332.051 437.245,328.274C437.246,328.276 436.481,324.552 436.481,324.552C437.074,323.66 437.521,322.823 437.847,322.059C438.651,320.175 439.316,317.264 439.316,313.246C439.316,312.956 439.303,312.667 439.278,312.378L438.957,308.691C438.957,308.691 439.303,301.678 439.303,301.678C439.346,300.815 439.276,299.958 439.101,299.128C440.331,296.886 440.837,294.54 440.837,292.242C440.837,288.216 439.245,282.415 435.211,275.129C433.584,272.19 430.59,270.265 427.241,270.003L421.915,269.587C421.441,269.55 420.964,269.547 420.489,269.578L375.924,272.468C375.924,272.468 373.204,272.468 373.204,272.468C371.199,272.468 369.101,271.873 366.865,270.862C362.816,269.03 358.044,270.09 355.151,273.463L352.298,276.791C351.816,277.352 351.399,277.966 351.052,278.62C350.829,279.042 350.584,279.482 350.355,279.882C346.967,281.044 344.456,283.938 343.787,287.471L342.646,293.502C341.748,298.246 344.368,302.953 348.871,304.691C352.906,306.248 355.516,306.609 356.466,306.609C356.804,306.609 357.141,306.592 357.478,306.558L365.657,305.726L368.566,305.408C368.566,305.408 377.292,306.157 377.292,306.157L386.235,306.928L386.648,311.111C386.673,311.356 386.706,311.6 386.748,311.843L387.509,316.21C387.929,318.622 389.22,320.797 391.137,322.321L391.29,322.455L389.276,327.273C388.68,328.697 388.422,330.241 388.523,331.782L390.016,354.631C390.016,354.631 389.646,370.408 389.646,370.408C389.627,371.231 389.709,372.053 389.894,372.855C388.57,373.405 387.363,374.243 386.368,375.331C385.698,376.063 384.92,376.851 384.453,377.313L383.671,377.617C383.229,377.782 382.788,377.946 382.347,378.11L381.548,378.39L376.144,379.299C376.144,379.299 371.435,378.967 371.435,378.967L371.435,378.979C371.185,378.953 370.923,378.942 370.649,378.942L370.351,378.955L370.351,378.942C367.899,378.942 363.513,379.945 357.477,382.833L357.007,383.077C355.088,382.513 353.315,382.27 351.711,382.27C351.365,382.27 351.019,382.288 350.675,382.323L346.681,382.739C346.499,382.758 346.317,382.782 346.136,382.811L338.691,384.003C338.691,384.003 324.781,385.219 324.781,385.219C324.081,385.28 323.394,385.415 322.73,385.623C320.706,384.487 318.335,384.089 316.026,384.518L299.636,387.564C299.636,387.564 296.324,386.396 296.324,386.396C295.808,386.205 295.136,386.001 294.309,385.794C293.264,383.382 291.276,381.396 288.648,380.41L283.117,378.337C283.117,378.337 270.987,370.072 270.987,370.072C270.369,369.651 269.706,369.301 269.01,369.028L263.529,366.877C263.529,366.877 260.628,363.981 260.628,363.981C260.147,363.5 259.617,363.07 259.048,362.697L255.559,360.407C255.559,360.407 250.721,356.686 250.721,356.686C249.67,355.877 248.483,355.296 247.234,354.961C247.116,354.816 246.994,354.674 246.867,354.535L246.352,353.973C246.352,353.972 245.507,351.547 245.507,351.547C243.513,345.797 241.258,341.956 239.258,339.77C237.494,337.841 235.448,336.384 233.095,335.455L233.32,334.318C233.759,332.101 233.433,329.801 232.397,327.793L228.675,320.579C228.675,320.579 224.955,307.408 224.955,307.408C224.816,306.915 224.639,306.433 224.426,305.968L222.523,301.808C222.153,300.999 221.688,300.262 221.145,299.606C221.158,298.353 220.933,297.086 220.457,295.871C220.157,295.105 220.006,294.311 220.006,293.49C220.006,293.49 220.006,288.083 220.006,288.083C220.006,284.242 217.811,280.779 214.426,279.113C214.949,278.145 215.308,277.095 215.488,276.008C215.672,275.612 215.828,275.201 215.957,274.779L217.098,271.035C217.386,270.09 217.533,269.107 217.533,268.119L217.533,263.752C217.533,263.202 217.488,262.654 217.397,262.112L216.955,259.453C216.955,259.453 218.113,254.247 218.113,254.247C218.113,254.247 220.193,248.373 220.193,248.373C220.266,248.168 220.332,247.96 220.391,247.751L226.547,225.929C226.547,225.929 228.29,221.355 228.29,221.355C228.948,219.627 229.115,217.751 228.771,215.934L228.68,215.456C229.89,214.048 231.002,212.446 232.002,210.638C231.998,210.645 235.224,206.19 235.224,206.19C236.986,203.756 237.534,200.704 236.815,197.877L236.892,197.86C238.518,197.533 240.038,196.807 241.314,195.746L242.866,194.457C242.866,194.457 248.491,191.646 248.491,191.646C249.047,191.368 249.576,191.038 250.071,190.662L264.968,179.341C264.968,179.341 276.739,173.296 276.739,173.296C277.081,173.12 277.412,172.925 277.732,172.712L290.378,164.251C292.933,162.645 296.757,161.999 301.709,161.706C301.724,161.706 314.528,161.294 314.528,161.294C314.701,161.288 314.873,161.278 315.045,161.264L334.884,159.595C334.884,159.595 341.203,162.205 341.203,162.205C341.571,162.357 341.948,162.487 342.332,162.594L349.35,164.554C349.35,164.553 353.868,168.104 353.868,168.104C354.873,168.894 356.021,169.484 357.248,169.841L365.374,172.21C365.374,172.21 372.371,174.957 372.371,174.957C373.535,175.414 374.774,175.648 376.025,175.648L377.736,175.648C381.725,175.648 386.418,173.792 390.49,168.658C392.542,168.334 395.263,167.279 397.774,164.484C399.588,162.464 402.286,157.413 404.896,154.676C412.316,150.997 414.779,145.586 414.779,140.641C414.779,135.824 412.927,132.403 410.173,129.995C407.934,128.036 404.755,126.551 400.334,126.484C400.35,126.485 395.143,126.193 395.143,126.193C395.143,126.193 386.087,121.85 386.087,121.85C385.307,121.476 384.482,121.205 383.631,121.043L379.257,120.211C376.188,119.628 373.118,120.517 370.864,122.459C369.008,120.648 366.506,119.619 363.884,119.619L358.668,119.619C358.668,119.619 341.082,117.216 341.082,117.216C339.946,117.061 338.792,117.102 337.67,117.338L328.28,119.312C328.28,119.312 313.001,120.922 313.001,120.922C311.855,121.043 310.738,121.361 309.7,121.863L303.465,124.874C303.465,124.874 288.696,125.237 288.696,125.237C288.325,125.246 287.955,125.276 287.588,125.326C282.941,125.961 276.672,127.781 268.831,130.956C268.474,131.101 268.125,131.266 267.787,131.451L263.983,133.53C263.491,133.799 263.023,134.109 262.583,134.457L259.159,137.16C259.078,137.224 258.998,137.289 258.92,137.355L258.498,137.709C258.498,137.709 254.1,138.489 254.1,138.489C252.345,138.8 250.706,139.574 249.351,140.732L244.355,144.999C244.355,144.999 227.595,152.522 227.595,152.522C225.546,153.441 223.867,155.023 222.827,157.013L220.72,161.043C220.72,161.043 212.959,167.451 212.959,167.451C212.145,168.123 211.442,168.92 210.877,169.812L206.38,176.914C206.38,176.914 202.293,180.867 202.293,180.867C201.495,181.638 200.832,182.537 200.33,183.525L195.92,192.203C195.92,192.203 186.787,204.93 186.787,204.93C185.4,206.749 184.028,209.738 184.028,214.258C184.028,214.432 184.033,214.606 184.042,214.78L184.073,215.385C184.073,215.385 182.688,216.045 182.688,216.045C179.992,217.33 178.011,219.753 177.288,222.652L176.396,226.228C174.062,231.185 173.376,234.587 173.376,236.094C173.376,236.149 173.377,236.204 173.377,236.258C172.12,238.781 171.199,241.33 170.597,243.896C169.899,246.872 169.305,251.068 168.877,256.493C168.877,256.486 166.673,269.34 166.673,269.34C166.291,271.568 166.675,273.86 167.762,275.842L168.103,276.463C167.296,279.961 166.909,283.282 166.909,286.419C166.909,289.651 167.139,292.054 167.453,293.64L169.861,308.685ZM383.666,385.823L384.046,388.111L376.628,389.358L370.731,388.942L370.351,388.942C368.703,388.942 365.849,389.913 361.792,391.854L357.988,394.349C355.578,392.963 353.486,392.27 351.711,392.27L347.716,392.686L339.918,393.933L325.652,395.181L318.614,401.004L317.854,394.349L298.833,397.885L292.936,395.805C291.541,395.25 288.562,394.696 283.997,394.141L285.138,389.774L278.481,387.279L265.356,378.337L257.938,375.425L253.563,371.058L249.759,368.563L244.623,364.611L237.586,366.483L234.923,364.195L239.488,361.284L237.586,359.204L236.064,354.837C234.669,350.817 233.274,348.044 231.88,346.519C230.485,344.994 228.646,344.232 226.363,344.232L224.271,344.232L221.989,340.072L223.51,332.378L219.326,324.268L215.331,310.126L213.429,305.967L208.484,308.047C207.85,307.215 207.533,306.383 207.533,305.551C207.533,303.749 208.738,301.739 211.147,299.521C210.386,297.58 210.006,295.569 210.006,293.49L210.006,288.083L204.109,286.003C202.08,283.508 201.066,281.636 201.066,280.389C201.066,278.586 202.587,276.576 205.631,274.358L204.87,271.03L206.392,271.862L207.533,268.119L207.533,263.752L206.772,259.177L208.484,251.482L210.766,245.036L217.043,222.784L218.945,217.793L217.804,211.763C220.087,210.376 221.989,208.227 223.51,205.316L227.124,200.325C226.11,198.523 225.603,196.79 225.603,195.126C225.603,191.66 228.709,189.303 234.923,188.055L237.363,186.028L244.02,182.701L259.617,170.847L272.171,164.4L284.915,155.874C288.592,153.517 294.045,152.131 301.273,151.715L314.207,151.299L336.461,149.427L345.021,152.963L353.96,155.458L360.047,160.241L368.606,162.737L376.025,165.648L377.736,165.648C380.526,165.648 383.126,162.945 385.535,157.538L388.959,158.785C390.734,158.785 395.332,149.583 399.263,146.256C402.94,144.731 404.779,142.859 404.779,140.641C404.779,137.868 403.194,136.482 400.024,136.482L392.605,136.066L381.764,130.867L377.389,130.035L376.628,131.699L374.726,131.699C373.077,134.333 371.365,135.65 369.59,135.65C369.083,135.65 367.181,133.64 363.884,129.619L357.988,129.619L339.728,127.124L329.837,129.204L314.049,130.867L305.87,134.818L288.942,135.234C284.884,135.789 279.432,137.452 272.584,140.225L268.78,142.305L265.356,145.008L262.883,147.088L255.846,148.336L249.759,153.535L231.689,161.645L228.646,167.468L219.326,175.162L214.19,183.272L209.245,188.055L204.49,197.414L194.789,210.931C194.282,211.485 194.028,212.594 194.028,214.258L194.409,221.537L186.99,225.072L185.849,229.647C184.201,232.974 183.376,235.123 183.376,236.094C183.376,236.925 183.503,237.619 183.757,238.173C182.108,240.807 180.967,243.476 180.333,246.18C179.699,248.883 179.192,252.73 178.811,257.721L176.529,271.03L178.811,275.19C177.543,279.21 176.909,282.953 176.909,286.419C176.909,288.915 177.036,290.717 177.29,291.826L179.953,308.463L179.953,308.879C179.699,310.265 179.572,311.582 179.572,312.83C179.572,314.632 180.206,316.573 181.474,318.653L184.708,326.347L191.555,327.595L193.648,330.714C193.394,334.458 192.316,338.27 190.414,342.152L193.267,349.43L198.593,357.957L203.348,363.78L208.484,375.009L217.043,383.951L218.945,386.031C219.453,386.586 220.087,386.863 220.847,386.863C221.989,386.863 223.827,386.308 226.363,385.199C228.392,387.695 229.534,390.814 229.787,394.557L233.782,396.637C237.079,398.855 239.424,399.964 240.819,399.964C241.453,399.964 243.229,399.271 246.145,397.885C247.413,399.548 249.252,400.38 251.661,400.38L253.183,405.579L258.318,406.827L268.78,408.906L276.198,410.778L303.778,412.026L315.952,413.689L319.756,414.105C324.955,414.105 330.915,412.234 337.635,408.49L345.814,409.322L347.146,409.322L371.683,405.995L391.464,405.995L404.398,401.004L417.523,403.083L422.658,399.964L425.321,399.548L428.935,399.964C430.71,396.498 431.598,392.686 431.598,388.526L431.218,384.783L431.598,371.474L421.897,362.116C421.897,358.511 422.341,356.189 423.229,355.149C424.117,354.11 426.019,353.451 428.935,353.174C429.95,349.569 430.457,345.757 430.457,341.736C430.457,337.854 429.569,334.596 427.794,331.962L425.702,321.772C427.223,320.386 428.206,319.173 428.65,318.133C429.094,317.093 429.316,315.464 429.316,313.246L428.935,308.879L429.316,301.184L426.843,301.184L426.843,297.441C429.506,295.916 430.837,294.183 430.837,292.242C430.837,289.331 429.379,285.241 426.462,279.973L421.137,279.557L376.247,282.468L373.204,282.468C369.907,282.468 366.42,281.636 362.743,279.973L359.89,283.3C358.495,285.934 357.544,287.459 357.036,287.875C356.529,288.291 355.388,288.776 353.613,289.331L352.471,295.362C354.627,296.193 355.959,296.609 356.466,296.609L364.645,295.777L368.449,295.362L378.15,296.193L392.605,297.441L396.6,297.857L395.839,302.432L396.6,310.126L397.361,314.494C400.15,316.712 401.545,319.277 401.545,322.188L401.545,323.852L398.502,331.13L400.024,354.421L399.643,370.642L401.165,377.089C401.165,379.723 398.946,381.872 394.507,383.535L393.747,382.08C391.971,384.021 390.735,385.234 390.038,385.719C389.34,386.204 387.343,387.001 384.046,388.111L383.666,385.823L390.845,384.629L381.737,379.161L376.084,387.084L383.666,385.823Z"/>
				<path d="M649.006,362.532C649.006,364.334 648.689,365.928 648.055,367.315L644.251,374.593L635.311,391.438L627.132,392.062L621.996,396.637C620.855,397.885 618.89,398.716 616.1,399.132L581.863,406.411L576.537,408.49L564.363,407.243L546.864,408.906L527.083,407.659L521.567,407.659C518.777,405.302 517.065,403.915 516.431,403.499L497.791,396.221L491.514,389.774L479.15,380.416L469.259,366.067L465.455,362.532C466.977,359.204 467.738,356.224 467.738,353.59C467.738,352.48 467.484,351.649 466.977,351.094L461.841,342.152L460.7,330.298L460.319,320.732C460.319,317.544 461.017,313.315 462.412,308.047C464.567,299.729 466.343,294.738 467.738,293.074L474.775,283.3L478.389,274.358L487.329,265L497.03,251.067L505.589,245.868L517.953,236.51L526.132,230.479L528.985,228.399L534.691,227.151L552,221.121L565.505,219.457L573.684,215.714L577.678,215.298C584.145,215.298 589.598,219.11 594.036,226.736C596.445,226.458 598.22,225.003 599.362,222.368L604.497,227.151L611.535,231.311L627.512,248.363C629.541,251.136 631.095,253.527 632.173,255.538C633.25,257.548 634.328,259.662 635.406,261.88C636.484,264.099 637.435,266.525 638.259,269.159C639.083,271.793 640.32,275.814 641.968,281.22L643.49,286.419L641.588,287.251L634.17,285.588L625.991,288.499L619.714,287.251L612.676,289.331L599.362,287.667L586.618,288.499L573.303,286.003L551.619,286.419L540.968,286.003L515.29,289.747L505.969,289.331L493.035,293.49L488.47,294.53L487.709,299.521C487.456,302.987 487.012,305.343 486.378,306.591C485.744,307.839 484.349,309.295 482.193,310.958L482.574,314.91C486.758,318.375 488.978,320.524 489.231,321.356L494.177,342.568L496.649,347.767C495.381,349.153 494.747,350.401 494.747,351.51L495.128,352.342L502.355,354.837L504.067,360.036C505.335,364.889 506.984,367.869 509.013,368.978L519.284,373.554L522.708,381.664C524.483,382.634 527.336,383.397 531.267,383.951L533.93,389.358L539.827,390.19L556.184,396.637L569.879,393.725L606.019,387.279L613.817,382.08L625.991,373.969L636.072,359.62C637.847,357.264 639.939,356.085 642.349,356.085C646.787,356.085 649.006,358.234 649.006,362.532ZM604.117,264.584C604.117,262.366 601.771,257.721 597.079,250.651L583.955,240.253L579.58,235.262L573.303,234.846L558.847,233.598L555.424,234.43L547.245,239.421L536.783,242.124L523.469,247.531L518.333,249.611L512.246,259.593C508.442,262.504 506.35,264.307 505.969,265L505.209,267.495L528.604,269.367L531.267,268.951L535.642,267.495L539.827,268.535L551.049,271.03L551.619,271.03L564.363,268.535L568.358,267.495L571.401,272.278L575.776,272.278L592.514,268.535L599.362,269.367C602.532,268.951 604.117,267.357 604.117,264.584Z" style="fill:white;fill-rule:nonzero;"/>
				<path d="M457.603,354.851C457.396,355.93 456.946,357.094 456.361,358.373C454.568,362.294 455.49,366.922 458.648,369.857L461.648,372.646C461.648,372.646 470.917,386.091 470.917,386.091C471.522,386.97 472.264,387.746 473.115,388.39L484.876,397.292C484.876,397.292 490.626,403.197 490.626,403.197C491.621,404.219 492.824,405.017 494.153,405.536L511.586,412.343C512.308,412.921 513.476,413.914 515.113,415.297C516.918,416.822 519.204,417.659 521.567,417.659L526.767,417.659C526.767,417.659 546.235,418.886 546.235,418.886C546.76,418.92 547.287,418.911 547.811,418.861L564.326,417.291C564.326,417.291 575.517,418.438 575.517,418.438C577.098,418.6 578.694,418.383 580.174,417.805L584.74,416.023C584.74,416.023 617.909,408.971 617.909,408.971C623.063,408.146 626.613,406.162 628.922,403.859C628.917,403.865 631.261,401.776 631.261,401.776C631.261,401.776 636.072,401.409 636.072,401.409C639.49,401.148 642.537,399.154 644.144,396.126L653.084,379.281L656.917,371.947C656.999,371.791 657.076,371.633 657.149,371.474C658.336,368.877 659.006,365.907 659.006,362.532C659.006,357.107 657.099,353.225 654.298,350.513C651.603,347.903 647.739,346.085 642.349,346.085C636.956,346.085 632.058,348.328 628.084,353.604C628.018,353.692 627.953,353.781 627.889,353.872L618.886,366.687L608.271,373.759L602.208,377.801C602.208,377.801 568.123,383.881 568.123,383.881C568.015,383.9 567.907,383.921 567.8,383.944L557.05,386.229C557.05,386.229 543.493,380.887 543.493,380.887C542.763,380.599 542.001,380.398 541.223,380.288L540.564,380.195C540.564,380.195 540.238,379.533 540.238,379.533C538.776,376.565 535.94,374.512 532.664,374.049C531.747,373.92 530.92,373.803 530.19,373.674C530.189,373.674 528.497,369.664 528.497,369.664C527.51,367.327 525.671,365.451 523.353,364.419L514.848,360.63C514.536,359.884 514.022,358.577 513.742,357.508C513.69,357.306 513.631,357.107 513.566,356.909L511.854,351.71C510.969,349.022 508.993,346.849 506.432,345.711C506.276,344.947 506.024,344.196 505.68,343.472L503.67,339.247C503.67,339.247 498.97,319.086 498.97,319.086C498.919,318.869 498.861,318.653 498.796,318.44C498.51,317.499 497.96,316.158 496.784,314.621C496.34,314.041 495.628,313.253 494.632,312.275C494.887,311.876 495.106,311.49 495.293,311.121C496.125,309.484 496.983,306.661 497.463,302.571L507.319,299.401C507.319,299.401 514.844,299.737 514.844,299.737C515.475,299.765 516.107,299.733 516.732,299.642L541.498,296.032C541.498,296.032 551.229,296.412 551.229,296.412C551.423,296.419 551.617,296.421 551.811,296.418L572.469,296.021C572.469,296.021 584.776,298.328 584.776,298.328C585.597,298.482 586.435,298.532 587.269,298.478L599.065,297.708C599.065,297.708 611.436,299.254 611.436,299.254C612.803,299.424 614.19,299.311 615.51,298.921L620.183,297.54C620.183,297.54 624.041,298.307 624.041,298.307C625.811,298.659 627.644,298.525 629.344,297.92L634.801,295.977C634.801,295.977 639.4,297.009 639.4,297.009C641.475,297.474 643.646,297.266 645.595,296.413L647.497,295.582C652.106,293.566 654.501,288.439 653.087,283.61L651.566,278.411C651.555,278.376 651.544,278.34 651.534,278.304C649.876,272.866 648.632,268.822 647.803,266.173C646.822,263.037 645.684,260.151 644.4,257.51C643.262,255.168 642.124,252.935 640.986,250.812C639.732,248.474 637.942,245.683 635.583,242.458C635.344,242.132 635.086,241.821 634.81,241.526L618.832,224.473C618.184,223.781 617.44,223.184 616.623,222.702L610.519,219.094C610.519,219.094 606.177,215.051 606.177,215.051C603.8,212.837 600.495,211.915 597.316,212.58C596.866,212.674 596.427,212.798 596.001,212.954C590.605,207.688 584.387,205.298 577.678,205.298C577.332,205.298 576.986,205.316 576.642,205.352L572.648,205.768C571.566,205.88 570.511,206.168 569.522,206.621L562.748,209.721C562.748,209.721 550.777,211.196 550.777,211.196C550.073,211.282 549.38,211.444 548.71,211.677L531.968,217.511C531.968,217.511 526.848,218.63 526.848,218.63C525.494,218.926 524.215,219.501 523.094,220.318L520.197,222.43L512.018,228.461C511.984,228.486 511.951,228.511 511.917,228.536L499.961,237.586C499.961,237.586 491.838,242.52 491.838,242.52C490.647,243.243 489.619,244.209 488.823,245.353L479.564,258.651C479.564,258.651 471.158,267.45 471.158,267.45C470.284,268.365 469.592,269.438 469.118,270.611L465.956,278.435C465.956,278.435 459.622,287.231 459.622,287.231L460.075,286.649C458.297,288.769 455.485,294.92 452.738,305.512C451.068,311.826 450.319,316.909 450.319,320.732C450.319,320.865 450.322,320.997 450.327,321.13L450.708,330.696C450.715,330.883 450.728,331.07 450.746,331.257L451.887,343.11C452.024,344.527 452.461,345.898 453.17,347.132L457.603,354.851ZM649.006,362.532C649.006,364.334 648.689,365.928 648.055,367.315L644.251,374.593L635.311,391.438L627.132,392.062L621.996,396.637C620.855,397.885 618.89,398.716 616.1,399.132L581.863,406.411L576.537,408.49L564.363,407.243L546.864,408.906L527.083,407.659L521.567,407.659C518.777,405.302 517.065,403.915 516.431,403.499L497.791,396.221L491.514,389.774L479.15,380.416L469.259,366.067L465.455,362.532C466.977,359.204 467.738,356.224 467.738,353.59C467.738,352.48 467.484,351.649 466.977,351.094L461.841,342.152L460.7,330.298L460.319,320.732C460.319,317.544 461.017,313.315 462.412,308.047C464.567,299.729 466.343,294.738 467.738,293.074L474.775,283.3L478.389,274.358L487.329,265L497.03,251.067L505.589,245.868L517.953,236.51L526.132,230.479L528.985,228.399L534.691,227.151L552,221.121L565.505,219.457L573.684,215.714L577.678,215.298C584.145,215.298 589.598,219.11 594.036,226.736C596.445,226.458 598.22,225.003 599.362,222.368L604.497,227.151L611.535,231.311L627.512,248.363C629.541,251.136 631.095,253.527 632.173,255.538C633.25,257.548 634.328,259.662 635.406,261.88C636.484,264.099 637.435,266.525 638.259,269.159C639.083,271.793 640.32,275.814 641.968,281.22L643.49,286.419L641.588,287.251L634.17,285.588L625.991,288.499L619.714,287.251L612.676,289.331L599.362,287.667L586.618,288.499L573.303,286.003L551.619,286.419L540.968,286.003L515.29,289.747L505.969,289.331L493.035,293.49L488.47,294.53L487.709,299.521C487.456,302.987 487.012,305.343 486.378,306.591C485.744,307.839 484.349,309.295 482.193,310.958L482.574,314.91C486.758,318.375 488.978,320.524 489.231,321.356L494.177,342.568L496.649,347.767C495.381,349.153 494.747,350.401 494.747,351.51L495.128,352.342L502.355,354.837L504.067,360.036C505.335,364.889 506.984,367.869 509.013,368.978L519.284,373.554L522.708,381.664C524.483,382.634 527.336,383.397 531.267,383.951L533.93,389.358L539.827,390.19L556.184,396.637L569.879,393.725L606.019,387.279L613.817,382.08L625.991,373.969L636.072,359.62C637.847,357.264 639.939,356.085 642.349,356.085C646.787,356.085 649.006,358.234 649.006,362.532ZM458.555,356.483C458.71,356.743 458.881,356.984 459.057,357.21C459.234,357.436 459.417,357.646 459.598,357.843C459.211,357.421 458.862,356.966 458.555,356.483ZM604.117,264.584C604.117,262.366 601.771,257.721 597.079,250.651L583.955,240.253L579.58,235.262L573.303,234.846L558.847,233.598L555.424,234.43L547.245,239.421L536.783,242.124L523.469,247.531L518.333,249.611L512.246,259.593C508.442,262.504 506.35,264.307 505.969,265L505.209,267.495L528.604,269.367L531.267,268.951L535.642,267.495L539.827,268.535L551.049,271.03L551.619,271.03L564.363,268.535L568.358,267.495L571.401,272.278L575.776,272.278L592.514,268.535L599.362,269.367C602.532,268.951 604.117,267.357 604.117,264.584ZM590.377,258.767L590.332,258.776L576.607,261.845C574.234,258.376 569.929,256.753 565.839,257.818L562.141,258.78L551.446,260.875L542.118,258.8C542.118,258.8 538.053,257.79 538.053,257.79C536.214,257.333 534.283,257.408 532.485,258.007L528.901,259.199C528.901,259.199 528.226,259.305 528.226,259.305L524.325,258.993L525.15,257.639L527.231,256.796L539.929,251.64C539.929,251.64 549.747,249.103 549.747,249.103C550.7,248.856 551.613,248.47 552.454,247.957L559.301,243.779C559.301,243.779 559.618,243.702 559.618,243.702C559.618,243.702 572.443,244.809 572.443,244.809C572.509,244.815 572.576,244.82 572.642,244.824L574.789,244.966C574.788,244.966 576.435,246.844 576.435,246.844C576.833,247.299 577.271,247.716 577.745,248.091L589.578,257.466L590.377,258.767Z"/>
				<path d="M849.866,391.022L847.964,397.053L821.715,410.778C818.164,405.787 816.389,402.668 816.389,401.42L816.389,400.38L820.954,380.416L821.335,371.474L822.856,371.89L826.09,367.731C825.202,365.513 824.346,364.057 823.522,363.364C822.698,362.67 821.208,361.839 819.052,360.868L818.291,357.541L821.335,318.653L819.432,313.246L819.813,306.383L819.813,290.578L822.095,282.884L818.672,279.141L819.052,266.663C817.657,262.088 815.311,257.721 812.014,253.562L812.014,251.482C812.014,249.68 811.507,248.363 810.493,247.531L805.737,247.115L796.037,240.669L780.44,241.708L762.56,240.253C761.039,241.085 759.327,242.818 757.425,245.452L754.001,244.62L739.165,247.531L733.839,248.779L727.182,254.394L718.622,258.553C714.438,260.771 712.092,264.099 711.584,268.535L711.204,288.915L708.731,301.6L712.726,314.078L712.726,320.732L712.345,345.479L708.731,354.006L708.351,357.125L708.351,358.373L711.965,365.027L713.106,387.695L714.628,394.973C714.628,395.805 714.247,396.879 713.487,398.196C712.726,399.514 711.711,400.449 710.443,401.004L697.889,404.331L694.466,405.163C692.437,408.906 690.471,410.778 688.569,410.778C687.301,410.778 685.97,410.015 684.575,408.49C684.448,408.213 684.29,407.936 684.099,407.659C683.909,407.381 683.687,407.104 683.434,406.827C682.926,405.718 682.673,405.302 682.673,405.579L685.526,390.19L685.146,372.722L687.048,365.651L685.526,354.006L686.287,341.32L686.667,314.494C686.667,310.889 688.886,308.879 693.324,308.463C692.944,305.413 692.278,303.507 691.327,302.744C690.376,301.981 688.316,301.6 685.146,301.6L685.526,264.168L689.711,261.256L687.428,256.889L682.292,241.708L678.869,236.925L681.151,232.35L685.146,227.151L691.993,223.824L698.65,218.209C700.552,216.546 702.898,215.714 705.688,215.714C707.336,215.714 708.922,216.234 710.443,217.273C711.965,218.313 712.853,219.457 713.106,220.705L713.487,240.253L714.247,246.699L717.861,245.452C722.426,239.352 727.784,233.633 733.934,228.295C740.084,222.958 744.681,220.289 747.724,220.289C749.372,220.289 750.704,221.745 751.718,224.656C754.254,223.824 757.234,222.23 760.658,219.873C764.336,217.655 767.442,216.546 769.978,216.546L771.12,216.546L786.717,218.209L792.613,216.13L810.112,218.625C816.072,219.457 820.764,221.745 824.188,225.488L826.851,225.072C830.908,225.072 834.269,227.013 836.932,230.895L839.785,236.094L843.589,242.956C845.364,245.313 846.252,250.373 846.252,258.137L846.252,269.783L847.013,274.774L842.448,281.22L843.969,286.419L846.252,290.994L846.252,299.521C846.252,300.63 846.125,301.462 845.871,302.016L843.208,308.047C842.701,309.156 842.448,311.166 842.448,314.078L846.252,319.485L845.871,325.515L845.491,340.072L845.491,341.736L848.344,349.846L848.725,368.563L849.866,391.022Z" style="fill:white;fill-rule:nonzero;"/>
				<path d="M677.375,258.379L673.296,246.321L670.737,242.746C668.581,239.734 668.267,235.776 669.92,232.461L672.203,227.886C672.489,227.312 672.83,226.767 673.221,226.258L677.216,221.059C678.161,219.829 679.38,218.835 680.775,218.157C680.775,218.157 686.5,215.375 686.5,215.375C686.5,215.375 692.146,210.614 692.127,210.629C695.81,207.433 700.301,205.714 705.688,205.714C709.281,205.714 712.768,206.75 716.085,209.017C720.238,211.855 722.214,215.307 722.906,218.713C723.026,219.305 723.092,219.906 723.104,220.51L723.183,224.548C724.541,223.26 725.94,221.992 727.379,220.743C736.201,213.086 743.359,210.289 747.724,210.289C749.877,210.289 752.178,210.783 754.332,212.082C754.548,211.937 754.766,211.788 754.988,211.636C755.153,211.522 755.321,211.414 755.493,211.31C761.159,207.892 766.071,206.546 769.978,206.546L771.12,206.546C771.474,206.546 771.828,206.564 772.18,206.602C772.18,206.602 785.526,208.026 785.526,208.026L789.287,206.699C790.806,206.164 792.431,206.003 794.025,206.23C794.025,206.23 811.518,208.725 811.518,208.725C817.914,209.621 823.238,211.793 827.567,215.083C834.563,215.284 840.541,218.479 845.178,225.238C845.365,225.511 845.539,225.793 845.698,226.084C845.698,226.084 848.541,231.264 848.541,231.264C848.541,231.264 852.155,237.783 852.147,237.77C854.399,241.351 856.252,248.044 856.252,258.137C856.252,258.137 856.252,269.025 856.252,269.025L856.898,273.267C857.289,275.827 856.67,278.439 855.174,280.553L853.44,283.002L855.2,286.53C855.892,287.917 856.252,289.445 856.252,290.994L856.252,299.521C856.252,302.445 855.668,304.607 855.014,306.068L852.71,311.285L854.43,313.73C855.74,315.591 856.375,317.843 856.232,320.114C856.232,320.114 855.863,325.961 855.863,325.961L855.495,340.04L857.777,346.528C858.13,347.53 858.32,348.581 858.342,349.643C858.342,349.643 858.719,368.207 858.719,368.207L859.853,390.514C859.913,391.704 859.761,392.894 859.403,394.03L857.501,400.061C856.705,402.584 854.942,404.689 852.597,405.914L826.349,419.64C821.921,421.955 816.463,420.646 813.567,416.575C810.548,412.332 808.652,409.162 807.747,407.146C806.639,404.68 806.389,402.718 806.389,401.42L806.389,400.38C806.389,399.63 806.474,398.882 806.641,398.151C806.641,398.151 811.002,379.078 811.002,379.078L811.344,371.049C811.389,369.971 811.608,368.922 811.984,367.938C810.668,366.626 809.728,364.955 809.304,363.097L808.543,359.77C808.317,358.784 808.243,357.769 808.322,356.761C808.322,356.761 811.2,319.979 811.2,319.979L809.999,316.564C809.562,315.323 809.375,314.007 809.448,312.692C809.448,312.692 809.813,306.106 809.813,306.106L809.813,290.578C809.813,289.616 809.952,288.658 810.226,287.735L810.907,285.439C809.398,283.583 808.603,281.24 808.676,278.836C808.676,278.836 809.002,268.145 809.002,268.143C807.924,265.236 806.302,262.454 804.178,259.774C803.415,258.812 802.841,257.724 802.479,256.568C801.678,256.293 800.913,255.916 800.203,255.444C800.203,255.444 793.323,250.872 793.323,250.872L781.105,251.686C780.613,251.719 780.12,251.716 779.628,251.676L766.101,250.574C765.899,250.819 765.703,251.069 765.532,251.306C763.152,254.602 759.014,256.129 755.064,255.169C755.064,255.169 753.773,254.855 753.773,254.855C753.773,254.855 741.269,257.309 741.269,257.309C741.269,257.309 738.454,257.969 738.454,257.969L733.629,262.038C732.995,262.572 732.298,263.026 731.552,263.388C731.552,263.388 723.189,267.452 723.182,267.456C722.352,267.921 721.766,268.523 721.571,269.373L721.202,289.101C721.191,289.681 721.13,290.259 721.019,290.828C721.019,290.828 719.038,300.995 719.038,300.995L722.25,311.029C722.565,312.014 722.726,313.043 722.726,314.078L722.726,320.732C722.726,320.784 722.725,320.835 722.725,320.886L722.344,345.633C722.324,346.922 722.055,348.195 721.552,349.382L718.613,356.316L720.753,360.255C721.467,361.57 721.877,363.029 721.952,364.524C721.952,364.524 723.054,386.412 723.054,386.412L724.416,392.927C724.557,393.6 724.628,394.286 724.628,394.973C724.628,397.063 724.057,399.889 722.146,403.199C720.238,406.501 717.629,408.776 714.45,410.166C713.982,410.371 713.499,410.539 713.005,410.67L700.657,413.943C696.622,419.136 692.058,420.778 688.569,420.778C685.084,420.778 681.029,419.431 677.196,415.24C676.654,414.647 676.187,413.993 675.803,413.29C675.309,412.706 674.883,412.069 674.536,411.388C673.359,409.746 672.673,407.737 672.673,405.579C672.673,404.582 672.794,403.707 672.991,402.943L675.506,389.379L675.148,372.939C675.127,371.989 675.242,371.041 675.489,370.124C675.489,370.124 676.874,364.974 676.874,364.974L675.61,355.301C675.528,354.673 675.506,354.039 675.544,353.407C675.544,353.407 676.291,340.95 676.291,340.95C676.291,340.95 676.667,314.409 676.667,314.413C676.677,312.155 677.078,310.149 677.791,308.373C676.069,306.506 675.12,304.048 675.146,301.499L675.526,264.066C675.547,261.999 676.207,260.019 677.375,258.379ZM692.25,408.535C691.982,409.432 691.609,410.162 691.23,410.753C691.637,410.083 691.968,409.358 692.208,408.587C690.97,410.048 689.757,410.778 688.569,410.778C687.301,410.778 685.97,410.015 684.575,408.49C684.448,408.213 684.29,407.936 684.099,407.659C683.909,407.381 683.687,407.104 683.434,406.827C682.993,405.862 682.743,405.422 682.686,405.506L682.673,405.579C682.673,405.543 682.677,405.518 682.686,405.506L685.526,390.19L685.146,372.722L687.048,365.651L685.526,354.006L686.287,341.32L686.667,314.494C686.667,310.889 688.886,308.879 693.324,308.463C692.944,305.413 692.278,303.507 691.327,302.744C690.376,301.981 688.316,301.6 685.146,301.6L685.526,264.168L689.711,261.256L687.428,256.889L682.292,241.708L678.869,236.925L681.151,232.35L685.146,227.151L691.993,223.824L698.65,218.209C700.552,216.546 702.898,215.714 705.688,215.714C707.336,215.714 708.922,216.234 710.443,217.273C711.965,218.313 712.853,219.457 713.106,220.705L713.487,240.253L714.247,246.699L717.861,245.452C722.426,239.352 727.784,233.633 733.934,228.295C740.084,222.958 744.681,220.289 747.724,220.289C749.372,220.289 750.704,221.745 751.718,224.656C754.254,223.824 757.234,222.23 760.658,219.873C764.336,217.655 767.442,216.546 769.978,216.546L771.12,216.546L786.717,218.209L792.613,216.13L810.112,218.625C816.072,219.457 820.764,221.745 824.188,225.488L826.851,225.072C830.908,225.072 834.269,227.013 836.932,230.895L839.785,236.094L843.589,242.956C845.364,245.313 846.252,250.373 846.252,258.137L846.252,269.783L847.013,274.774L842.448,281.22L843.969,286.419L846.252,290.994L846.252,299.521C846.252,300.63 846.125,301.462 845.871,302.016L843.208,308.047C842.701,309.156 842.448,311.166 842.448,314.078L846.252,319.485L845.871,325.515L845.491,340.072L845.491,341.736L848.344,349.846L848.725,368.563L849.866,391.022L847.964,397.053L821.715,410.778C818.164,405.787 816.389,402.668 816.389,401.42L816.389,400.38L820.954,380.416L821.335,371.474L822.856,371.89L826.09,367.731C825.202,365.513 824.346,364.057 823.522,363.364C822.698,362.67 821.208,361.839 819.052,360.868L818.291,357.541L821.335,318.653L819.432,313.246L819.813,306.383L819.813,290.578L822.095,282.884L818.672,279.141L819.052,266.663C817.657,262.088 815.311,257.721 812.014,253.562L812.014,251.482C812.014,249.68 811.507,248.363 810.493,247.531L805.737,247.115L796.037,240.669L780.44,241.708L762.56,240.253C761.039,241.085 759.327,242.818 757.425,245.452L754.001,244.62L739.165,247.531L733.839,248.779L727.182,254.394L718.622,258.553C714.438,260.771 712.092,264.099 711.584,268.535L711.204,288.915L708.731,301.6L712.726,314.078L712.726,320.732L712.345,345.479L708.731,354.006L708.351,357.125L708.351,358.373L711.965,365.027L713.106,387.695L714.628,394.973C714.628,395.805 714.247,396.879 713.487,398.196C712.726,399.514 711.711,400.449 710.443,401.004L697.889,404.331L694.466,405.163C693.719,406.541 692.981,407.665 692.25,408.535Z"/>
				<path d="M1069.56,362.532C1069.56,364.334 1069.24,365.928 1068.61,367.315L1064.8,374.593L1055.86,391.438L1047.68,392.062L1042.55,396.637C1041.4,397.885 1039.44,398.716 1036.65,399.132L1002.41,406.411L997.087,408.49L984.914,407.243L967.414,408.906L947.633,407.659L942.117,407.659C939.327,405.302 937.615,403.915 936.981,403.499L918.341,396.221L912.064,389.774L899.7,380.416L889.809,366.067L886.005,362.532C887.527,359.204 888.288,356.224 888.288,353.59C888.288,352.48 888.034,351.649 887.527,351.094L882.391,342.152L881.25,330.298L880.87,320.732C880.87,317.544 881.567,313.315 882.962,308.047C885.118,299.729 886.893,294.738 888.288,293.074L895.326,283.3L898.939,274.358L907.879,265L917.58,251.067L926.139,245.868L938.503,236.51L946.682,230.479L949.535,228.399L955.241,227.151L972.55,221.121L986.055,219.457L994.234,215.714L998.228,215.298C1004.7,215.298 1010.15,219.11 1014.59,226.736C1017,226.458 1018.77,225.003 1019.91,222.368L1025.05,227.151L1032.09,231.311L1048.06,248.363C1050.09,251.136 1051.64,253.527 1052.72,255.538C1053.8,257.548 1054.88,259.662 1055.96,261.88C1057.03,264.099 1057.99,266.525 1058.81,269.159C1059.63,271.793 1060.87,275.814 1062.52,281.22L1064.04,286.419L1062.14,287.251L1054.72,285.588L1046.54,288.499L1040.26,287.251L1033.23,289.331L1019.91,287.667L1007.17,288.499L993.853,286.003L972.17,286.419L961.518,286.003L935.84,289.747L926.52,289.331L913.586,293.49L909.021,294.53L908.26,299.521C908.006,302.987 907.562,305.343 906.928,306.591C906.294,307.839 904.899,309.295 902.744,310.958L903.124,314.91C907.309,318.375 909.528,320.524 909.781,321.356L914.727,342.568L917.199,347.767C915.931,349.153 915.297,350.401 915.297,351.51L915.678,352.342L922.906,354.837L924.618,360.036C925.886,364.889 927.534,367.869 929.563,368.978L939.834,373.554L943.258,381.664C945.033,382.634 947.886,383.397 951.817,383.951L954.48,389.358L960.377,390.19L976.735,396.637L990.43,393.725L1026.57,387.279L1034.37,382.08L1046.54,373.969L1056.62,359.62C1058.4,357.264 1060.49,356.085 1062.9,356.085C1067.34,356.085 1069.56,358.234 1069.56,362.532ZM1024.67,264.584C1024.67,262.366 1022.32,257.721 1017.63,250.651L1004.5,240.253L1000.13,235.262L993.853,234.846L979.398,233.598L975.974,234.43L967.795,239.421L957.333,242.124L944.019,247.531L938.883,249.611L932.797,259.593C928.992,262.504 926.9,264.307 926.52,265L925.759,267.495L949.154,269.367L951.817,268.951L956.192,267.495L960.377,268.535L971.599,271.03L972.17,271.03L984.914,268.535L988.908,267.495L991.951,272.278L996.326,272.278L1013.06,268.535L1019.91,269.367C1023.08,268.951 1024.67,267.357 1024.67,264.584Z" style="fill:white;fill-rule:nonzero;"/>
				<path d="M878.153,354.851C877.947,355.93 877.496,357.094 876.911,358.373C875.118,362.294 876.04,366.922 879.198,369.857L882.199,372.646C882.199,372.646 891.467,386.091 891.467,386.091C892.072,386.97 892.814,387.746 893.665,388.39L905.426,397.292C905.426,397.292 911.176,403.197 911.176,403.197C912.171,404.219 913.374,405.017 914.703,405.536L932.136,412.343C932.859,412.921 934.026,413.914 935.663,415.297C937.468,416.822 939.754,417.659 942.117,417.659L947.318,417.659C947.318,417.659 966.785,418.886 966.785,418.886C967.31,418.92 967.837,418.911 968.361,418.861L984.877,417.291C984.877,417.291 996.067,418.438 996.067,418.438C997.648,418.6 999.244,418.383 1000.72,417.805L1005.29,416.023C1005.29,416.023 1038.46,408.971 1038.46,408.971C1043.61,408.146 1047.16,406.162 1049.47,403.859C1049.47,403.865 1051.81,401.776 1051.81,401.776C1051.81,401.776 1056.62,401.409 1056.62,401.409C1060.04,401.148 1063.09,399.154 1064.69,396.126L1073.63,379.281L1077.47,371.947C1077.55,371.791 1077.63,371.633 1077.7,371.474C1078.89,368.877 1079.56,365.907 1079.56,362.532C1079.56,357.107 1077.65,353.225 1074.85,350.513C1072.15,347.903 1068.29,346.085 1062.9,346.085C1057.51,346.085 1052.61,348.328 1048.63,353.604C1048.57,353.692 1048.5,353.781 1048.44,353.872L1039.44,366.687L1028.82,373.759L1022.76,377.801C1022.76,377.801 988.673,383.881 988.673,383.881C988.565,383.9 988.458,383.921 988.35,383.944L977.6,386.229C977.6,386.229 964.043,380.887 964.043,380.887C963.313,380.599 962.551,380.398 961.774,380.288L961.114,380.195C961.114,380.195 960.788,379.533 960.788,379.533C959.326,376.565 956.491,374.512 953.214,374.049C952.297,373.92 951.47,373.803 950.74,373.674C950.74,373.674 949.047,369.664 949.047,369.664C948.06,367.327 946.221,365.451 943.903,364.419L935.398,360.63C935.086,359.884 934.572,358.577 934.293,357.508C934.24,357.306 934.181,357.107 934.116,356.909L932.404,351.71C931.519,349.022 929.543,346.849 926.983,345.711C926.826,344.947 926.575,344.196 926.23,343.472L924.221,339.247C924.221,339.247 919.52,319.086 919.52,319.086C919.47,318.869 919.412,318.653 919.347,318.44C919.06,317.499 918.511,316.158 917.335,314.621C916.89,314.041 916.178,313.253 915.183,312.275C915.437,311.876 915.656,311.49 915.843,311.121C916.675,309.484 917.533,306.661 918.013,302.571L927.87,299.401C927.87,299.401 935.394,299.737 935.394,299.737C936.025,299.765 936.657,299.733 937.282,299.642L962.049,296.032C962.049,296.032 971.779,296.412 971.779,296.412C971.973,296.419 972.167,296.421 972.361,296.418L993.019,296.021C993.019,296.021 1005.33,298.328 1005.33,298.328C1006.15,298.482 1006.99,298.532 1007.82,298.478L1019.62,297.708C1019.62,297.708 1031.99,299.254 1031.99,299.254C1033.35,299.424 1034.74,299.311 1036.06,298.921L1040.73,297.54C1040.73,297.54 1044.59,298.307 1044.59,298.307C1046.36,298.659 1048.19,298.525 1049.89,297.92L1055.35,295.977C1055.35,295.977 1059.95,297.009 1059.95,297.009C1062.03,297.474 1064.2,297.266 1066.14,296.413L1068.05,295.582C1072.66,293.566 1075.05,288.439 1073.64,283.61L1072.12,278.411C1072.11,278.376 1072.1,278.34 1072.08,278.304C1070.43,272.866 1069.18,268.822 1068.35,266.173C1067.37,263.037 1066.23,260.151 1064.95,257.51C1063.81,255.168 1062.67,252.935 1061.54,250.812C1060.28,248.474 1058.49,245.683 1056.13,242.458C1055.89,242.132 1055.64,241.821 1055.36,241.526L1039.38,224.473C1038.73,223.781 1037.99,223.184 1037.17,222.702L1031.07,219.094C1031.07,219.094 1026.73,215.051 1026.73,215.051C1024.35,212.837 1021.05,211.915 1017.87,212.58C1017.42,212.674 1016.98,212.798 1016.55,212.954C1011.15,207.688 1004.94,205.298 998.228,205.298C997.882,205.298 997.537,205.316 997.192,205.352L993.198,205.768C992.117,205.88 991.061,206.168 990.072,206.621L983.298,209.721C983.298,209.721 971.327,211.196 971.327,211.196C970.623,211.282 969.93,211.444 969.26,211.677L952.518,217.511C952.518,217.511 947.399,218.63 947.399,218.63C946.044,218.926 944.765,219.501 943.645,220.318L940.747,222.43L932.568,228.461C932.534,228.486 932.501,228.511 932.468,228.536L920.511,237.586C920.511,237.586 912.389,242.52 912.389,242.52C911.197,243.243 910.17,244.209 909.373,245.353L900.114,258.651C900.114,258.651 891.709,267.45 891.709,267.45C890.835,268.365 890.142,269.438 889.668,270.611L886.506,278.435C886.506,278.435 880.173,287.231 880.173,287.231L880.625,286.649C878.848,288.769 876.036,294.92 873.289,305.512C871.618,311.826 870.87,316.909 870.87,320.732C870.87,320.865 870.872,320.997 870.878,321.13L871.258,330.696C871.265,330.883 871.278,331.07 871.296,331.257L872.437,343.11C872.574,344.527 873.011,345.898 873.72,347.132L878.153,354.851ZM1069.56,362.532C1069.56,364.334 1069.24,365.928 1068.61,367.315L1064.8,374.593L1055.86,391.438L1047.68,392.062L1042.55,396.637C1041.4,397.885 1039.44,398.716 1036.65,399.132L1002.41,406.411L997.087,408.49L984.914,407.243L967.414,408.906L947.633,407.659L942.117,407.659C939.327,405.302 937.615,403.915 936.981,403.499L918.341,396.221L912.064,389.774L899.7,380.416L889.809,366.067L886.005,362.532C887.527,359.204 888.288,356.224 888.288,353.59C888.288,352.48 888.034,351.649 887.527,351.094L882.391,342.152L881.25,330.298L880.87,320.732C880.87,317.544 881.567,313.315 882.962,308.047C885.118,299.729 886.893,294.738 888.288,293.074L895.326,283.3L898.939,274.358L907.879,265L917.58,251.067L926.139,245.868L938.503,236.51L946.682,230.479L949.535,228.399L955.241,227.151L972.55,221.121L986.055,219.457L994.234,215.714L998.228,215.298C1004.7,215.298 1010.15,219.11 1014.59,226.736C1017,226.458 1018.77,225.003 1019.91,222.368L1025.05,227.151L1032.09,231.311L1048.06,248.363C1050.09,251.136 1051.64,253.527 1052.72,255.538C1053.8,257.548 1054.88,259.662 1055.96,261.88C1057.03,264.099 1057.99,266.525 1058.81,269.159C1059.63,271.793 1060.87,275.814 1062.52,281.22L1064.04,286.419L1062.14,287.251L1054.72,285.588L1046.54,288.499L1040.26,287.251L1033.23,289.331L1019.91,287.667L1007.17,288.499L993.853,286.003L972.17,286.419L961.518,286.003L935.84,289.747L926.52,289.331L913.586,293.49L909.021,294.53L908.26,299.521C908.006,302.987 907.562,305.343 906.928,306.591C906.294,307.839 904.899,309.295 902.744,310.958L903.124,314.91C907.309,318.375 909.528,320.524 909.781,321.356L914.727,342.568L917.199,347.767C915.931,349.153 915.297,350.401 915.297,351.51L915.678,352.342L922.906,354.837L924.618,360.036C925.886,364.889 927.534,367.869 929.563,368.978L939.834,373.554L943.258,381.664C945.033,382.634 947.886,383.397 951.817,383.951L954.48,389.358L960.377,390.19L976.735,396.637L990.43,393.725L1026.57,387.279L1034.37,382.08L1046.54,373.969L1056.62,359.62C1058.4,357.264 1060.49,356.085 1062.9,356.085C1067.34,356.085 1069.56,358.234 1069.56,362.532ZM879.105,356.483C879.261,356.743 879.431,356.984 879.607,357.21C879.784,357.436 879.967,357.646 880.148,357.843C879.762,357.421 879.412,356.966 879.105,356.483ZM1024.67,264.584C1024.67,262.366 1022.32,257.721 1017.63,250.651L1004.5,240.253L1000.13,235.262L993.853,234.846L979.398,233.598L975.974,234.43L967.795,239.421L957.333,242.124L944.019,247.531L938.883,249.611L932.797,259.593C928.992,262.504 926.9,264.307 926.52,265L925.759,267.495L949.154,269.367L951.817,268.951L956.192,267.495L960.377,268.535L971.599,271.03L972.17,271.03L984.914,268.535L988.908,267.495L991.951,272.278L996.326,272.278L1013.06,268.535L1019.91,269.367C1023.08,268.951 1024.67,267.357 1024.67,264.584ZM1010.93,258.767L1010.88,258.776L997.158,261.845C994.784,258.376 990.479,256.753 986.389,257.818L982.691,258.78L971.996,260.875L962.668,258.8C962.668,258.8 958.604,257.79 958.604,257.79C956.764,257.333 954.833,257.408 953.035,258.007L949.451,259.199C949.451,259.199 948.776,259.305 948.776,259.305L944.875,258.993L945.7,257.639L947.781,256.796L960.479,251.64C960.479,251.64 970.297,249.103 970.297,249.103C971.251,248.856 972.163,248.47 973.004,247.957L979.851,243.779C979.851,243.779 980.168,243.702 980.168,243.702C980.168,243.702 992.993,244.809 992.993,244.809C993.06,244.815 993.126,244.82 993.192,244.824L995.339,244.966C995.339,244.966 996.985,246.844 996.985,246.844C997.383,247.299 997.822,247.716 998.295,248.091L1010.13,257.466L1010.93,258.767Z"/>
				<path d="M1248.92,344.232C1248.92,349.777 1248,354.421 1246.16,358.165C1244.33,361.908 1242.14,363.78 1239.6,363.78C1239.1,363.78 1237.83,363.502 1235.8,362.948L1233.33,367.731L1229.9,377.921L1221.34,388.111L1217.35,394.141L1212.02,394.557L1194.33,404.331L1186.15,405.579L1172.27,410.778L1161.24,408.49L1144.5,412.857C1143.36,412.857 1137.14,411.54 1125.86,408.906C1120.53,407.659 1117.17,406.411 1115.78,405.163L1108.36,399.964L1099.04,394.141C1095.11,391.369 1091.91,387.799 1089.43,383.432C1086.96,379.064 1085.72,375.079 1085.72,371.474C1085.72,369.256 1087.88,366.24 1092.19,362.428C1096.5,358.615 1101.26,355.392 1106.46,352.758L1110.64,358.789L1114.26,377.089L1121.1,381.664L1132.13,391.022L1137.46,392.894L1147.73,398.3L1154.77,398.3L1159.33,399.132L1168.65,396.221L1184.25,394.557L1192.05,390.19L1199.47,387.279C1204.16,384.229 1208.73,377.955 1213.16,368.459C1217.6,358.962 1219.82,350.332 1219.82,342.568C1219.82,339.656 1219,337.092 1217.35,334.873L1209.93,323.436L1208.03,318.237L1203.46,315.741L1200.99,319.069L1196.81,318.653L1186.53,316.989L1171.51,316.989L1166.37,308.879C1163.71,312.206 1161.55,314.32 1159.9,315.221C1158.26,316.123 1155.09,316.989 1150.39,317.821L1143.74,319.069L1139.93,316.989L1135.18,316.989L1130.23,312.83L1123.96,314.078L1118.06,310.958L1109.88,308.047C1106.71,306.938 1103.98,304.234 1101.7,299.937C1099.42,295.639 1098.28,291.272 1098.28,286.835C1098.28,280.042 1100.43,272.833 1104.75,265.208C1109.06,257.583 1115.08,250.581 1122.81,244.204C1128.77,239.213 1135.88,234.291 1144.12,229.439C1152.36,224.587 1160.13,220.843 1167.42,218.209C1174.71,215.575 1180.7,214.258 1185.39,214.258C1186.79,214.258 1191.61,215.714 1199.85,218.625L1205.37,220.705C1213.99,219.041 1219.57,218.209 1222.1,218.209C1225.65,218.209 1228.48,218.833 1230.57,220.081C1232.66,221.329 1233.71,222.854 1233.71,224.656C1233.71,226.458 1231.9,228.988 1228.29,232.246C1224.67,235.504 1220.14,238.52 1214.68,241.293L1208.79,244.204L1203.84,243.788L1194.33,243.372L1187.11,241.293L1183.87,234.014L1181.21,234.014L1177.98,237.757L1166.75,237.757L1158.95,239.005L1153.06,237.341L1150.01,239.837L1137.84,247.531C1129.35,255.572 1125.1,262.851 1125.1,269.367C1125.1,273.942 1126.37,276.923 1128.9,278.309L1141.45,284.548L1145.26,286.835L1145.26,291.826L1151.15,295.362L1157.43,288.915L1160.48,289.331L1192.43,286.835L1207.65,290.578L1214.68,289.331L1223.62,295.777L1236.94,303.888C1239.6,305.829 1241.95,310.196 1243.98,316.989L1245.5,322.604C1247.78,331.338 1248.92,338.547 1248.92,344.232Z" style="fill:white;fill-rule:nonzero;"/>
				<path d="M1164.49,324.107C1166.34,325.934 1168.85,326.989 1171.51,326.989L1185.73,326.989C1185.73,326.989 1195.21,328.524 1195.21,328.524C1195.41,328.557 1195.61,328.583 1195.82,328.604L1200,329.02C1200.55,329.075 1201.1,329.083 1201.65,329.042L1208.96,340.315C1209.07,340.493 1209.19,340.668 1209.32,340.838C1209.69,341.332 1209.82,341.919 1209.82,342.568C1209.82,349.073 1207.82,356.268 1204.1,364.225C1200.93,371.011 1198.02,375.885 1194.72,378.399C1194.72,378.401 1188.4,380.881 1188.4,380.881C1187.97,381.048 1187.56,381.243 1187.16,381.465L1181.15,384.831C1181.15,384.831 1167.59,386.277 1167.59,386.277C1166.94,386.347 1166.3,386.48 1165.67,386.676L1158.7,388.853C1158.7,388.853 1156.56,388.462 1156.56,388.462C1155.97,388.355 1155.37,388.3 1154.77,388.3L1150.2,388.3C1150.2,388.3 1142.12,384.045 1142.12,384.045C1141.69,383.817 1141.24,383.621 1140.78,383.459L1137.19,382.2C1137.19,382.2 1127.57,374.038 1127.57,374.038C1127.28,373.791 1126.98,373.561 1126.66,373.349L1123.26,371.08C1123.26,371.08 1120.45,356.851 1120.45,356.851C1120.18,355.5 1119.64,354.219 1118.86,353.088L1114.67,347.057C1111.83,342.955 1106.39,341.581 1101.94,343.837C1095.97,346.86 1090.51,350.561 1085.57,354.937C1078.11,361.535 1075.72,367.635 1075.72,371.474C1075.72,376.545 1077.25,382.215 1080.73,388.359C1083.96,394.054 1088.15,398.697 1093.27,402.313C1093.43,402.42 1093.58,402.524 1093.74,402.622L1102.84,408.305C1102.84,408.305 1110.04,413.352 1110.04,413.352L1110.03,413.342C1112.39,415.039 1116.81,417.058 1123.58,418.643C1123.58,418.643 1123.58,418.644 1123.59,418.645C1136.22,421.594 1143.22,422.857 1144.5,422.857C1145.35,422.857 1146.2,422.749 1147.02,422.534L1161.5,418.757C1161.5,418.757 1170.24,420.57 1170.24,420.57C1172.09,420.953 1174.01,420.805 1175.78,420.143L1188.69,415.308C1188.69,415.308 1195.84,414.217 1195.84,414.217C1197.01,414.039 1198.13,413.655 1199.17,413.084L1214.96,404.358C1214.96,404.358 1218.13,404.111 1218.13,404.111C1221.2,403.871 1223.99,402.231 1225.68,399.663L1229.37,394.107C1229.37,394.107 1237.56,384.352 1237.56,384.352C1238.36,383.394 1238.98,382.292 1239.38,381.106L1241.9,373.611C1246.78,372.892 1251.62,369.75 1255.14,362.574C1257.56,357.638 1258.92,351.544 1258.92,344.232C1258.92,337.886 1257.72,329.826 1255.17,320.076C1255.17,320.046 1255.16,320.017 1255.15,319.988L1253.63,314.373C1253.61,314.291 1253.58,314.209 1253.56,314.127C1250.66,304.429 1246.63,298.577 1242.83,295.807C1242.61,295.644 1242.38,295.491 1242.14,295.347L1229.16,287.439C1229.16,287.439 1220.53,281.22 1220.53,281.22C1218.34,279.638 1215.6,279.012 1212.94,279.484L1207.98,280.363C1207.98,280.363 1194.82,277.125 1194.82,277.125C1193.78,276.87 1192.71,276.783 1191.65,276.866L1160.77,279.278C1160.77,279.278 1158.79,279.007 1158.79,279.007C1156.65,278.715 1154.51,279.122 1152.67,280.126C1152.02,279.405 1151.26,278.777 1150.41,278.265L1146.61,275.978C1146.38,275.84 1146.14,275.712 1145.9,275.593L1135.15,270.25C1135.12,269.952 1135.1,269.63 1135.1,269.367C1135.1,265.047 1138.55,260.71 1144.02,255.457L1155.26,248.353L1156.24,248.629C1157.63,249.023 1159.1,249.109 1160.53,248.879L1167.55,247.757L1177.98,247.757C1178.45,247.757 1178.92,247.723 1179.39,247.653C1180.66,249.196 1182.38,250.339 1184.34,250.903L1191.57,252.982C1192.33,253.2 1193.11,253.328 1193.9,253.363L1203.2,253.77C1203.2,253.77 1207.95,254.169 1207.95,254.169C1209.76,254.321 1211.58,253.976 1213.22,253.171L1219.11,250.259C1219.15,250.242 1219.18,250.224 1219.22,250.206C1225.55,246.988 1230.79,243.455 1234.98,239.674C1241.71,233.607 1243.71,228.012 1243.71,224.656C1243.71,219.649 1241.5,214.958 1235.69,211.492C1232.32,209.48 1227.83,208.209 1222.1,208.209C1219.57,208.209 1214.28,208.877 1206.27,210.358C1206.27,210.358 1203.38,209.268 1203.38,209.268C1203.31,209.243 1203.25,209.219 1203.18,209.196C1193.1,205.637 1187.1,204.258 1185.39,204.258C1179.82,204.258 1172.68,205.677 1164.02,208.804C1156.21,211.627 1147.88,215.622 1139.05,220.821C1130.29,225.974 1122.76,231.212 1116.42,236.512C1107.68,243.722 1100.91,251.667 1096.04,260.286C1090.76,269.629 1088.28,278.511 1088.28,286.835C1088.28,292.855 1089.77,298.795 1092.87,304.627C1096.59,311.624 1101.38,315.657 1106.54,317.473C1106.54,317.473 1114.02,320.136 1114.02,320.136C1114.02,320.136 1119.28,322.917 1119.28,322.917C1121.31,323.992 1123.65,324.334 1125.9,323.886L1127.47,323.574C1127.47,323.574 1128.74,324.642 1128.74,324.642C1130.54,326.158 1132.82,326.989 1135.18,326.989L1137.38,326.989C1137.38,326.989 1138.94,327.843 1138.94,327.843C1140.97,328.95 1143.31,329.323 1145.58,328.898L1152.19,327.658C1158.2,326.59 1162.26,325.274 1164.49,324.107ZM1248.92,344.232C1248.92,349.777 1248,354.421 1246.16,358.165C1244.33,361.908 1242.14,363.78 1239.6,363.78C1239.1,363.78 1237.83,363.502 1235.8,362.948L1233.33,367.731L1229.9,377.921L1221.34,388.111L1217.35,394.141L1212.02,394.557L1194.33,404.331L1186.15,405.579L1172.27,410.778L1161.24,408.49L1144.5,412.857C1143.36,412.857 1137.14,411.54 1125.86,408.906C1120.53,407.659 1117.17,406.411 1115.78,405.163L1108.36,399.964L1099.04,394.141C1095.11,391.369 1091.91,387.799 1089.43,383.432C1086.96,379.064 1085.72,375.079 1085.72,371.474C1085.72,369.256 1087.88,366.24 1092.19,362.428C1096.5,358.615 1101.26,355.392 1106.46,352.758L1110.64,358.789L1114.26,377.089L1121.1,381.664L1132.13,391.022L1137.46,392.894L1147.73,398.3L1154.77,398.3L1159.33,399.132L1168.65,396.221L1184.25,394.557L1192.05,390.19L1199.47,387.279C1204.16,384.229 1208.73,377.955 1213.16,368.459C1217.6,358.962 1219.82,350.332 1219.82,342.568C1219.82,339.656 1219,337.092 1217.35,334.873L1209.93,323.436L1208.03,318.237L1203.46,315.741L1200.99,319.069L1196.81,318.653L1186.53,316.989L1171.51,316.989L1166.37,308.879C1163.71,312.206 1161.55,314.32 1159.9,315.221C1158.26,316.123 1155.09,316.989 1150.39,317.821L1143.74,319.069L1139.93,316.989L1135.18,316.989L1130.23,312.83L1123.96,314.078L1118.06,310.958L1109.88,308.047C1106.71,306.938 1103.98,304.234 1101.7,299.937C1099.42,295.639 1098.28,291.272 1098.28,286.835C1098.28,280.042 1100.43,272.833 1104.75,265.208C1109.06,257.583 1115.08,250.581 1122.81,244.204C1128.77,239.213 1135.88,234.291 1144.12,229.439C1152.36,224.587 1160.13,220.843 1167.42,218.209C1174.71,215.575 1180.7,214.258 1185.39,214.258C1186.79,214.258 1191.61,215.714 1199.85,218.625L1205.37,220.705C1213.99,219.041 1219.57,218.209 1222.1,218.209C1225.65,218.209 1228.48,218.833 1230.57,220.081C1232.66,221.329 1233.71,222.854 1233.71,224.656C1233.71,226.458 1231.9,228.988 1228.29,232.246C1224.67,235.504 1220.14,238.52 1214.68,241.293L1208.79,244.204L1203.84,243.788L1194.33,243.372L1187.11,241.293L1183.87,234.014L1181.21,234.014L1177.98,237.757L1166.75,237.757L1158.95,239.005L1153.06,237.341L1150.01,239.837L1137.84,247.531C1129.35,255.572 1125.1,262.851 1125.1,269.367C1125.1,273.942 1126.37,276.923 1128.9,278.309L1141.45,284.548L1145.26,286.835L1145.26,291.826L1151.15,295.362L1157.43,288.915L1160.48,289.331L1192.43,286.835L1207.65,290.578L1214.68,289.331L1223.62,295.777L1236.94,303.888C1239.6,305.829 1241.95,310.196 1243.98,316.989L1245.5,322.604C1247.78,331.338 1248.92,338.547 1248.92,344.232Z"/>
				<path d="M1332.04,112.151C1332.04,115.201 1331.35,117.211 1329.95,118.182L1316.07,129.204L1310.55,135.234L1300.47,142.721C1293.75,148.128 1289.69,150.831 1288.3,150.831C1287.66,150.831 1287,150.381 1286.3,149.479C1285.6,148.578 1285.25,147.642 1285.25,146.672C1285.25,143.483 1286.01,141.057 1287.54,139.393L1307.13,119.014L1317.59,103.625C1319.11,102.793 1320.82,102.377 1322.72,102.377C1325.26,102.377 1327.45,103.313 1329.29,105.184C1331.12,107.056 1332.04,109.378 1332.04,112.151ZM1320.63,222.368C1318.22,228.191 1316.83,233.598 1316.45,238.589L1315.31,259.177L1311.69,266.247C1311.69,266.525 1311.66,266.802 1311.6,267.079C1311.53,267.357 1311.44,267.703 1311.31,268.119C1311.31,269.921 1312.9,271.862 1316.07,273.942L1315.31,280.389L1315.31,320.732L1314.54,353.174L1317.21,366.899L1317.21,373.969L1317.97,388.111C1317.33,390.19 1313.34,394.28 1305.99,400.38L1296.47,408.49C1294.95,410.293 1293.05,411.194 1290.77,411.194C1289.12,411.194 1287.66,410.639 1286.39,409.53C1285.12,408.421 1284.49,407.243 1284.49,405.995C1284.49,402.39 1285.51,398.162 1287.54,393.309L1289.06,387.279L1287.15,385.199L1290.01,350.262L1291.15,346.727L1296.09,345.895L1296.09,339.241C1296.09,334.943 1295.78,331.754 1295.14,329.674C1294.51,327.595 1292.92,324.822 1290.39,321.356L1290.77,314.494L1290.77,313.246L1290.39,309.711C1290.39,305.136 1291.15,301.046 1292.67,297.441L1290.01,293.906L1290.39,282.468C1292.16,281.359 1293.05,280.111 1293.05,278.725L1292.67,275.19L1287.15,274.358L1287.15,268.119L1287.54,262.504L1287.54,253.978C1287.54,250.235 1287.19,247.462 1286.49,245.66C1285.79,243.857 1284.24,241.916 1281.83,239.837C1283.48,234.985 1287.22,230.756 1293.05,227.151L1311.31,215.714C1314.73,216.13 1317.84,218.348 1320.63,222.368Z" style="fill:white;fill-rule:nonzero;"/>
				<path d="M1280.42,281.747L1280.39,282.136L1280.01,293.573C1279.95,295.597 1280.49,297.586 1281.58,299.282C1280.79,302.513 1280.39,305.988 1280.39,309.711C1280.39,310.068 1280.41,310.425 1280.44,310.78L1280.77,313.782C1280.77,313.782 1280.77,314.217 1280.77,314.217C1280.77,314.217 1280.4,320.803 1280.4,320.803C1280.28,323.112 1280.95,325.395 1282.32,327.261C1283.97,329.521 1285.16,331.235 1285.58,332.591C1285.96,333.845 1286.07,335.69 1286.08,338.11C1284,339.328 1282.4,341.283 1281.63,343.655L1280.49,347.19C1280.25,347.923 1280.1,348.681 1280.04,349.448L1277.19,384.385C1277.04,386.188 1277.39,387.977 1278.16,389.572L1278.01,390.17C1275.58,396.183 1274.49,401.481 1274.49,405.995C1274.49,409.81 1275.93,413.666 1279.81,417.057C1282.98,419.833 1286.64,421.194 1290.77,421.194C1295.79,421.194 1300.05,419.377 1303.49,415.647C1303.49,415.652 1312.42,408.032 1312.42,408.032C1318.25,403.193 1322.17,399.413 1324.27,396.803C1326.14,394.494 1327.09,392.489 1327.53,391.027C1327.87,389.909 1328.02,388.74 1327.95,387.573L1327.21,373.701C1327.21,373.701 1327.21,366.899 1327.21,366.899C1327.21,366.26 1327.15,365.622 1327.02,364.994L1324.57,352.329C1324.57,352.329 1325.3,320.967 1325.3,320.967C1325.3,320.889 1325.31,320.81 1325.31,320.732L1325.31,280.977C1325.31,280.977 1326,275.114 1326,275.114C1326.38,271.87 1325.15,268.68 1322.78,266.532L1324.21,263.728C1324.85,262.486 1325.21,261.124 1325.29,259.73L1326.42,239.254C1326.75,235.227 1327.93,230.883 1329.87,226.192C1331.17,223.049 1330.79,219.462 1328.85,216.668C1324.07,209.779 1318.38,206.499 1312.52,205.787C1310.24,205.511 1307.94,206.023 1306,207.239L1287.76,218.664C1279.62,223.703 1274.66,229.841 1272.36,236.62C1271.05,240.478 1272.21,244.745 1275.29,247.407C1276.15,248.142 1276.92,248.631 1277.16,249.269C1277.56,250.284 1277.54,251.869 1277.54,253.978L1277.54,262.166C1277.54,262.166 1277.18,267.443 1277.18,267.443C1277.16,267.668 1277.15,267.894 1277.15,268.119L1277.15,274.358C1277.15,277.261 1278.4,279.908 1280.42,281.747ZM1320.63,222.368C1318.22,228.191 1316.83,233.598 1316.45,238.589L1315.31,259.177L1311.69,266.247C1311.69,266.525 1311.66,266.802 1311.6,267.079C1311.53,267.357 1311.44,267.703 1311.31,268.119C1311.31,269.921 1312.9,271.862 1316.07,273.942L1315.31,280.389L1315.31,320.732L1314.54,353.174L1317.21,366.899L1317.21,373.969L1317.97,388.111C1317.33,390.19 1313.34,394.28 1305.99,400.38L1296.47,408.49C1294.95,410.293 1293.05,411.194 1290.77,411.194C1289.12,411.194 1287.66,410.639 1286.39,409.53C1285.12,408.421 1284.49,407.243 1284.49,405.995C1284.49,402.39 1285.51,398.162 1287.54,393.309L1289.06,387.279L1287.15,385.199L1290.01,350.262L1291.15,346.727L1296.09,345.895L1296.09,339.241C1296.09,334.943 1295.78,331.754 1295.14,329.674C1294.51,327.595 1292.92,324.822 1290.39,321.356L1290.77,314.494L1290.77,313.246L1290.39,309.711C1290.39,305.136 1291.15,301.046 1292.67,297.441L1290.01,293.906L1290.39,282.468C1292.16,281.359 1293.05,280.111 1293.05,278.725L1292.67,275.19L1287.15,274.358L1287.15,268.119L1287.54,262.504L1287.54,253.978C1287.54,250.235 1287.19,247.462 1286.49,245.66C1285.79,243.857 1284.24,241.916 1281.83,239.837C1283.48,234.985 1287.22,230.756 1293.05,227.151L1311.31,215.714C1314.73,216.13 1317.84,218.348 1320.63,222.368ZM1342.04,112.151C1342.04,106.576 1340.12,101.939 1336.42,98.176C1332.59,94.276 1328.01,92.377 1322.72,92.377C1319.04,92.377 1315.74,93.239 1312.79,94.85C1311.4,95.611 1310.21,96.691 1309.32,98.003L1299.33,112.693C1299.33,112.693 1280.33,132.463 1280.33,132.463C1280.27,132.523 1280.21,132.583 1280.16,132.644C1277.19,135.885 1275.25,140.46 1275.25,146.672C1275.25,149.737 1276.19,152.753 1278.39,155.6C1281.63,159.786 1285.35,160.831 1288.3,160.831C1289.53,160.831 1291.3,160.618 1293.48,159.661C1295.81,158.636 1300.25,155.721 1306.6,150.625C1306.58,150.635 1316.51,143.263 1316.51,143.263C1317.02,142.882 1317.5,142.454 1317.93,141.983L1322.91,136.541C1322.91,136.541 1336,126.146 1336,126.146C1339.26,123.734 1342.04,119.369 1342.04,112.151ZM1332.04,112.151C1332.04,115.201 1331.35,117.211 1329.95,118.182L1316.07,129.204L1310.55,135.234L1300.47,142.721C1293.75,148.128 1289.69,150.831 1288.3,150.831C1287.66,150.831 1287,150.381 1286.3,149.479C1285.6,148.578 1285.25,147.642 1285.25,146.672C1285.25,143.483 1286.01,141.057 1287.54,139.393L1307.13,119.014L1317.59,103.625C1319.11,102.793 1320.82,102.377 1322.72,102.377C1325.26,102.377 1327.45,103.313 1329.29,105.184C1331.12,107.056 1332.04,109.378 1332.04,112.151Z"/>
				<path d="M1514.26,344.232C1514.26,349.777 1513.34,354.421 1511.51,358.165C1509.67,361.908 1507.48,363.78 1504.94,363.78C1504.43,363.78 1503.17,363.502 1501.14,362.948L1498.67,367.731L1495.24,377.921L1486.68,388.111L1482.69,394.141L1477.36,394.557L1459.67,404.331L1451.49,405.579L1437.61,410.778L1426.58,408.49L1409.84,412.857C1408.7,412.857 1402.48,411.54 1391.2,408.906C1385.87,407.659 1382.51,406.411 1381.12,405.163L1373.7,399.964L1364.38,394.141C1360.45,391.369 1357.25,387.799 1354.77,383.432C1352.3,379.064 1351.06,375.079 1351.06,371.474C1351.06,369.256 1353.22,366.24 1357.53,362.428C1361.84,358.615 1366.6,355.392 1371.8,352.758L1375.98,358.789L1379.6,377.089L1386.44,381.664L1397.48,391.022L1402.8,392.894L1413.07,398.3L1420.11,398.3L1424.67,399.132L1434,396.221L1449.59,394.557L1457.39,390.19L1464.81,387.279C1469.5,384.229 1474.07,377.955 1478.5,368.459C1482.94,358.962 1485.16,350.332 1485.16,342.568C1485.16,339.656 1484.34,337.092 1482.69,334.873L1475.27,323.436L1473.37,318.237L1468.8,315.741L1466.33,319.069L1462.15,318.653L1451.88,316.989L1436.85,316.989L1431.71,308.879C1429.05,312.206 1426.89,314.32 1425.25,315.221C1423.6,316.123 1420.43,316.989 1415.74,317.821L1409.08,319.069L1405.27,316.989L1400.52,316.989L1395.57,312.83L1389.3,314.078L1383.4,310.958L1375.22,308.047C1372.05,306.938 1369.32,304.234 1367.04,299.937C1364.76,295.639 1363.62,291.272 1363.62,286.835C1363.62,280.042 1365.77,272.833 1370.09,265.208C1374.4,257.583 1380.42,250.581 1388.15,244.204C1394.12,239.213 1401.22,234.291 1409.46,229.439C1417.7,224.587 1425.47,220.843 1432.76,218.209C1440.05,215.575 1446.04,214.258 1450.73,214.258C1452.13,214.258 1456.95,215.714 1465.19,218.625L1470.7,220.705C1479.33,219.041 1484.91,218.209 1487.44,218.209C1490.99,218.209 1493.82,218.833 1495.91,220.081C1498,221.329 1499.05,222.854 1499.05,224.656C1499.05,226.458 1497.24,228.988 1493.62,232.246C1490.01,235.504 1485.48,238.52 1480.03,241.293L1474.13,244.204L1469.18,243.788L1459.67,243.372L1452.44,241.293L1449.21,234.014L1446.55,234.014L1443.32,237.757L1432.09,237.757L1424.29,239.005L1418.4,237.341L1415.36,239.837L1403.18,247.531C1394.68,255.572 1390.44,262.851 1390.44,269.367C1390.44,273.942 1391.7,276.923 1394.24,278.309L1406.8,284.548L1410.6,286.835L1410.6,291.826L1416.5,295.362L1422.77,288.915L1425.82,289.331L1457.77,286.835L1472.99,290.578L1480.03,289.331L1488.96,295.777L1502.28,303.888C1504.94,305.829 1507.29,310.196 1509.32,316.989L1510.84,322.604C1513.12,331.338 1514.26,338.547 1514.26,344.232Z" style="fill:white;fill-rule:nonzero;"/>
				<path d="M1429.83,324.107C1431.68,325.934 1434.19,326.989 1436.85,326.989L1451.07,326.989C1451.07,326.989 1460.55,328.524 1460.55,328.524C1460.75,328.557 1460.95,328.583 1461.16,328.604L1465.34,329.02C1465.89,329.075 1466.44,329.083 1466.99,329.042L1474.3,340.315C1474.41,340.493 1474.54,340.668 1474.66,340.838C1475.03,341.332 1475.16,341.919 1475.16,342.568C1475.16,349.073 1473.16,356.268 1469.44,364.225C1466.27,371.011 1463.36,375.885 1460.06,378.399C1460.06,378.401 1453.74,380.881 1453.74,380.881C1453.31,381.048 1452.9,381.243 1452.51,381.465L1446.49,384.831C1446.49,384.831 1432.93,386.277 1432.93,386.277C1432.28,386.347 1431.64,386.48 1431.01,386.676L1424.04,388.853C1424.04,388.853 1421.9,388.462 1421.9,388.462C1421.31,388.355 1420.71,388.3 1420.11,388.3L1415.54,388.3C1415.54,388.3 1407.46,384.045 1407.46,384.045C1407.03,383.817 1406.58,383.621 1406.12,383.459L1402.53,382.2C1402.53,382.2 1392.91,374.038 1392.91,374.038C1392.62,373.791 1392.32,373.561 1392,373.349L1388.6,371.08C1388.6,371.08 1385.79,356.851 1385.79,356.851C1385.53,355.5 1384.98,354.219 1384.2,353.088L1380.01,347.057C1377.17,342.955 1371.73,341.581 1367.28,343.837C1361.31,346.86 1355.86,350.561 1350.91,354.937C1343.44,361.535 1341.06,367.635 1341.06,371.474C1341.06,376.545 1342.59,382.215 1346.07,388.359C1349.3,394.054 1353.49,398.697 1358.62,402.313C1358.77,402.42 1358.92,402.524 1359.08,402.622L1368.18,408.305C1368.18,408.305 1375.38,413.352 1375.38,413.352L1375.37,413.342C1377.73,415.039 1382.15,417.058 1388.92,418.643C1388.92,418.643 1388.92,418.644 1388.92,418.645C1401.56,421.594 1408.56,422.857 1409.84,422.857C1410.69,422.857 1411.54,422.749 1412.36,422.534L1426.84,418.757C1426.84,418.757 1435.58,420.57 1435.58,420.57C1437.43,420.953 1439.35,420.805 1441.12,420.143L1454.03,415.308C1454.03,415.308 1461.18,414.217 1461.18,414.217C1462.35,414.039 1463.48,413.655 1464.51,413.084L1480.3,404.358C1480.3,404.358 1483.47,404.111 1483.47,404.111C1486.54,403.871 1489.33,402.231 1491.03,399.663L1494.71,394.107C1494.71,394.107 1502.9,384.352 1502.9,384.352C1503.7,383.394 1504.32,382.292 1504.72,381.106L1507.24,373.611C1512.12,372.892 1516.95,369.75 1520.48,362.574C1522.9,357.638 1524.26,351.544 1524.26,344.232C1524.26,337.886 1523.06,329.826 1520.51,320.076C1520.51,320.046 1520.5,320.017 1520.49,319.988L1518.97,314.373C1518.95,314.291 1518.92,314.209 1518.9,314.127C1516,304.429 1511.97,298.577 1508.17,295.807C1507.95,295.644 1507.72,295.491 1507.48,295.347L1494.5,287.439C1494.5,287.439 1485.87,281.22 1485.87,281.22C1483.68,279.638 1480.94,279.012 1478.28,279.484L1473.32,280.363C1473.32,280.363 1460.16,277.125 1460.16,277.125C1459.12,276.87 1458.06,276.783 1456.99,276.866L1426.11,279.278C1426.11,279.278 1424.13,279.007 1424.13,279.007C1421.99,278.715 1419.85,279.122 1418.01,280.126C1417.36,279.405 1416.6,278.777 1415.75,278.265L1411.95,275.978C1411.72,275.84 1411.49,275.712 1411.25,275.593L1400.49,270.25C1400.46,269.952 1400.44,269.63 1400.44,269.367C1400.44,265.047 1403.89,260.71 1409.36,255.457L1420.6,248.353L1421.58,248.629C1422.98,249.023 1424.44,249.109 1425.87,248.879L1432.89,247.757L1443.32,247.757C1443.79,247.757 1444.26,247.723 1444.73,247.653C1446,249.196 1447.72,250.339 1449.68,250.903L1456.91,252.982C1457.67,253.2 1458.45,253.328 1459.24,253.363L1468.55,253.77C1468.55,253.77 1473.29,254.169 1473.29,254.169C1475.1,254.321 1476.92,253.976 1478.56,253.171L1484.45,250.259C1484.49,250.242 1484.52,250.224 1484.56,250.206C1490.89,246.988 1496.13,243.455 1500.32,239.674C1507.05,233.607 1509.05,228.012 1509.05,224.656C1509.05,219.649 1506.84,214.958 1501.03,211.492C1497.66,209.48 1493.17,208.209 1487.44,208.209C1484.91,208.209 1479.62,208.877 1471.61,210.358C1471.61,210.358 1468.72,209.268 1468.72,209.268C1468.65,209.243 1468.59,209.219 1468.52,209.196C1458.44,205.637 1452.44,204.258 1450.73,204.258C1445.16,204.258 1438.02,205.677 1429.36,208.804C1421.55,211.627 1413.22,215.622 1404.38,220.821C1395.63,225.974 1388.1,231.212 1381.77,236.512C1373.03,243.722 1366.25,251.667 1361.38,260.286C1356.1,269.629 1353.62,278.511 1353.62,286.835C1353.62,292.855 1355.11,298.795 1358.21,304.627C1361.93,311.624 1366.72,315.657 1371.88,317.473C1371.88,317.473 1379.36,320.136 1379.36,320.136C1379.36,320.136 1384.62,322.917 1384.62,322.917C1386.65,323.992 1388.99,324.334 1391.25,323.886L1392.81,323.574C1392.81,323.574 1394.08,324.642 1394.08,324.642C1395.88,326.158 1398.16,326.989 1400.52,326.989L1402.72,326.989C1402.72,326.989 1404.28,327.843 1404.28,327.843C1406.31,328.95 1408.65,329.323 1410.92,328.898L1417.53,327.658C1423.54,326.59 1427.6,325.274 1429.83,324.107ZM1514.26,344.232C1514.26,349.777 1513.34,354.421 1511.51,358.165C1509.67,361.908 1507.48,363.78 1504.94,363.78C1504.43,363.78 1503.17,363.502 1501.14,362.948L1498.67,367.731L1495.24,377.921L1486.68,388.111L1482.69,394.141L1477.36,394.557L1459.67,404.331L1451.49,405.579L1437.61,410.778L1426.58,408.49L1409.84,412.857C1408.7,412.857 1402.48,411.54 1391.2,408.906C1385.87,407.659 1382.51,406.411 1381.12,405.163L1373.7,399.964L1364.38,394.141C1360.45,391.369 1357.25,387.799 1354.77,383.432C1352.3,379.064 1351.06,375.079 1351.06,371.474C1351.06,369.256 1353.22,366.24 1357.53,362.428C1361.84,358.615 1366.6,355.392 1371.8,352.758L1375.98,358.789L1379.6,377.089L1386.44,381.664L1397.48,391.022L1402.8,392.894L1413.07,398.3L1420.11,398.3L1424.67,399.132L1434,396.221L1449.59,394.557L1457.39,390.19L1464.81,387.279C1469.5,384.229 1474.07,377.955 1478.5,368.459C1482.94,358.962 1485.16,350.332 1485.16,342.568C1485.16,339.656 1484.34,337.092 1482.69,334.873L1475.27,323.436L1473.37,318.237L1468.8,315.741L1466.33,319.069L1462.15,318.653L1451.88,316.989L1436.85,316.989L1431.71,308.879C1429.05,312.206 1426.89,314.32 1425.25,315.221C1423.6,316.123 1420.43,316.989 1415.74,317.821L1409.08,319.069L1405.27,316.989L1400.52,316.989L1395.57,312.83L1389.3,314.078L1383.4,310.958L1375.22,308.047C1372.05,306.938 1369.32,304.234 1367.04,299.937C1364.76,295.639 1363.62,291.272 1363.62,286.835C1363.62,280.042 1365.77,272.833 1370.09,265.208C1374.4,257.583 1380.42,250.581 1388.15,244.204C1394.12,239.213 1401.22,234.291 1409.46,229.439C1417.7,224.587 1425.47,220.843 1432.76,218.209C1440.05,215.575 1446.04,214.258 1450.73,214.258C1452.13,214.258 1456.95,215.714 1465.19,218.625L1470.7,220.705C1479.33,219.041 1484.91,218.209 1487.44,218.209C1490.99,218.209 1493.82,218.833 1495.91,220.081C1498,221.329 1499.05,222.854 1499.05,224.656C1499.05,226.458 1497.24,228.988 1493.62,232.246C1490.01,235.504 1485.48,238.52 1480.03,241.293L1474.13,244.204L1469.18,243.788L1459.67,243.372L1452.44,241.293L1449.21,234.014L1446.55,234.014L1443.32,237.757L1432.09,237.757L1424.29,239.005L1418.4,237.341L1415.36,239.837L1403.18,247.531C1394.68,255.572 1390.44,262.851 1390.44,269.367C1390.44,273.942 1391.7,276.923 1394.24,278.309L1406.8,284.548L1410.6,286.835L1410.6,291.826L1416.5,295.362L1422.77,288.915L1425.82,289.331L1457.77,286.835L1472.99,290.578L1480.03,289.331L1488.96,295.777L1502.28,303.888C1504.94,305.829 1507.29,310.196 1509.32,316.989L1510.84,322.604C1513.12,331.338 1514.26,338.547 1514.26,344.232Z"/>
			</g>
			<g>
				<path d="M1030.29,474.995L1030.29,620.873C1030.29,642.714 1030.07,656.758 1029.62,663.005C1029.17,669.252 1027.12,674.892 1023.48,679.925C1019.84,684.958 1014.9,688.441 1008.65,690.374C1002.41,692.306 992.991,693.272 980.408,693.272L951.96,693.272L951.96,655.118C955.376,655.387 957.847,655.522 959.375,655.522C963.42,655.522 966.611,654.534 968.948,652.556C971.285,650.579 972.633,648.152 972.992,645.276C973.352,642.4 973.532,636.827 973.532,628.558L973.532,474.995L1030.29,474.995Z" style="fill:rgb(251,202,27);fill-rule:nonzero;"/>
				<path d="M1039.79,474.995C1039.79,469.749 1035.54,465.495 1030.29,465.495L973.532,465.495C968.285,465.495 964.032,469.749 964.032,474.995L964.032,628.558C964.032,636.244 963.9,641.424 963.566,644.097C963.504,644.589 963.211,644.966 962.811,645.304C961.993,645.997 960.792,646.022 959.375,646.022C958.001,646.022 955.779,645.89 952.708,645.647C950.066,645.439 947.458,646.343 945.512,648.141C943.567,649.939 942.46,652.468 942.46,655.118L942.46,693.272C942.46,698.519 946.713,702.772 951.96,702.772L980.408,702.772C994.248,702.772 1004.59,701.575 1011.46,699.449C1019.78,696.876 1026.33,692.195 1031.18,685.492C1035.87,679.005 1038.51,671.738 1039.09,663.687C1039.55,657.339 1039.79,643.068 1039.79,620.873C1039.79,620.873 1039.79,474.995 1039.79,474.995ZM1030.29,474.995L1030.29,620.873C1030.29,642.714 1030.07,656.758 1029.62,663.005C1029.17,669.252 1027.12,674.892 1023.48,679.925C1019.84,684.958 1014.9,688.441 1008.65,690.374C1002.41,692.306 992.991,693.272 980.408,693.272L951.96,693.272L951.96,655.118C955.376,655.387 957.847,655.522 959.375,655.522C963.42,655.522 966.611,654.534 968.948,652.556C971.285,650.579 972.633,648.152 972.992,645.276C973.352,642.4 973.532,636.827 973.532,628.558L973.532,474.995L1030.29,474.995Z"/>
				<path d="M1181.29,474.995L1181.29,620.873C1181.29,637.411 1180.75,649.028 1179.67,655.724C1178.6,662.421 1175.4,669.297 1170.1,676.352C1164.8,683.408 1157.81,688.756 1149.14,692.396C1140.46,696.036 1130.24,697.856 1118.46,697.856C1105.43,697.856 1093.93,695.699 1083.95,691.385C1073.97,687.071 1066.51,681.453 1061.57,674.532C1056.63,667.611 1053.71,660.308 1052.81,652.624C1051.91,644.939 1051.46,628.783 1051.46,604.155L1051.46,474.995L1108.22,474.995L1108.22,638.669C1108.22,648.197 1108.74,654.286 1109.77,656.938C1110.8,659.589 1112.89,660.915 1116.04,660.915C1119.63,660.915 1121.95,659.455 1122.98,656.533C1124.02,653.612 1124.53,646.714 1124.53,635.838L1124.53,474.995L1181.29,474.995Z" style="fill:rgb(251,202,27);fill-rule:nonzero;"/>
				<path d="M1116.38,470.125C1114.72,467.352 1111.68,465.495 1108.22,465.495L1051.46,465.495C1046.21,465.495 1041.96,469.749 1041.96,474.995L1041.96,604.155C1041.96,629.344 1042.45,645.867 1043.37,653.727C1044.45,662.954 1047.9,671.744 1053.84,680.054C1059.68,688.232 1068.39,695.007 1080.18,700.105C1091.25,704.892 1104,707.356 1118.46,707.356C1131.66,707.356 1143.1,705.234 1152.81,701.156C1163.12,696.831 1171.4,690.443 1177.7,682.06C1184.06,673.59 1187.76,665.274 1189.05,657.235C1190.18,650.248 1190.79,638.129 1190.79,620.873L1190.79,474.995C1190.79,469.749 1186.54,465.495 1181.29,465.495L1124.53,465.495C1121.07,465.495 1118.03,467.352 1116.38,470.125ZM1181.29,474.995L1181.29,620.873C1181.29,637.411 1180.75,649.028 1179.67,655.724C1178.6,662.421 1175.4,669.297 1170.1,676.352C1164.8,683.408 1157.81,688.756 1149.14,692.396C1140.46,696.036 1130.24,697.856 1118.46,697.856C1105.43,697.856 1093.93,695.699 1083.95,691.385C1073.97,687.071 1066.51,681.453 1061.57,674.532C1056.63,667.611 1053.71,660.308 1052.81,652.624C1051.91,644.939 1051.46,628.783 1051.46,604.155L1051.46,474.995L1108.22,474.995L1108.22,638.669C1108.22,648.197 1108.74,654.286 1109.77,656.938C1110.8,659.589 1112.89,660.915 1116.04,660.915C1119.63,660.915 1121.95,659.455 1122.98,656.533C1124.02,653.612 1124.53,646.714 1124.53,635.838L1124.53,474.995L1181.29,474.995Z"/>
				<path d="M1378.4,474.995L1378.4,693.272L1328.79,693.272L1328.79,545.912L1308.97,693.272L1273.78,693.272L1252.88,549.282L1252.88,693.272L1203.27,693.272L1203.27,474.995L1276.75,474.995C1278.9,488.118 1281.2,503.578 1283.62,521.374L1291.44,576.921L1304.38,474.995L1378.4,474.995Z" style="fill:rgb(251,202,27);fill-rule:nonzero;"/>
				<path d="M1290.96,505.262C1289.28,493.463 1287.67,482.862 1286.12,473.454C1285.37,468.864 1281.4,465.495 1276.75,465.495L1203.27,465.495C1198.02,465.495 1193.77,469.749 1193.77,474.995L1193.77,693.272C1193.77,698.519 1198.02,702.772 1203.27,702.772L1252.88,702.772C1258.13,702.772 1262.38,698.519 1262.38,693.272L1262.38,680.884C1262.38,680.884 1264.38,694.637 1264.38,694.637C1265.06,699.308 1269.06,702.772 1273.78,702.772L1308.97,702.772C1313.73,702.772 1317.75,699.254 1318.38,694.539L1319.29,687.82C1319.29,687.82 1319.29,693.272 1319.29,693.272C1319.29,698.519 1323.54,702.772 1328.79,702.772L1378.4,702.772C1383.65,702.772 1387.9,698.519 1387.9,693.272L1387.9,474.995C1387.9,469.749 1383.65,465.495 1378.4,465.495L1304.38,465.495C1299.6,465.495 1295.56,469.053 1294.96,473.799L1290.96,505.262ZM1378.4,474.995L1378.4,693.272L1328.79,693.272L1328.79,545.912L1308.97,693.272L1273.78,693.272L1252.88,549.282L1252.88,693.272L1203.27,693.272L1203.27,474.995L1276.75,474.995C1278.9,488.118 1281.2,503.578 1283.62,521.374L1291.44,576.921L1304.38,474.995L1378.4,474.995Z"/>
				<path d="M1401.19,474.995L1458.35,474.995C1473.81,474.995 1485.7,476.209 1494.01,478.636C1502.33,481.062 1508.57,484.568 1512.75,489.152C1516.93,493.736 1519.76,499.286 1521.25,505.802C1522.73,512.319 1523.47,522.408 1523.47,536.07L1523.47,555.08C1523.47,569.011 1522.03,579.168 1519.16,585.55C1516.28,591.931 1511,596.83 1503.32,600.245C1495.63,603.661 1485.59,605.368 1473.18,605.368L1457.95,605.368L1457.95,693.272L1401.19,693.272L1401.19,474.995ZM1457.95,512.341L1457.95,567.888C1459.57,567.978 1460.96,568.023 1462.13,568.023C1467.34,568.023 1470.96,566.742 1472.98,564.18C1475,561.619 1476.01,556.293 1476.01,548.204L1476.01,530.272C1476.01,522.812 1474.85,517.959 1472.51,515.712C1470.17,513.465 1465.32,512.341 1457.95,512.341Z" style="fill:rgb(251,202,27);fill-rule:nonzero;"/>
				<path d="M1401.19,465.495C1395.94,465.495 1391.69,469.749 1391.69,474.995L1391.69,693.272C1391.69,698.519 1395.94,702.772 1401.19,702.772L1457.95,702.772C1463.19,702.772 1467.45,698.519 1467.45,693.272L1467.45,614.868C1467.45,614.868 1473.18,614.868 1473.18,614.868C1487.18,614.868 1498.5,612.782 1507.17,608.926C1517.27,604.441 1524.04,597.834 1527.82,589.453C1531.07,582.245 1532.97,570.815 1532.97,555.08L1532.97,536.07C1532.97,521.454 1532.1,510.666 1530.51,503.694C1528.64,495.489 1525.04,488.523 1519.77,482.751C1514.6,477.072 1506.97,472.523 1496.67,469.516C1487.74,466.907 1474.97,465.495 1458.35,465.495L1401.19,465.495ZM1401.19,474.995L1458.35,474.995C1473.81,474.995 1485.7,476.209 1494.01,478.636C1502.33,481.062 1508.57,484.568 1512.75,489.152C1516.93,493.736 1519.76,499.286 1521.25,505.802C1522.73,512.319 1523.47,522.408 1523.47,536.07L1523.47,555.08C1523.47,569.011 1522.03,579.168 1519.16,585.55C1516.28,591.931 1511,596.83 1503.32,600.245C1495.63,603.661 1485.59,605.368 1473.18,605.368L1457.95,605.368L1457.95,693.272L1401.19,693.272L1401.19,474.995ZM1457.95,512.341L1457.95,567.888C1459.57,567.978 1460.96,568.023 1462.13,568.023C1467.34,568.023 1470.96,566.742 1472.98,564.18C1475,561.619 1476.01,556.293 1476.01,548.204L1476.01,530.272C1476.01,522.812 1474.85,517.959 1472.51,515.712C1470.17,513.465 1465.32,512.341 1457.95,512.341Z"/>
			</g>
		</g>
	</g>
</svg>
