<svg
        xmlns="http://www.w3.org/2000/svg"
        xmlSpace="preserve"
        fillRule="evenodd"
        strokeLinecap="round"
        strokeLinejoin="round"
        strokeMiterlimit="1.5"
        clipRule="evenodd"
        viewBox="0 0 6400 2400">
        

<g id="piece-path"><path id="_-Curve-15" xmlns:serif="http://www.serif.com/" serif:id="(Curve)" d="M6401,2341C6400.27,2341 6319.29,2340.38 6178.51,2339.27C5982.24,2337.72 5759,2308.3 5376.32,2305.26C5157.03,2303.51 4834.12,2305.53 4579.42,2309.2C4404.09,2311.74 4212.61,2323.6 4028.02,2322.11C3782.03,2320.13 3569.01,2308.48 3315.62,2307.36C3110.98,2306.46 2906.1,2325.55 2704.49,2324.67C2453.25,2323.56 2265.81,2312.69 2028.6,2312.15C1709.89,2311.43 1458.17,2321 1188.51,2321C780.706,2321 446.208,2341 237.127,2341L-2,2341L-2,2171L314.43,2171C596.408,2171 1087.81,2136.66 1426.23,2140.9C1836.16,2146.04 2418.9,2164.63 2601.75,2159.15C2794.52,2153.37 3195.72,2148.09 3339.05,2148.53C3487.69,2148.97 3910.47,2181.94 4068.15,2173.16C4154.61,2168.35 4320.76,2159.43 4605.21,2156.63C4901.13,2153.71 5133.65,2156.74 5437.2,2142.33C5611.3,2134.07 5869.51,2169.31 6081.55,2169.19C6264.9,2169.09 6401,2171 6401,2171L6401,2341Z" style="fill:rgb(174,156,96);stroke:black;stroke-width:2px;"/>
                        <path id="_-Curve-16" xmlns:serif="http://www.serif.com/" serif:id="(Curve)" d="M6401,2341C6400.27,2341 6319.29,2340.38 6178.51,2339.27C5982.24,2337.72 5759,2308.3 5376.32,2305.26C5157.03,2303.51 4834.12,2305.53 4579.42,2309.2C4404.09,2311.74 4212.61,2323.6 4028.02,2322.11C3782.03,2320.13 3569.01,2308.48 3315.62,2307.36C3110.98,2306.46 2906.1,2325.55 2704.49,2324.67C2453.25,2323.56 2265.81,2312.69 2028.6,2312.15C1709.89,2311.43 1458.17,2321 1188.51,2321C780.706,2321 446.208,2341 237.127,2341L-2,2341L-2,2171L314.43,2171C596.408,2171 1087.81,2136.66 1426.23,2140.9C1836.16,2146.04 2418.9,2164.63 2601.75,2159.15C2794.52,2153.37 3195.72,2148.09 3339.05,2148.53C3487.69,2148.97 3910.47,2181.94 4068.15,2173.16C4154.61,2168.35 4320.76,2159.43 4605.21,2156.63C4901.13,2153.71 5133.65,2156.74 5437.2,2142.33C5611.3,2134.07 5869.51,2169.31 6081.55,2169.19C6264.9,2169.09 6401,2171 6401,2171L6401,2341Z" style="fill:url(#_Linear4);"/></g><g id="piece-grassy-clumps"><g xmlns="http://www.w3.org/2000/svg">
	<path d="M2328.95,2125.02C2328.95,2125.02 2334.26,2132.62 2335.8,2143.51" style="fill:none;stroke:black;stroke-width:2px;"/>
	<path d="M2344.15,2122.46C2344.15,2122.46 2350.26,2125.26 2351.45,2135.92" style="fill:none;stroke:black;stroke-width:2px;"/>
	<path d="M2361.24,2115.09C2361.24,2115.09 2362.21,2123.99 2369.55,2129.34C2370.27,2129.86 2370.12,2108.85 2367.05,2098.18C2364.69,2089.97 2375.95,2110.51 2382.36,2127.96C2382.85,2129.28 2383.19,2112.43 2381.55,2101.76C2380.74,2096.43 2394.06,2122.42 2396.3,2129.29C2397.54,2133.12 2401.33,2128.87 2403.66,2117.75C2404.27,2114.83 2411.05,2115.53 2411.78,2122.57C2412.3,2127.56 2416.48,2108.05 2416.32,2101.59C2416.16,2095.54 2426.8,2125.13 2430.15,2125.99C2433.49,2126.86 2440.47,2109.12 2439.35,2098.99C2438.74,2093.45 2445.04,2110.49 2445.16,2121.18C2445.27,2131.86 2459.33,2124.86 2461.02,2119.57C2464.06,2110.06 2465.78,2124.67 2466.59,2131.17C2467.41,2137.68 2473.51,2129.26 2477.96,2121.84C2482.41,2114.41 2483.06,2125.48 2484.39,2133.28C2485.71,2141.07 2488.37,2127.8 2505.72,2125.69C2523.07,2123.59 2485.04,2140.28 2485.04,2140.28L2369.38,2137.57L2361.24,2115.09Z" style="fill:rgb(0,120,33);"/>
	<path d="M2361.24,2115.09C2361.24,2115.09 2362.21,2123.99 2369.55,2129.34C2370.27,2129.86 2370.12,2108.85 2367.05,2098.18C2364.69,2089.97 2375.95,2110.51 2382.36,2127.96C2382.85,2129.28 2383.19,2112.43 2381.55,2101.76C2380.74,2096.43 2394.06,2122.42 2396.3,2129.29C2397.54,2133.12 2401.33,2128.87 2403.66,2117.75C2404.27,2114.83 2411.05,2115.53 2411.78,2122.57C2412.3,2127.56 2416.48,2108.05 2416.32,2101.59C2416.16,2095.54 2426.8,2125.13 2430.15,2125.99C2433.49,2126.86 2440.47,2109.12 2439.35,2098.99C2438.74,2093.45 2445.04,2110.49 2445.16,2121.18C2445.27,2131.86 2459.33,2124.86 2461.02,2119.57C2464.06,2110.06 2465.78,2124.67 2466.59,2131.17C2467.41,2137.68 2473.51,2129.26 2477.96,2121.84C2482.41,2114.41 2483.06,2125.48 2484.39,2133.28C2485.71,2141.07 2488.37,2127.8 2505.72,2125.69" style="fill:none;stroke:black;stroke-width:2px;"/>
</g>
<g xmlns="http://www.w3.org/2000/svg">
	<path d="M202.643,2169.32C203.593,2157.66 221.597,2156.49 221.597,2156.49C221.597,2156.49 208.186,2141.57 194.835,2161.37C181.485,2181.17 194.709,2138.8 192.625,2139.95C190.54,2141.1 185.65,2148.26 182.655,2154.93C179.659,2161.6 180.957,2142.75 183.606,2134.31C186.255,2125.87 174.032,2145.17 171.224,2152.55C168.416,2159.93 167.625,2150.4 170.513,2141.51C173.4,2132.61 159.852,2153.1 158.063,2160.19C156.274,2167.28 158.1,2140.76 160.569,2137.01C163.039,2133.26 140.913,2149.41 139.114,2156.84C137.314,2164.26 144.86,2128.35 144.318,2120.94C143.776,2113.52 129.983,2141.67 127.809,2148.24C125.635,2154.8 136.585,2111.01 137.272,2108.86C139.827,2100.84 116.944,2134.73 112.234,2152.1C112.013,2152.91 113.956,2133.17 105.978,2146.57C105.381,2147.57 106.694,2137 106.479,2136.78C101.506,2131.74 96.256,2143.6 92.078,2149.58C91.996,2149.7 97.741,2125.42 95.371,2130.43C94.959,2131.3 88.146,2140.51 87.616,2140.64C82.048,2142.01 83.146,2119.77 82.917,2120.44C80.978,2126.18 84.038,2145.95 78.326,2158.5C76.618,2162.26 86.643,2163.95 86.643,2163.95" style="fill:rgb(0,120,33);"/>
	<path d="M65.577,2142.8C64.267,2151.46 66.898,2153.43 66.898,2153.43" style="fill:none;stroke:black;stroke-width:2px;"/>
	<path d="M57.068,2141.65C57.068,2141.65 54.152,2147.28 56.763,2154.68" style="fill:none;stroke:black;stroke-width:2px;"/>
	<path d="M27.54,2150.36C22.538,2155.33 27.801,2160.79 27.801,2160.79L44.77,2161.57C44.77,2161.57 47.942,2156.49 46.724,2157.3C45.506,2158.11 43.054,2149.8 42.703,2148.77C40.887,2143.43 37.422,2158.96 36.942,2158.99C34.203,2159.21 32.085,2147.9 32.053,2147.68C31.767,2145.74 30.427,2147.49 27.54,2150.36Z" style="fill:rgb(0,120,33);"/>
	<path d="M46.724,2157.3C45.506,2158.11 43.054,2149.8 42.703,2148.77C40.887,2143.43 37.422,2158.96 36.942,2158.99C34.203,2159.21 32.085,2147.9 32.053,2147.68C31.767,2145.74 30.427,2147.49 27.54,2150.36" style="fill:none;stroke:black;stroke-width:2px;"/>
	<path d="M221.364,2156.53C221.364,2156.53 207.953,2141.62 194.603,2161.41C181.253,2181.21 194.477,2138.84 192.392,2139.99C190.307,2141.14 185.417,2148.3 182.422,2154.97C179.427,2161.64 180.725,2142.79 183.374,2134.35C186.023,2125.91 173.799,2145.21 170.991,2152.59C168.183,2159.97 167.393,2150.44 170.28,2141.55C173.167,2132.65 159.619,2153.14 157.83,2160.23C156.041,2167.32 157.867,2140.8 160.337,2137.05C162.806,2133.3 140.68,2149.45 138.881,2156.88C137.082,2164.3 144.627,2128.39 144.085,2120.98C143.543,2113.56 129.751,2141.72 127.576,2148.28C125.402,2154.84 136.352,2111.05 137.039,2108.9C139.595,2100.89 116.712,2134.77 112.002,2152.14C111.78,2152.96 113.724,2133.22 105.746,2146.61C105.148,2147.61 106.462,2137.05 106.246,2136.83C101.274,2131.78 96.023,2143.64 91.845,2149.62C91.763,2149.74 97.508,2125.46 95.139,2130.47C94.726,2131.34 87.914,2140.55 87.383,2140.68C81.816,2142.05 82.913,2119.81 82.685,2120.49C80.745,2126.23 83.805,2145.99 78.094,2158.54" style="fill:none;stroke:black;stroke-width:2px;"/>
</g>
<g xmlns="http://www.w3.org/2000/svg">
	<path d="M928.021,2066.96C933.487,2083.36 938.434,2093.79 938.538,2102.18C938.561,2104.09 943.98,2061.49 944.564,2060.78C947.113,2057.7 947.249,2086.39 948.631,2091.74C949.163,2093.8 951.575,2043.34 954.915,2048.57C955.603,2049.65 957.494,2078.17 959.677,2080.39C961.861,2082.62 965.284,2056.83 966.4,2062.87C967.515,2068.91 971.467,2083.94 973.432,2092.32C975.397,2100.69 976.946,2066.34 978.722,2074.04C980.498,2081.74 986.3,2079.46 985.103,2086.28C983.906,2093.1 1008.63,2062.53 1015.63,2058.92C1016.74,2058.35 1017.75,2074.65 1010.57,2086.76C1009.5,2088.57 1027.03,2068.54 1027.7,2077.79C1027.83,2079.6 1024.77,2085.93 1027.08,2091.04C1027.42,2091.81 1051.59,2090.79 1057.05,2091.05C1062.51,2091.3 938.002,2106.92 938.002,2106.92C938.002,2106.92 922.555,2050.56 928.021,2066.96Z" style="fill:rgb(0,120,33);"/>
	<path d="M928.021,2066.96C933.487,2083.36 938.434,2093.79 938.538,2102.18C938.561,2104.09 943.98,2061.49 944.564,2060.78C947.113,2057.7 947.249,2086.39 948.631,2091.74C949.163,2093.8 951.575,2043.34 954.915,2048.57C955.603,2049.65 957.494,2078.17 959.677,2080.39C961.861,2082.62 965.284,2056.83 966.4,2062.87C967.515,2068.91 971.467,2083.94 973.432,2092.32C975.397,2100.69 976.946,2066.34 978.722,2074.04C980.498,2081.74 986.3,2079.46 985.103,2086.28C983.906,2093.1 1008.63,2062.53 1015.63,2058.92C1016.74,2058.35 1017.75,2074.65 1010.57,2086.76C1009.5,2088.57 1027.03,2068.54 1027.7,2077.79C1027.83,2079.6 1024.77,2085.93 1027.08,2091.04C1027.42,2091.81 1051.59,2090.79 1057.05,2091.05" style="fill:none;stroke:black;stroke-width:2px;"/>
</g>
<g xmlns="http://www.w3.org/2000/svg">
	<path d="M3290.35,2125.07L3286.77,2134.96L3170.39,2147.69L3141.08,2130.11C3141.08,2130.11 3152.07,2136.94 3152.06,2136.85C3151.81,2134.29 3143.86,2113.16 3144.8,2113.55C3150.26,2115.8 3163.58,2127.28 3174.32,2145.7C3174.52,2146.03 3169.21,2118.14 3167.68,2113.26C3167.08,2111.3 3183.5,2132.46 3187.31,2141.04C3187.69,2141.9 3188.61,2121.58 3188.61,2121.58C3188.61,2121.58 3197.68,2132.4 3201.05,2139.62C3201.69,2141.01 3204.82,2100.51 3205.11,2100.6C3206.63,2101.07 3214.57,2117.05 3213.62,2132.08C3213.4,2135.51 3215.18,2114.09 3217.86,2114.53C3220.53,2114.98 3220.24,2134.68 3222.84,2136.41C3223.06,2136.56 3238.84,2086.98 3251.48,2092.81C3251.73,2092.93 3238.52,2120.12 3242.12,2123.55C3242.5,2123.91 3255.09,2112.28 3257.39,2114.91C3257.78,2115.37 3249.63,2131.6 3252.07,2131.29C3252.55,2131.23 3266.56,2118.73 3266.6,2121.91C3266.6,2122.28 3262.63,2132.75 3265.69,2132.97C3265.98,2132.99 3273.91,2122.73 3274.44,2125.7C3274.49,2125.98 3270.93,2130.79 3272.49,2133.07C3274.04,2135.36 3290.35,2125.07 3290.35,2125.07Z" style="fill:rgb(0,120,33);"/>
	<path d="M3141.08,2130.11C3141.08,2130.11 3152.07,2136.94 3152.06,2136.85C3151.81,2134.29 3143.86,2113.16 3144.8,2113.55C3150.26,2115.8 3163.58,2127.28 3174.32,2145.7C3174.52,2146.03 3169.21,2118.14 3167.68,2113.26C3167.08,2111.3 3183.5,2132.46 3187.31,2141.04C3187.69,2141.9 3188.61,2121.58 3188.61,2121.58C3188.61,2121.58 3197.68,2132.4 3201.05,2139.62C3201.69,2141.01 3204.82,2100.51 3205.11,2100.6C3206.63,2101.07 3214.57,2117.05 3213.62,2132.08C3213.4,2135.51 3215.18,2114.09 3217.86,2114.53C3220.53,2114.98 3220.24,2134.68 3222.84,2136.41C3223.06,2136.56 3238.84,2086.98 3251.48,2092.81C3251.73,2092.93 3238.52,2120.12 3242.12,2123.55C3242.5,2123.91 3255.09,2112.28 3257.39,2114.91C3257.78,2115.37 3249.63,2131.6 3252.07,2131.29C3252.55,2131.23 3266.56,2118.73 3266.6,2121.91C3266.6,2122.28 3262.63,2132.75 3265.69,2132.97C3265.98,2132.99 3273.91,2122.73 3274.44,2125.7C3274.49,2125.98 3270.93,2130.79 3272.49,2133.07C3274.04,2135.36 3290.35,2125.07 3290.35,2125.07" style="fill:none;stroke:black;stroke-width:2px;"/>
</g>
<g xmlns="http://www.w3.org/2000/svg">
	<path d="M1597.92,2123.4C1598.16,2123.74 1600.27,2106.64 1598.49,2101.9C1597.78,2100 1610.69,2112.71 1615.33,2121.23C1615.79,2122.08 1615.01,2105.05 1615.01,2105.05C1614.82,2104.69 1619.71,2105.98 1626.91,2118.95C1627.68,2120.34 1627.52,2105.76 1627.91,2105.89C1629.89,2106.57 1637.59,2104.77 1635.62,2118.44C1635.17,2121.57 1641.8,2107.6 1645.4,2108.04C1647.1,2108.24 1647.62,2106.11 1650.99,2108.13C1651.27,2108.3 1666.96,2086.93 1674.74,2091.02C1675.07,2091.19 1663.93,2117.57 1665.87,2122.67C1666.11,2123.3 1680.57,2107.59 1683.48,2110.4C1683.99,2110.88 1677.35,2122.44 1680.59,2122.55C1681.22,2122.57 1692.18,2114.28 1692.09,2117.2C1692.07,2117.54 1687.28,2124.39 1691.32,2125.08" style="fill:rgb(0,120,33);"/>
	<path d="M1597.92,2123.4C1598.16,2123.74 1600.27,2106.64 1598.49,2101.9C1597.78,2100 1610.69,2112.71 1615.33,2121.23C1615.79,2122.08 1615.01,2105.05 1615.01,2105.05C1614.82,2104.69 1619.71,2105.98 1626.91,2118.95C1627.68,2120.34 1627.52,2105.76 1627.91,2105.89C1629.89,2106.57 1637.59,2104.77 1635.62,2118.44C1635.17,2121.57 1641.8,2107.6 1645.4,2108.04C1647.1,2108.24 1647.62,2106.11 1650.99,2108.13C1651.27,2108.3 1666.96,2086.93 1674.74,2091.02C1675.07,2091.19 1663.93,2117.57 1665.87,2122.67C1666.11,2123.3 1680.57,2107.59 1683.48,2110.4C1683.99,2110.88 1677.35,2122.44 1680.59,2122.55C1681.22,2122.57 1692.18,2114.28 1692.09,2117.2C1692.07,2117.54 1687.28,2124.39 1691.32,2125.08" style="fill:none;stroke:black;stroke-width:2px;"/>
</g>
<g xmlns="http://www.w3.org/2000/svg">
	<path d="M5129.75,2315.53C5129.75,2315.53 5134.53,2323.48 5135.33,2334.45" style="fill:none;stroke:black;stroke-width:2px;"/>
	<path d="M5145.1,2314.01C5145.1,2314.01 5151,2317.22 5151.46,2327.94" style="fill:none;stroke:black;stroke-width:2px;"/>
	<path d="M5162.65,2307.83C5162.65,2307.83 5163.01,2316.77 5169.97,2322.61C5170.65,2323.18 5171.93,2302.21 5169.6,2291.35C5167.8,2283 5177.64,2304.26 5182.84,2322.1C5183.24,2323.46 5184.73,2306.66 5183.82,2295.91C5183.37,2290.54 5194.9,2317.38 5196.66,2324.38C5197.64,2328.29 5201.7,2324.3 5204.79,2313.37C5205.6,2310.5 5212.32,2311.66 5212.57,2318.73C5212.74,2323.75 5218.24,2304.57 5218.52,2298.12C5218.78,2292.07 5227.38,2322.31 5230.65,2323.4C5233.93,2324.49 5242.1,2307.27 5241.68,2297.08C5241.45,2291.52 5246.57,2308.95 5245.96,2319.62C5245.34,2330.29 5259.84,2324.26 5261.89,2319.1C5265.57,2309.82 5266.29,2324.51 5266.66,2331.05C5267.03,2337.6 5273.7,2329.61 5278.64,2322.51C5283.58,2315.41 5283.48,2326.49 5284.27,2334.36C5285.06,2342.23 5288.62,2329.17 5306.07,2328.25C5323.53,2327.34 5284.45,2341.4 5284.45,2341.4L5169.24,2330.81L5162.65,2307.83Z" style="fill:rgb(0,120,33);"/>
	<path d="M5162.65,2307.83C5162.65,2307.83 5163.01,2316.77 5169.97,2322.61C5170.65,2323.18 5171.93,2302.21 5169.6,2291.35C5167.8,2283 5177.64,2304.26 5182.84,2322.1C5183.24,2323.46 5184.73,2306.66 5183.82,2295.91C5183.37,2290.54 5194.9,2317.38 5196.66,2324.38C5197.64,2328.29 5201.7,2324.3 5204.79,2313.37C5205.6,2310.5 5212.32,2311.66 5212.57,2318.73C5212.74,2323.75 5218.24,2304.57 5218.52,2298.12C5218.78,2292.07 5227.38,2322.31 5230.65,2323.4C5233.93,2324.49 5242.1,2307.27 5241.68,2297.08C5241.45,2291.52 5246.57,2308.95 5245.96,2319.62C5245.34,2330.29 5259.84,2324.26 5261.89,2319.1C5265.57,2309.82 5266.29,2324.51 5266.66,2331.05C5267.03,2337.6 5273.7,2329.61 5278.64,2322.51C5283.58,2315.41 5283.48,2326.49 5284.27,2334.36C5285.06,2342.23 5288.62,2329.17 5306.07,2328.25" style="fill:none;stroke:black;stroke-width:2px;"/>
</g>
<g xmlns="http://www.w3.org/2000/svg">
	<path d="M2787.87,2351.57C2788.82,2339.9 2806.82,2338.74 2806.82,2338.74C2806.82,2338.74 2793.41,2323.82 2780.06,2343.62C2766.71,2363.42 2779.93,2321.04 2777.85,2322.19C2775.76,2323.35 2770.87,2330.51 2767.88,2337.18C2764.88,2343.84 2766.18,2325 2768.83,2316.56C2771.48,2308.12 2759.25,2327.41 2756.45,2334.8C2753.64,2342.18 2752.85,2332.64 2755.74,2323.75C2758.62,2314.86 2745.07,2335.34 2743.28,2342.43C2741.5,2349.53 2743.32,2323.01 2745.79,2319.26C2748.26,2315.5 2726.14,2331.65 2724.34,2339.08C2722.54,2346.51 2730.08,2310.6 2729.54,2303.18C2729,2295.77 2715.21,2323.92 2713.03,2330.48C2710.86,2337.05 2721.81,2293.26 2722.49,2291.1C2725.05,2283.09 2702.17,2316.97 2697.46,2334.34C2697.24,2335.16 2699.18,2315.42 2691.2,2328.81C2690.6,2329.82 2691.92,2319.25 2691.7,2319.03C2686.73,2313.99 2681.48,2325.84 2677.3,2331.83C2677.22,2331.94 2682.96,2307.67 2680.59,2312.68C2680.18,2313.55 2673.37,2322.76 2672.84,2322.89C2667.27,2324.26 2668.37,2302.01 2668.14,2302.69C2666.2,2308.43 2669.26,2328.19 2663.55,2340.75C2661.84,2344.5 2671.87,2346.19 2671.87,2346.19" style="fill:rgb(0,120,33);"/>
	<path d="M2650.8,2325.05C2649.49,2333.71 2652.12,2335.67 2652.12,2335.67" style="fill:none;stroke:black;stroke-width:2px;"/>
	<path d="M2642.29,2323.89C2642.29,2323.89 2639.37,2329.52 2641.99,2336.93" style="fill:none;stroke:black;stroke-width:2px;"/>
	<path d="M2612.76,2332.61C2607.76,2337.58 2613.02,2343.04 2613.02,2343.04L2629.99,2343.82C2629.99,2343.82 2633.16,2338.73 2631.95,2339.54C2630.73,2340.35 2628.28,2332.05 2627.93,2331.02C2626.11,2325.67 2622.64,2341.2 2622.16,2341.24C2619.43,2341.46 2617.31,2330.14 2617.28,2329.93C2616.99,2327.98 2615.65,2329.74 2612.76,2332.61Z" style="fill:rgb(0,120,33);"/>
	<path d="M2631.95,2339.54C2630.73,2340.35 2628.28,2332.05 2627.93,2331.02C2626.11,2325.67 2622.64,2341.2 2622.16,2341.24C2619.43,2341.46 2617.31,2330.14 2617.28,2329.93C2616.99,2327.98 2615.65,2329.74 2612.76,2332.61" style="fill:none;stroke:black;stroke-width:2px;"/>
	<path d="M2806.59,2338.78C2806.59,2338.78 2793.18,2323.86 2779.83,2343.66C2766.47,2363.46 2779.7,2321.08 2777.61,2322.24C2775.53,2323.39 2770.64,2330.55 2767.64,2337.22C2764.65,2343.88 2765.95,2325.04 2768.6,2316.6C2771.24,2308.16 2759.02,2327.46 2756.21,2334.84C2753.41,2342.22 2752.62,2332.69 2755.5,2323.79C2758.39,2314.9 2744.84,2335.38 2743.05,2342.48C2741.26,2349.57 2743.09,2323.05 2745.56,2319.3C2748.03,2315.54 2725.9,2331.7 2724.1,2339.12C2722.3,2346.55 2729.85,2310.64 2729.31,2303.22C2728.76,2295.81 2714.97,2323.96 2712.8,2330.53C2710.62,2337.09 2721.58,2293.3 2722.26,2291.14C2724.82,2283.13 2701.93,2317.02 2697.22,2334.39C2697,2335.2 2698.95,2315.46 2690.97,2328.86C2690.37,2329.86 2691.68,2319.29 2691.47,2319.07C2686.5,2314.03 2681.24,2325.89 2677.07,2331.87C2676.99,2331.99 2682.73,2307.71 2680.36,2312.72C2679.95,2313.59 2673.14,2322.8 2672.61,2322.93C2667.04,2324.3 2668.14,2302.05 2667.91,2302.73C2665.97,2308.47 2669.03,2328.24 2663.32,2340.79" style="fill:none;stroke:black;stroke-width:2px;"/>
</g>
<g xmlns="http://www.w3.org/2000/svg">
	<path d="M3549.02,2309.69C3556.94,2325.06 3563.42,2334.6 3564.81,2342.88C3565.13,2344.76 3563.95,2301.84 3564.42,2301.05C3566.47,2297.62 3571,2325.95 3573.19,2331.01C3574.03,2332.97 3568.68,2282.73 3572.78,2287.39C3573.62,2288.35 3579.86,2316.24 3582.36,2318.11C3584.86,2319.98 3584.29,2293.97 3586.32,2299.76C3588.35,2305.56 3594.56,2319.81 3597.78,2327.78C3601.01,2335.76 3597.27,2301.57 3600.21,2308.91C3603.15,2316.25 3608.53,2313.11 3608.39,2320.03C3608.25,2326.95 3628,2292.95 3634.37,2288.32C3635.38,2287.58 3638.87,2303.53 3633.63,2316.6C3632.85,2318.56 3647.11,2296.07 3649.18,2305.11C3649.59,2306.88 3647.54,2313.61 3650.6,2318.3C3651.06,2319.01 3674.78,2314.3 3680.22,2313.71C3685.65,2313.13 3565.01,2347.64 3565.01,2347.64C3565.01,2347.64 3541.11,2294.32 3549.02,2309.69Z" style="fill:rgb(0,120,33);"/>
	<path d="M3549.02,2309.69C3556.94,2325.06 3563.42,2334.6 3564.81,2342.88C3565.13,2344.76 3563.95,2301.84 3564.42,2301.05C3566.47,2297.62 3571,2325.95 3573.19,2331.01C3574.03,2332.97 3568.68,2282.73 3572.78,2287.39C3573.62,2288.35 3579.86,2316.24 3582.36,2318.11C3584.86,2319.98 3584.29,2293.97 3586.32,2299.76C3588.35,2305.56 3594.56,2319.81 3597.78,2327.78C3601.01,2335.76 3597.27,2301.57 3600.21,2308.91C3603.15,2316.25 3608.53,2313.11 3608.39,2320.03C3608.25,2326.95 3628,2292.95 3634.37,2288.32C3635.38,2287.58 3638.87,2303.53 3633.63,2316.6C3632.85,2318.56 3647.11,2296.07 3649.18,2305.11C3649.59,2306.88 3647.54,2313.61 3650.6,2318.3C3651.06,2319.01 3674.78,2314.3 3680.22,2313.71" style="fill:none;stroke:black;stroke-width:2px;"/>
</g>
<g xmlns="http://www.w3.org/2000/svg">
	<path d="M6129.7,2330.52L6125.48,2340.18L6005.57,2345.79L5976.5,2326.45C5976.5,2326.45 5987.39,2333.94 5987.38,2333.85C5987.27,2331.28 5980.28,2309.69 5981.22,2310.13C5986.7,2312.71 5999.71,2324.99 6009.71,2344.04C6009.89,2344.39 6005.97,2316.2 6004.68,2311.24C6004.16,2309.25 6019.83,2331.38 6023.26,2340.18C6023.61,2341.06 6025.66,2320.83 6025.66,2320.83C6025.66,2320.83 6034.37,2332.19 6037.41,2339.6C6038,2341.03 6043.41,2300.77 6043.71,2300.88C6045.24,2301.44 6052.5,2317.88 6050.7,2332.84C6050.29,2336.25 6053.29,2314.97 6056.01,2315.57C6058.73,2316.18 6057.34,2335.84 6059.91,2337.73C6060.13,2337.89 6079,2289.34 6091.63,2295.93C6091.89,2296.06 6076.87,2322.41 6080.36,2326.05C6080.74,2326.44 6094.27,2315.59 6096.48,2318.36C6096.86,2318.84 6087.62,2334.56 6090.14,2334.4C6090.63,2334.37 6105.67,2322.74 6105.53,2325.91C6105.52,2326.28 6100.88,2336.5 6104,2336.9C6104.3,2336.94 6112.98,2327.18 6113.36,2330.18C6113.39,2330.46 6109.49,2335.05 6110.95,2337.42C6112.42,2339.8 6129.7,2330.52 6129.7,2330.52Z" style="fill:rgb(0,120,33);"/>
	<path d="M5976.5,2326.45C5976.5,2326.45 5987.39,2333.94 5987.38,2333.85C5987.27,2331.28 5980.28,2309.69 5981.22,2310.13C5986.7,2312.71 5999.71,2324.99 6009.71,2344.04C6009.89,2344.39 6005.97,2316.2 6004.68,2311.24C6004.16,2309.25 6019.83,2331.38 6023.26,2340.18C6023.61,2341.06 6025.66,2320.83 6025.66,2320.83C6025.66,2320.83 6034.37,2332.19 6037.41,2339.6C6038,2341.03 6043.41,2300.77 6043.71,2300.88C6045.24,2301.44 6052.5,2317.88 6050.7,2332.84C6050.29,2336.25 6053.29,2314.97 6056.01,2315.57C6058.73,2316.18 6057.34,2335.84 6059.91,2337.73C6060.13,2337.89 6079,2289.34 6091.63,2295.93C6091.89,2296.06 6076.87,2322.41 6080.36,2326.05C6080.74,2326.44 6094.27,2315.59 6096.48,2318.36C6096.86,2318.84 6087.62,2334.56 6090.14,2334.4C6090.63,2334.37 6105.67,2322.74 6105.53,2325.91C6105.52,2326.28 6100.88,2336.5 6104,2336.9C6104.3,2336.94 6112.98,2327.18 6113.36,2330.18C6113.39,2330.46 6109.49,2335.05 6110.95,2337.42C6112.42,2339.8 6129.7,2330.52 6129.7,2330.52" style="fill:none;stroke:black;stroke-width:2px;"/>
</g>
<g xmlns="http://www.w3.org/2000/svg">
	<path d="M4339.26,2333.84C4339.56,2334.13 4338.47,2316.93 4335.84,2312.61C4334.78,2310.88 4349.84,2320.97 4355.97,2328.48C4356.58,2329.24 4352.66,2312.65 4352.66,2312.65C4352.4,2312.32 4357.45,2312.69 4366.93,2324.1C4367.94,2325.32 4365.08,2311.02 4365.49,2311.08C4367.56,2311.37 4374.79,2308.18 4375.4,2321.98C4375.53,2325.14 4379.46,2310.18 4383.07,2309.94C4384.78,2309.83 4384.9,2307.64 4388.58,2309C4388.89,2309.12 4400.35,2285.2 4408.75,2287.78C4409.1,2287.89 4403.04,2315.87 4405.9,2320.52C4406.25,2321.1 4417.55,2302.99 4420.93,2305.2C4421.52,2305.58 4417.14,2318.17 4420.34,2317.68C4420.97,2317.58 4430.2,2307.4 4430.65,2310.29C4430.7,2310.63 4427.26,2318.24 4431.35,2318.18" style="fill:rgb(0,120,33);"/>
	<path d="M4339.26,2333.84C4339.56,2334.13 4338.47,2316.93 4335.84,2312.61C4334.78,2310.88 4349.84,2320.97 4355.97,2328.48C4356.58,2329.24 4352.66,2312.65 4352.66,2312.65C4352.4,2312.32 4357.45,2312.69 4366.93,2324.1C4367.94,2325.32 4365.08,2311.02 4365.49,2311.08C4367.56,2311.37 4374.79,2308.18 4375.4,2321.98C4375.53,2325.14 4379.46,2310.18 4383.07,2309.94C4384.78,2309.83 4384.9,2307.64 4388.58,2309C4388.89,2309.12 4400.35,2285.2 4408.75,2287.78C4409.1,2287.89 4403.04,2315.87 4405.9,2320.52C4406.25,2321.1 4417.55,2302.99 4420.93,2305.2C4421.52,2305.58 4417.14,2318.17 4420.34,2317.68C4420.97,2317.58 4430.2,2307.4 4430.65,2310.29C4430.7,2310.63 4427.26,2318.24 4431.35,2318.18" style="fill:none;stroke:black;stroke-width:2px;"/>
</g>
<g xmlns="http://www.w3.org/2000/svg">
	<path d="M1159.06,2322.18C1159.06,2322.18 1163.84,2330.13 1164.63,2341.1" style="fill:none;stroke:black;stroke-width:2px;"/>
	<path d="M1174.4,2320.67C1174.4,2320.67 1180.31,2323.88 1180.76,2334.59" style="fill:none;stroke:black;stroke-width:2px;"/>
	<path d="M1191.95,2314.48C1191.95,2314.48 1192.31,2323.42 1199.27,2329.26C1199.95,2329.83 1201.24,2308.86 1198.9,2298C1197.1,2289.65 1206.94,2310.91 1212.15,2328.75C1212.54,2330.11 1214.03,2313.32 1213.13,2302.57C1212.68,2297.19 1224.2,2324.03 1225.96,2331.03C1226.94,2334.94 1231.01,2330.95 1234.09,2320.02C1234.9,2317.15 1241.62,2318.31 1241.87,2325.38C1242.05,2330.4 1247.55,2311.22 1247.82,2304.77C1248.08,2298.72 1256.68,2328.96 1259.96,2330.05C1263.23,2331.15 1271.4,2313.92 1270.98,2303.74C1270.75,2298.17 1275.87,2315.6 1275.26,2326.27C1274.65,2336.94 1289.15,2330.91 1291.19,2325.75C1294.88,2316.47 1295.59,2331.16 1295.96,2337.7C1296.34,2344.25 1303,2336.26 1307.94,2329.16C1312.88,2322.06 1312.78,2333.14 1313.57,2341.01C1314.37,2348.88 1317.92,2335.82 1335.38,2334.9C1352.83,2333.99 1313.75,2348.05 1313.75,2348.05L1198.54,2337.46L1191.95,2314.48Z" style="fill:rgb(0,120,33);"/>
	<path d="M1191.95,2314.48C1191.95,2314.48 1192.31,2323.42 1199.27,2329.26C1199.95,2329.83 1201.24,2308.86 1198.9,2298C1197.1,2289.65 1206.94,2310.91 1212.15,2328.75C1212.54,2330.11 1214.03,2313.32 1213.13,2302.57C1212.68,2297.19 1224.2,2324.03 1225.96,2331.03C1226.94,2334.94 1231.01,2330.95 1234.09,2320.02C1234.9,2317.15 1241.62,2318.31 1241.87,2325.38C1242.05,2330.4 1247.55,2311.22 1247.82,2304.77C1248.08,2298.72 1256.68,2328.96 1259.96,2330.05C1263.23,2331.15 1271.4,2313.92 1270.98,2303.74C1270.75,2298.17 1275.87,2315.6 1275.26,2326.27C1274.65,2336.94 1289.15,2330.91 1291.19,2325.75C1294.88,2316.47 1295.59,2331.16 1295.96,2337.7C1296.34,2344.25 1303,2336.26 1307.94,2329.16C1312.88,2322.06 1312.78,2333.14 1313.57,2341.01C1314.37,2348.88 1317.92,2335.82 1335.38,2334.9" style="fill:none;stroke:black;stroke-width:2px;"/>
</g>
<g xmlns="http://www.w3.org/2000/svg">
	<path d="M2156.48,2318.63L2152.9,2328.52L2036.52,2341.26L2007.21,2323.68C2007.21,2323.68 2018.2,2330.5 2018.19,2330.42C2017.94,2327.86 2009.99,2306.72 2010.92,2307.11C2016.39,2309.36 2029.71,2320.85 2040.45,2339.26C2040.65,2339.6 2035.34,2311.7 2033.81,2306.82C2033.21,2304.87 2049.63,2326.03 2053.44,2334.6C2053.82,2335.46 2054.74,2315.15 2054.74,2315.15C2054.74,2315.15 2063.81,2325.97 2067.18,2333.19C2067.82,2334.57 2070.94,2294.08 2071.24,2294.17C2072.76,2294.64 2080.69,2310.61 2079.75,2325.64C2079.53,2329.08 2081.31,2307.66 2083.99,2308.1C2086.66,2308.54 2086.37,2328.24 2088.97,2329.98C2089.19,2330.13 2104.97,2280.55 2117.61,2286.38C2117.86,2286.49 2104.65,2313.68 2108.24,2317.11C2108.63,2317.48 2121.22,2305.84 2123.51,2308.48C2123.91,2308.93 2115.76,2325.17 2118.2,2324.86C2118.68,2324.8 2132.69,2312.3 2132.73,2315.47C2132.73,2315.84 2128.76,2326.32 2131.82,2326.53C2132.11,2326.55 2140.04,2316.3 2140.57,2319.26C2140.62,2319.54 2137.06,2324.36 2138.62,2326.64C2140.17,2328.93 2156.48,2318.63 2156.48,2318.63Z" style="fill:rgb(0,120,33);"/>
	<path d="M2007.21,2323.68C2007.21,2323.68 2018.2,2330.5 2018.19,2330.42C2017.94,2327.86 2009.99,2306.72 2010.92,2307.11C2016.39,2309.36 2029.71,2320.85 2040.45,2339.26C2040.65,2339.6 2035.34,2311.7 2033.81,2306.82C2033.21,2304.87 2049.63,2326.03 2053.44,2334.6C2053.82,2335.46 2054.74,2315.15 2054.74,2315.15C2054.74,2315.15 2063.81,2325.97 2067.18,2333.19C2067.82,2334.57 2070.94,2294.08 2071.24,2294.17C2072.76,2294.64 2080.69,2310.61 2079.75,2325.64C2079.53,2329.08 2081.31,2307.66 2083.99,2308.1C2086.66,2308.54 2086.37,2328.24 2088.97,2329.98C2089.19,2330.13 2104.97,2280.55 2117.61,2286.38C2117.86,2286.49 2104.65,2313.68 2108.24,2317.11C2108.63,2317.48 2121.22,2305.84 2123.51,2308.48C2123.91,2308.93 2115.76,2325.17 2118.2,2324.86C2118.68,2324.8 2132.69,2312.3 2132.73,2315.47C2132.73,2315.84 2128.76,2326.32 2131.82,2326.53C2132.11,2326.55 2140.04,2316.3 2140.57,2319.26C2140.62,2319.54 2137.06,2324.36 2138.62,2326.64C2140.17,2328.93 2156.48,2318.63 2156.48,2318.63" style="fill:none;stroke:black;stroke-width:2px;"/>
</g>
<g xmlns="http://www.w3.org/2000/svg">
	<path d="M510.19,2339.77C510.457,2340.09 511.202,2322.45 509.049,2317.77C508.187,2315.89 522.078,2327.75 527.373,2336.04C527.904,2336.87 525.774,2319.55 525.774,2319.55C525.55,2319.2 530.533,2320.1 538.744,2332.71C539.626,2334.07 538.301,2319.19 538.7,2319.29C540.731,2319.81 548.266,2317.3 547.391,2331.44C547.192,2334.67 552.689,2319.83 556.308,2319.97C558.024,2320.03 558.377,2317.8 561.89,2319.58C562.189,2319.73 576.131,2296.54 584.216,2300.05C584.555,2300.2 575.542,2328.09 577.885,2333.13C578.176,2333.75 591.348,2316.46 594.472,2319.07C595.011,2319.52 589.313,2331.9 592.555,2331.73C593.188,2331.7 603.455,2322.28 603.591,2325.28C603.606,2325.62 599.372,2333.03 603.45,2333.39" style="fill:rgb(0,120,33);"/>
	<path d="M510.19,2339.77C510.457,2340.09 511.202,2322.45 509.049,2317.77C508.187,2315.89 522.078,2327.75 527.373,2336.04C527.904,2336.87 525.774,2319.55 525.774,2319.55C525.55,2319.2 530.533,2320.1 538.744,2332.71C539.626,2334.07 538.301,2319.19 538.7,2319.29C540.731,2319.81 548.266,2317.3 547.391,2331.44C547.192,2334.67 552.689,2319.83 556.308,2319.97C558.024,2320.03 558.377,2317.8 561.89,2319.58C562.189,2319.73 576.131,2296.54 584.216,2300.05C584.555,2300.2 575.542,2328.09 577.885,2333.13C578.176,2333.75 591.348,2316.46 594.472,2319.07C595.011,2319.52 589.313,2331.9 592.555,2331.73C593.188,2331.7 603.455,2322.28 603.591,2325.28C603.606,2325.62 599.372,2333.03 603.45,2333.39" style="fill:none;stroke:black;stroke-width:2px;"/>
</g>
<g xmlns="http://www.w3.org/2000/svg">
	<path d="M4043.65,2164.63C4044.6,2152.97 4062.61,2151.81 4062.61,2151.81C4062.61,2151.81 4049.2,2136.89 4035.85,2156.69C4022.5,2176.49 4035.72,2134.11 4033.64,2135.26C4031.55,2136.41 4026.66,2143.58 4023.66,2150.24C4020.67,2156.91 4021.97,2138.07 4024.62,2129.63C4027.27,2121.19 4015.04,2140.48 4012.23,2147.86C4009.43,2155.24 4008.64,2145.71 4011.52,2136.82C4014.41,2127.93 4000.86,2148.41 3999.07,2155.5C3997.29,2162.6 3999.11,2136.08 4001.58,2132.32C4004.05,2128.57 3981.92,2144.72 3980.12,2152.15C3978.33,2159.58 3985.87,2123.66 3985.33,2116.25C3984.79,2108.84 3970.99,2136.99 3968.82,2143.55C3966.64,2150.12 3977.6,2106.32 3978.28,2104.17C3980.84,2096.16 3957.95,2130.04 3953.24,2147.41C3953.02,2148.23 3954.97,2128.49 3946.99,2141.88C3946.39,2142.88 3947.7,2132.32 3947.49,2132.1C3942.52,2127.06 3937.27,2138.91 3933.09,2144.89C3933.01,2145.01 3938.75,2120.74 3936.38,2125.74C3935.97,2126.62 3929.16,2135.82 3928.63,2135.96C3923.06,2137.33 3924.16,2115.08 3923.93,2115.76C3921.99,2121.5 3925.05,2141.26 3919.34,2153.82C3917.63,2157.57 3927.65,2159.26 3927.65,2159.26" style="fill:rgb(0,120,33);"/>
	<path d="M3906.59,2138.12C3905.28,2146.78 3907.91,2148.74 3907.91,2148.74" style="fill:none;stroke:black;stroke-width:2px;"/>
	<path d="M3898.08,2136.96C3898.08,2136.96 3895.16,2142.59 3897.77,2149.99" style="fill:none;stroke:black;stroke-width:2px;"/>
	<path d="M3868.55,2145.68C3863.55,2150.65 3868.81,2156.11 3868.81,2156.11L3885.78,2156.89C3885.78,2156.89 3888.95,2151.8 3887.73,2152.61C3886.52,2153.42 3884.06,2145.12 3883.71,2144.09C3881.9,2138.74 3878.43,2154.27 3877.95,2154.31C3875.21,2154.53 3873.1,2143.21 3873.06,2143C3872.78,2141.05 3871.44,2142.81 3868.55,2145.68Z" style="fill:rgb(0,120,33);"/>
	<path d="M3887.73,2152.61C3886.52,2153.42 3884.06,2145.12 3883.71,2144.09C3881.9,2138.74 3878.43,2154.27 3877.95,2154.31C3875.21,2154.53 3873.1,2143.21 3873.06,2143C3872.78,2141.05 3871.44,2142.81 3868.55,2145.68" style="fill:none;stroke:black;stroke-width:2px;"/>
	<path d="M4062.38,2151.85C4062.38,2151.85 4048.96,2136.93 4035.61,2156.73C4022.26,2176.53 4035.49,2134.15 4033.4,2135.3C4031.32,2136.45 4026.43,2143.62 4023.43,2150.28C4020.44,2156.95 4021.74,2138.11 4024.38,2129.67C4027.03,2121.23 4014.81,2140.53 4012,2147.91C4009.19,2155.28 4008.4,2145.75 4011.29,2136.86C4014.18,2127.97 4000.63,2148.45 3998.84,2155.55C3997.05,2162.64 3998.88,2136.12 4001.35,2132.37C4003.82,2128.61 3981.69,2144.76 3979.89,2152.19C3978.09,2159.62 3985.64,2123.71 3985.1,2116.29C3984.55,2108.88 3970.76,2137.03 3968.59,2143.59C3966.41,2150.16 3977.36,2106.37 3978.05,2104.21C3980.61,2096.2 3957.72,2130.09 3953.01,2147.45C3952.79,2148.27 3954.73,2128.53 3946.76,2141.92C3946.16,2142.93 3947.47,2132.36 3947.26,2132.14C3942.28,2127.1 3937.03,2138.95 3932.86,2144.94C3932.77,2145.05 3938.52,2120.78 3936.15,2125.79C3935.74,2126.66 3928.92,2135.87 3928.39,2136C3922.83,2137.37 3923.92,2115.12 3923.7,2115.8C3921.76,2121.54 3924.82,2141.3 3919.1,2153.86" style="fill:none;stroke:black;stroke-width:2px;"/>
</g>
<g xmlns="http://www.w3.org/2000/svg">
	<path d="M4827.58,2086.72C4832.29,2103.36 4836.76,2113.99 4836.48,2122.39C4836.42,2124.29 4843.77,2081.98 4844.38,2081.31C4847.07,2078.34 4845.9,2107.01 4847.04,2112.41C4847.48,2114.49 4852.18,2064.2 4855.28,2069.57C4855.92,2070.68 4856.51,2099.26 4858.59,2101.58C4860.67,2103.91 4865.26,2078.3 4866.1,2084.38C4866.94,2090.47 4870.2,2105.66 4871.79,2114.12C4873.37,2122.58 4876.48,2088.32 4877.9,2096.1C4879.33,2103.88 4885.23,2101.86 4883.72,2108.62C4882.21,2115.37 4908.3,2085.96 4915.46,2082.68C4916.6,2082.16 4916.86,2098.49 4909.14,2110.26C4907.98,2112.02 4926.42,2092.81 4926.66,2102.07C4926.71,2103.89 4923.37,2110.08 4925.44,2115.29C4925.75,2116.07 4949.93,2116.15 4955.37,2116.66C4960.81,2117.16 4835.73,2127.09 4835.73,2127.09C4835.73,2127.09 4822.86,2070.09 4827.58,2086.72Z" style="fill:rgb(0,120,33);"/>
	<path d="M4827.58,2086.72C4832.29,2103.36 4836.76,2113.99 4836.48,2122.39C4836.42,2124.29 4843.77,2081.98 4844.38,2081.31C4847.07,2078.34 4845.9,2107.01 4847.04,2112.41C4847.48,2114.49 4852.18,2064.2 4855.28,2069.57C4855.92,2070.68 4856.51,2099.26 4858.59,2101.58C4860.67,2103.91 4865.26,2078.3 4866.1,2084.38C4866.94,2090.47 4870.2,2105.66 4871.79,2114.12C4873.37,2122.58 4876.48,2088.32 4877.9,2096.1C4879.33,2103.88 4885.23,2101.86 4883.72,2108.62C4882.21,2115.37 4908.3,2085.96 4915.46,2082.68C4916.6,2082.16 4916.86,2098.49 4909.14,2110.26C4907.98,2112.02 4926.42,2092.81 4926.66,2102.07C4926.71,2103.89 4923.37,2110.08 4925.44,2115.29C4925.75,2116.07 4949.93,2116.15 4955.37,2116.66" style="fill:none;stroke:black;stroke-width:2px;"/>
</g>
<g xmlns="http://www.w3.org/2000/svg">
	<path d="M5874.45,2145.24C5874.75,2145.53 5873.66,2128.33 5871.03,2124.01C5869.98,2122.28 5885.03,2132.37 5891.16,2139.88C5891.77,2140.63 5887.85,2124.04 5887.85,2124.04C5887.59,2123.72 5892.64,2124.09 5902.12,2135.49C5903.14,2136.72 5900.27,2122.41 5900.68,2122.47C5902.75,2122.77 5909.98,2119.58 5910.59,2133.38C5910.72,2136.53 5914.65,2121.58 5918.26,2121.34C5919.97,2121.23 5920.09,2119.03 5923.77,2120.4C5924.08,2120.51 5935.54,2096.6 5943.94,2099.18C5944.3,2099.29 5938.23,2127.27 5941.09,2131.92C5941.44,2132.5 5952.74,2114.38 5956.12,2116.6C5956.71,2116.98 5952.33,2129.57 5955.53,2129.07C5956.16,2128.98 5965.39,2118.8 5965.84,2121.69C5965.89,2122.03 5962.45,2129.64 5966.54,2129.58" style="fill:rgb(0,120,33);"/>
	<path d="M5874.45,2145.24C5874.75,2145.53 5873.66,2128.33 5871.03,2124.01C5869.98,2122.28 5885.03,2132.37 5891.16,2139.88C5891.77,2140.63 5887.85,2124.04 5887.85,2124.04C5887.59,2123.72 5892.64,2124.09 5902.12,2135.49C5903.14,2136.72 5900.27,2122.41 5900.68,2122.47C5902.75,2122.77 5909.98,2119.58 5910.59,2133.38C5910.72,2136.53 5914.65,2121.58 5918.26,2121.34C5919.97,2121.23 5920.09,2119.03 5923.77,2120.4C5924.08,2120.51 5935.54,2096.6 5943.94,2099.18C5944.3,2099.29 5938.23,2127.27 5941.09,2131.92C5941.44,2132.5 5952.74,2114.38 5956.12,2116.6C5956.71,2116.98 5952.33,2129.57 5955.53,2129.07C5956.16,2128.98 5965.39,2118.8 5965.84,2121.69C5965.89,2122.03 5962.45,2129.64 5966.54,2129.58" style="fill:none;stroke:black;stroke-width:2px;"/>
</g>
</g>

    </svg>